G04 ================== begin FILE IDENTIFICATION RECORD ==================*
G04 Layout Name:  CC120xEM_420_470.brd*
G04 Film Name:    assembly_bottom*
G04 File Format:  Gerber RS274X*
G04 File Origin:  Cadence Allegro 16.5-S017*
G04 Origin Date:  Fri Jan 25 12:45:29 2013*
G04 *
G04 Layer:  REF DES/ASSEMBLY_BOTTOM*
G04 Layer:  PACKAGE GEOMETRY/ASSEMBLY_BOTTOM*
G04 Layer:  BOARD GEOMETRY/OUTLINE*
G04 *
G04 Offset:    (0.0000 0.0000)*
G04 Mirror:    No*
G04 Mode:      Positive*
G04 Rotation:  0*
G04 FullContactRelief:  No*
G04 UndefLineWidth:     0.0100*
G04 ================== end FILE IDENTIFICATION RECORD ====================*
%FSLAX25Y25*MOMM*%
%IR0*IPPOS*OFA0.00000B0.00000*MIA0B0*SFA1.00000B1.00000*%
%ADD10C,.1*%
%ADD11C,.01*%
G75*
%LPD*%
G75*
G54D10*
G01X350000Y1650000D02*
Y1696000D01*
X338000D01*
X334000Y1693700D01*
X331000Y1688330D01*
X330000Y1682200D01*
X331000Y1676070D01*
X333500Y1671470D01*
X338000Y1669170D01*
X350000D01*
G01X305000Y1650000D02*
Y1696000D01*
X311000Y1686800D01*
G01Y1650000D02*
X299000D01*
G01X314500Y3105000D02*
Y3151000D01*
X295500D01*
G01X302500Y3128770D02*
X314500D01*
G01X276000Y3151000D02*
X264000D01*
G01X270000D02*
Y3105000D01*
G01X276000D02*
X264000D01*
G01X246000D02*
Y3151000D01*
X236000D01*
X232000Y3148700D01*
X229000Y3145630D01*
X226500Y3141030D01*
X224500Y3135670D01*
X224000Y3128000D01*
X224500Y3120330D01*
X226500Y3114970D01*
X229000Y3110370D01*
X232000Y3107300D01*
X236000Y3105000D01*
X246000D01*
G01X211000Y3151000D02*
Y3118030D01*
X209000Y3111130D01*
X205000Y3106530D01*
X200000Y3105000D01*
X195000Y3106530D01*
X191000Y3111130D01*
X189000Y3118030D01*
Y3151000D01*
G01X174500Y3124170D02*
X171000Y3129530D01*
X168000Y3132600D01*
X164000Y3134130D01*
X160500Y3132600D01*
X158000Y3129530D01*
X156000Y3124930D01*
X155500Y3119570D01*
X156000Y3114970D01*
X158000Y3110370D01*
X161000Y3106530D01*
X164500Y3105000D01*
X168500Y3106530D01*
X172000Y3111130D01*
X174000Y3118030D01*
X174500Y3125700D01*
X173500Y3135670D01*
X172000Y3141030D01*
X169500Y3146400D01*
X166000Y3150230D01*
X162500Y3151000D01*
X159000Y3149470D01*
X156500Y3145630D01*
G01X3400000Y1650000D02*
Y1696000D01*
X3388000D01*
X3384000Y1693700D01*
X3381000Y1688330D01*
X3380000Y1682200D01*
X3381000Y1676070D01*
X3383500Y1671470D01*
X3388000Y1669170D01*
X3400000D01*
G01X3364500Y1688330D02*
X3361500Y1692930D01*
X3358000Y1695230D01*
X3354000Y1696000D01*
X3349000Y1694470D01*
X3345500Y1690630D01*
X3344500Y1686030D01*
X3345000Y1681430D01*
X3347000Y1677600D01*
X3357000Y1669930D01*
X3361500Y1664570D01*
X3364500Y1656900D01*
X3365500Y1650000D01*
X3344500D01*
G01X3879500Y345000D02*
Y391000D01*
X3860500D01*
G01X3867500Y368770D02*
X3879500D01*
G01X3841000Y391000D02*
X3829000D01*
G01X3835000D02*
Y345000D01*
G01X3841000D02*
X3829000D01*
G01X3811000D02*
Y391000D01*
X3801000D01*
X3797000Y388700D01*
X3794000Y385630D01*
X3791500Y381030D01*
X3789500Y375670D01*
X3789000Y368000D01*
X3789500Y360330D01*
X3791500Y354970D01*
X3794000Y350370D01*
X3797000Y347300D01*
X3801000Y345000D01*
X3811000D01*
G01X3776000Y391000D02*
Y358030D01*
X3774000Y351130D01*
X3770000Y346530D01*
X3765000Y345000D01*
X3760000Y346530D01*
X3756000Y351130D01*
X3754000Y358030D01*
Y391000D01*
G01X3741000Y351900D02*
X3738000Y348070D01*
X3734500Y345770D01*
X3730000Y345000D01*
X3725500Y346530D01*
X3722000Y349600D01*
X3719500Y354970D01*
X3719000Y361100D01*
X3720000Y367230D01*
X3722500Y371070D01*
X3726000Y374130D01*
X3729500Y374900D01*
X3733000Y374130D01*
X3737500Y371070D01*
X3736000Y391000D01*
X3722500D01*
G01X3779000Y3084400D02*
Y3130400D01*
X3760000D01*
G01X3767000Y3108170D02*
X3779000D01*
G01X3740500Y3130400D02*
X3728500D01*
G01X3734500D02*
Y3084400D01*
G01X3740500D02*
X3728500D01*
G01X3710500D02*
Y3130400D01*
X3700500D01*
X3696500Y3128100D01*
X3693500Y3125030D01*
X3691000Y3120430D01*
X3689000Y3115070D01*
X3688500Y3107400D01*
X3689000Y3099730D01*
X3691000Y3094370D01*
X3693500Y3089770D01*
X3696500Y3086700D01*
X3700500Y3084400D01*
X3710500D01*
G01X3675500Y3130400D02*
Y3097430D01*
X3673500Y3090530D01*
X3669500Y3085930D01*
X3664500Y3084400D01*
X3659500Y3085930D01*
X3655500Y3090530D01*
X3653500Y3097430D01*
Y3130400D01*
G01X3623500Y3084400D02*
Y3130400D01*
X3642000Y3097430D01*
X3617000D01*
G54D11*
G01X5000Y10000D02*
Y5680000D01*
X3935000D01*
Y10000D01*
X5000D01*
G01X412110Y367060D02*
X356230D01*
G01X333370Y344200D02*
X356230Y367060D01*
G01D02*
Y422940D01*
G01X412110D02*
Y367060D01*
G01D02*
X434970Y344200D01*
G01X384170Y312450D02*
Y172750D01*
G01X511170D02*
X384170D01*
G01X333370Y344200D02*
X434970D01*
G01X333370Y445800D02*
Y344200D01*
G01X600070Y312450D02*
X295270D01*
G01Y1417350D02*
Y312450D01*
G01X389640Y379970D02*
G02X368410Y392220I-5475J15033D01*
G01Y397780D02*
G02X389640Y410040I15759J-2778D01*
G01X368380Y392220D02*
X368410D01*
G01Y397780D02*
X368380D01*
G01X356230Y399930D02*
X368380Y397780D01*
G01X356230Y390070D02*
X368380Y392220D01*
G01X389640Y379970D02*
X389650Y379940D01*
G01X394160Y367550D02*
X389650Y379940D01*
G01X394160Y422450D02*
X389650Y410060D01*
G01D02*
X389640Y410030D01*
G01X375650Y367060D02*
G02X356220Y386480I8511J27946D01*
G01X412110D02*
G02X392680Y367060I-27938J8523D01*
G01Y422940D02*
G02X412110Y403520I-8508J-27943D01*
G01X356220D02*
G02X375650Y422940I27941J-8526D01*
G01X402940Y372620D02*
X394070Y383200D01*
G01X402940Y417380D02*
X394070Y406800D01*
G01X368980Y400040D02*
G02Y389960I-3861J-5040D01*
G01X295270Y388650D02*
X263520D01*
G01D02*
G02X263510Y401350I0J6350D01*
G01X263520D02*
X295270D01*
G01X263520Y369600D02*
G02X263510Y420400I0J25400D01*
G01X396870Y379870D02*
Y369600D01*
G01Y403630D02*
Y386380D01*
G01Y420400D02*
Y410140D01*
G01X398590Y369600D02*
X396870D01*
G01X393410D02*
X396870D01*
G01X263520D02*
X295270D01*
G01X412110Y549940D02*
Y494060D01*
G01Y748060D02*
X356230D01*
G01Y494060D02*
Y549940D01*
G01Y803940D02*
X412110D01*
G01Y621060D02*
X356230D01*
G01X333370Y572800D02*
X356230Y549940D01*
G01D02*
X412110D01*
G01D02*
X434970Y572800D01*
G01X412110Y676940D02*
Y621060D01*
G01D02*
X434970Y598200D01*
G01X333370D02*
X356230Y621060D01*
G01D02*
Y676940D01*
G01Y422940D02*
X412110D01*
G01Y803940D02*
Y748060D01*
G01D02*
X434970Y725200D01*
G01X412110Y803940D02*
X434970Y826800D01*
G01X333370Y725200D02*
X356230Y748060D01*
G01D02*
Y803940D01*
G01X333370Y826800D02*
X356230Y803940D01*
G01X333370Y445800D02*
X356230Y422940D01*
G01X412110D02*
X434970Y445800D01*
G01X333370Y699800D02*
X356230Y676940D01*
G01D02*
X412110D01*
G01D02*
X434970Y699800D01*
G01X412110Y494060D02*
X434970Y471200D01*
G01X412110Y494060D02*
X356230D01*
G01X333370Y471200D02*
X356230Y494060D01*
G01X434970Y445800D02*
X333370D01*
G01X434970Y572800D02*
X333370D01*
G01Y471200D02*
X434970D01*
G01X333370Y572800D02*
Y471200D01*
G01X434970Y699800D02*
X333370D01*
G01Y598200D02*
X434970D01*
G01X333370Y699800D02*
Y598200D01*
G01Y725200D02*
X434970D01*
G01X333370Y826800D02*
Y725200D01*
G01X389640Y633970D02*
G02X368410Y646220I-5475J15033D01*
G01Y651780D02*
G02X389640Y664040I15759J-2778D01*
G01X368380Y646220D02*
X368410D01*
G01Y651780D02*
X368380D01*
G01X356230Y653930D02*
X368380Y651780D01*
G01X356230Y644070D02*
X368380Y646220D01*
G01X389640Y633970D02*
X389650Y633940D01*
G01X394160Y621550D02*
X389650Y633940D01*
G01X394160Y676450D02*
X389650Y664060D01*
G01D02*
X389640Y664030D01*
G01X375650Y621060D02*
G02X356220Y640480I8511J27946D01*
G01X412110D02*
G02X392680Y621060I-27938J8523D01*
G01Y676940D02*
G02X412110Y657520I-8508J-27943D01*
G01X356220D02*
G02X375650Y676940I27941J-8526D01*
G01X402940Y626620D02*
X394070Y637200D01*
G01X402940Y671380D02*
X394070Y660800D01*
G01X368980Y654040D02*
G02Y643960I-3861J-5040D01*
G01X295270Y642650D02*
X263520D01*
G01D02*
G02X263510Y655350I0J6350D01*
G01X263520D02*
X295270D01*
G01X263520Y623600D02*
G02X263510Y674400I0J25400D01*
G01X396870Y633870D02*
Y623600D01*
G01Y657630D02*
Y640380D01*
G01Y674400D02*
Y664140D01*
G01X398590Y623600D02*
X396870D01*
G01X393410D02*
X396870D01*
G01X263520D02*
X295270D01*
G01X396870Y674400D02*
X393410D01*
G01X396870D02*
X398590D01*
G01X263520D02*
X295270D01*
G01X396870Y420400D02*
X393410D01*
G01X396870D02*
X398590D01*
G01X263520D02*
X295270D01*
G01X389640Y760970D02*
G02X368410Y773220I-5475J15033D01*
G01Y778780D02*
G02X389640Y791040I15759J-2778D01*
G01X368380Y773220D02*
X368410D01*
G01Y778780D02*
X368380D01*
G01X356230Y780930D02*
X368380Y778780D01*
G01X356230Y771070D02*
X368380Y773220D01*
G01X389640Y760970D02*
X389650Y760940D01*
G01X394160Y748550D02*
X389650Y760940D01*
G01X394160Y803450D02*
X389650Y791060D01*
G01D02*
X389640Y791030D01*
G01X375650Y748060D02*
G02X356220Y767480I8511J27946D01*
G01X412110D02*
G02X392680Y748060I-27938J8523D01*
G01Y803940D02*
G02X412110Y784520I-8508J-27943D01*
G01X356220D02*
G02X375650Y803940I27941J-8526D01*
G01X402940Y753620D02*
X394070Y764200D01*
G01X402940Y798380D02*
X394070Y787800D01*
G01X368980Y781040D02*
G02Y770960I-3861J-5040D01*
G01X295270Y769650D02*
X263520D01*
G01D02*
G02X263510Y782350I0J6350D01*
G01X263520D02*
X295270D01*
G01X263520Y750600D02*
G02X263510Y801400I0J25400D01*
G01X396870Y760870D02*
Y750600D01*
G01Y784630D02*
Y767380D01*
G01Y801400D02*
Y791140D01*
G01X398590Y750600D02*
X396870D01*
G01X393410D02*
X396870D01*
G01X263520D02*
X295270D01*
G01X396870Y801400D02*
X393410D01*
G01X396870D02*
X398590D01*
G01X263520D02*
X295270D01*
G01X389640Y506970D02*
G02X368410Y519220I-5475J15033D01*
G01Y524780D02*
G02X389640Y537040I15759J-2778D01*
G01X368380Y519220D02*
X368410D01*
G01Y524780D02*
X368380D01*
G01X356230Y526930D02*
X368380Y524780D01*
G01X356230Y517070D02*
X368380Y519220D01*
G01X389640Y506970D02*
X389650Y506940D01*
G01X394160Y494550D02*
X389650Y506940D01*
G01X394160Y549450D02*
X389650Y537060D01*
G01D02*
X389640Y537030D01*
G01X375650Y494060D02*
G02X356220Y513480I8511J27946D01*
G01X412110D02*
G02X392680Y494060I-27938J8523D01*
G01Y549940D02*
G02X412110Y530520I-8508J-27943D01*
G01X356220D02*
G02X375650Y549940I27941J-8526D01*
G01X402940Y499620D02*
X394070Y510200D01*
G01X402940Y544380D02*
X394070Y533800D01*
G01X368980Y527040D02*
G02Y516960I-3861J-5040D01*
G01X295270Y515650D02*
X263520D01*
G01D02*
G02X263510Y528350I0J6350D01*
G01X263520D02*
X295270D01*
G01X263520Y496600D02*
G02X263510Y547400I0J25400D01*
G01X396870Y506870D02*
Y496600D01*
G01Y530630D02*
Y513380D01*
G01Y547400D02*
Y537140D01*
G01X398590Y496600D02*
X396870D01*
G01X393410D02*
X396870D01*
G01X263520D02*
X295270D01*
G01X396870Y547400D02*
X393410D01*
G01X396870D02*
X398590D01*
G01X263520D02*
X295270D01*
G01X356230Y1002060D02*
Y1057940D01*
G01X412110Y1002060D02*
X356230D01*
G01X333370Y979200D02*
X356230Y1002060D01*
G01X412110Y1129060D02*
X356230D01*
G01X333370Y1106200D02*
X356230Y1129060D01*
G01D02*
Y1184940D01*
G01X333370Y1207800D02*
X356230Y1184940D01*
G01D02*
X412110D01*
G01Y875060D02*
X356230D01*
G01Y930940D02*
X412110D01*
G01D02*
Y875060D01*
G01D02*
X434970Y852200D01*
G01X412110Y930940D02*
X434970Y953800D01*
G01X333370Y1080800D02*
X356230Y1057940D01*
G01D02*
X412110D01*
G01X333370Y852200D02*
X356230Y875060D01*
G01D02*
Y930940D01*
G01X333370Y953800D02*
X356230Y930940D01*
G01X412110Y1184940D02*
Y1129060D01*
G01D02*
X434970Y1106200D01*
G01X412110Y1184940D02*
X434970Y1207800D01*
G01X412110Y1057940D02*
Y1002060D01*
G01D02*
X434970Y979200D01*
G01X412110Y1057940D02*
X434970Y1080800D01*
G01Y826800D02*
X333370D01*
G01X434970Y953800D02*
X333370D01*
G01Y852200D02*
X434970D01*
G01X333370Y953800D02*
Y852200D01*
G01X434970Y1080800D02*
X333370D01*
G01Y979200D02*
X434970D01*
G01X333370Y1080800D02*
Y979200D01*
G01Y1106200D02*
X434970D01*
G01X333370Y1207800D02*
Y1106200D01*
G01X389640Y1014970D02*
G02X368410Y1027220I-5475J15033D01*
G01Y1032780D02*
G02X389640Y1045040I15759J-2778D01*
G01X368380Y1027220D02*
X368410D01*
G01Y1032780D02*
X368380D01*
G01X356230Y1034930D02*
X368380Y1032780D01*
G01X356230Y1025070D02*
X368380Y1027220D01*
G01X389640Y1014970D02*
X389650Y1014940D01*
G01X394160Y1002550D02*
X389650Y1014940D01*
G01X394160Y1057450D02*
X389650Y1045060D01*
G01D02*
X389640Y1045030D01*
G01X375650Y1002060D02*
G02X356220Y1021480I8511J27946D01*
G01X412110D02*
G02X392680Y1002060I-27938J8523D01*
G01Y1057940D02*
G02X412110Y1038520I-8508J-27943D01*
G01X356220D02*
G02X375650Y1057940I27941J-8526D01*
G01X402940Y1007620D02*
X394070Y1018200D01*
G01X402940Y1052380D02*
X394070Y1041800D01*
G01X368980Y1035040D02*
G02Y1024960I-3861J-5040D01*
G01X295270Y1023650D02*
X263520D01*
G01D02*
G02X263510Y1036350I0J6350D01*
G01X263520D02*
X295270D01*
G01X263520Y1004600D02*
G02X263510Y1055400I0J25400D01*
G01X396870Y1014870D02*
Y1004600D01*
G01Y1038630D02*
Y1021380D01*
G01Y1055400D02*
Y1045140D01*
G01X398590Y1004600D02*
X396870D01*
G01X393410D02*
X396870D01*
G01X263520D02*
X295270D01*
G01X396870Y1055400D02*
X393410D01*
G01X396870D02*
X398590D01*
G01X263520D02*
X295270D01*
G01X389640Y1141970D02*
G02X368410Y1154220I-5475J15033D01*
G01Y1159780D02*
G02X389640Y1172040I15759J-2778D01*
G01X368380Y1154220D02*
X368410D01*
G01Y1159780D02*
X368380D01*
G01X356230Y1161930D02*
X368380Y1159780D01*
G01X356230Y1152070D02*
X368380Y1154220D01*
G01X389640Y1141970D02*
X389650Y1141940D01*
G01X394160Y1129550D02*
X389650Y1141940D01*
G01X394160Y1184450D02*
X389650Y1172060D01*
G01D02*
X389640Y1172030D01*
G01X375650Y1129060D02*
G02X356220Y1148480I8511J27946D01*
G01X412110D02*
G02X392680Y1129060I-27938J8523D01*
G01Y1184940D02*
G02X412110Y1165520I-8508J-27943D01*
G01X356220D02*
G02X375650Y1184940I27941J-8526D01*
G01X402940Y1134620D02*
X394070Y1145200D01*
G01X402940Y1179380D02*
X394070Y1168800D01*
G01X368980Y1162040D02*
G02Y1151960I-3861J-5040D01*
G01X295270Y1150650D02*
X263520D01*
G01D02*
G02X263510Y1163350I0J6350D01*
G01X263520D02*
X295270D01*
G01X263520Y1131600D02*
G02X263510Y1182400I0J25400D01*
G01X396870Y1141870D02*
Y1131600D01*
G01Y1165630D02*
Y1148380D01*
G01Y1182400D02*
Y1172140D01*
G01X398590Y1131600D02*
X396870D01*
G01X393410D02*
X396870D01*
G01X263520D02*
X295270D01*
G01X396870Y1182400D02*
X393410D01*
G01X396870D02*
X398590D01*
G01X263520D02*
X295270D01*
G01X389640Y887970D02*
G02X368410Y900220I-5475J15033D01*
G01Y905780D02*
G02X389640Y918040I15759J-2778D01*
G01X368380Y900220D02*
X368410D01*
G01Y905780D02*
X368380D01*
G01X356230Y907930D02*
X368380Y905780D01*
G01X356230Y898070D02*
X368380Y900220D01*
G01X389640Y887970D02*
X389650Y887940D01*
G01X394160Y875550D02*
X389650Y887940D01*
G01X394160Y930450D02*
X389650Y918060D01*
G01D02*
X389640Y918030D01*
G01X375650Y875060D02*
G02X356220Y894480I8511J27946D01*
G01X412110D02*
G02X392680Y875060I-27938J8523D01*
G01Y930940D02*
G02X412110Y911520I-8508J-27943D01*
G01X356220D02*
G02X375650Y930940I27941J-8526D01*
G01X402940Y880620D02*
X394070Y891200D01*
G01X402940Y925380D02*
X394070Y914800D01*
G01X368980Y908040D02*
G02Y897960I-3861J-5040D01*
G01X295270Y896650D02*
X263520D01*
G01D02*
G02X263510Y909350I0J6350D01*
G01X263520D02*
X295270D01*
G01X263520Y877600D02*
G02X263510Y928400I0J25400D01*
G01X396870Y887870D02*
Y877600D01*
G01Y911630D02*
Y894380D01*
G01Y928400D02*
Y918140D01*
G01X398590Y877600D02*
X396870D01*
G01X393410D02*
X396870D01*
G01X263520D02*
X295270D01*
G01X396870Y928400D02*
X393410D01*
G01X396870D02*
X398590D01*
G01X263520D02*
X295270D01*
G01X412110Y1565940D02*
Y1510060D01*
G01Y1256060D02*
X356230D01*
G01X412110Y1311940D02*
Y1256060D01*
G01D02*
X434970Y1233200D01*
G01X333370D02*
X356230Y1256060D01*
G01D02*
Y1311940D01*
G01Y1510060D02*
Y1565940D01*
G01X412110Y1510060D02*
X434970Y1487200D01*
G01X412110Y1510060D02*
X356230D01*
G01X333370Y1487200D02*
X356230Y1510060D01*
G01X333370Y1588800D02*
X356230Y1565940D01*
G01D02*
X412110D01*
G01D02*
X434970Y1588800D01*
G01X333370Y1334800D02*
X356230Y1311940D01*
G01D02*
X412110D01*
G01D02*
X434970Y1334800D01*
G01X412110Y1438940D02*
X434970Y1461800D01*
G01X412110Y1383060D02*
X434970Y1360200D01*
G01X333370D02*
X356230Y1383060D01*
G01X333370Y1461800D02*
X356230Y1438940D01*
G01X434970Y1588800D02*
X333370D01*
G01Y1487200D02*
X434970D01*
G01X333370Y1588800D02*
Y1487200D01*
G01X434970Y1207800D02*
X333370D01*
G01X434970Y1334800D02*
X333370D01*
G01Y1233200D02*
X434970D01*
G01X333370Y1334800D02*
Y1233200D01*
G01X434970Y1461800D02*
X333370D01*
G01Y1360200D02*
X434970D01*
G01X333370Y1461800D02*
Y1360200D01*
G01X231770Y1620550D02*
Y1417350D01*
G01D02*
X295270D01*
G01X356230Y1438940D02*
X412110D01*
G01D02*
Y1383060D01*
G01D02*
X356230D01*
G01D02*
Y1438940D01*
G01X389640Y1522970D02*
G02X368410Y1535220I-5475J15033D01*
G01Y1540780D02*
G02X389640Y1553040I15759J-2778D01*
G01X368380Y1535220D02*
X368410D01*
G01Y1540780D02*
X368380D01*
G01X356230Y1542930D02*
X368380Y1540780D01*
G01X356230Y1533070D02*
X368380Y1535220D01*
G01X389640Y1522970D02*
X389650Y1522940D01*
G01X394160Y1510550D02*
X389650Y1522940D01*
G01X394160Y1565450D02*
X389650Y1553060D01*
G01D02*
X389640Y1553030D01*
G01X375650Y1510060D02*
G02X356220Y1529480I8511J27946D01*
G01X412110D02*
G02X392680Y1510060I-27938J8523D01*
G01Y1565940D02*
G02X412110Y1546520I-8508J-27943D01*
G01X356220D02*
G02X375650Y1565940I27941J-8526D01*
G01X402940Y1515620D02*
X394070Y1526200D01*
G01X402940Y1560380D02*
X394070Y1549800D01*
G01X368980Y1543040D02*
G02Y1532960I-3861J-5040D01*
G01X396870Y1522870D02*
Y1512600D01*
G01Y1546630D02*
Y1529380D01*
G01Y1563400D02*
Y1553140D01*
G01X398590Y1512600D02*
X396870D01*
G01X393410D02*
X396870D01*
G01Y1563400D02*
X393410D01*
G01X396870D02*
X398590D01*
G01X389640Y1268970D02*
G02X368410Y1281220I-5475J15033D01*
G01Y1286780D02*
G02X389640Y1299040I15759J-2778D01*
G01X368380Y1281220D02*
X368410D01*
G01Y1286780D02*
X368380D01*
G01X356230Y1288930D02*
X368380Y1286780D01*
G01X356230Y1279070D02*
X368380Y1281220D01*
G01X389640Y1268970D02*
X389650Y1268940D01*
G01X394160Y1256550D02*
X389650Y1268940D01*
G01X394160Y1311450D02*
X389650Y1299060D01*
G01D02*
X389640Y1299030D01*
G01X375650Y1256060D02*
G02X356220Y1275480I8511J27946D01*
G01X412110D02*
G02X392680Y1256060I-27938J8523D01*
G01Y1311940D02*
G02X412110Y1292520I-8508J-27943D01*
G01X356220D02*
G02X375650Y1311940I27941J-8526D01*
G01X402940Y1261620D02*
X394070Y1272200D01*
G01X402940Y1306380D02*
X394070Y1295800D01*
G01X368980Y1289040D02*
G02Y1278960I-3861J-5040D01*
G01X295270Y1277650D02*
X263520D01*
G01D02*
G02X263510Y1290350I0J6350D01*
G01X263520D02*
X295270D01*
G01X263520Y1258600D02*
G02X263510Y1309400I0J25400D01*
G01X396870Y1268870D02*
Y1258600D01*
G01Y1292630D02*
Y1275380D01*
G01Y1309400D02*
Y1299140D01*
G01X398590Y1258600D02*
X396870D01*
G01X393410D02*
X396870D01*
G01X263520D02*
X295270D01*
G01X396870Y1309400D02*
X393410D01*
G01X396870D02*
X398590D01*
G01X263520D02*
X295270D01*
G01X389640Y1395970D02*
G02X368410Y1408220I-5475J15033D01*
G01Y1413780D02*
G02X389640Y1426040I15759J-2778D01*
G01X368380Y1408220D02*
X368410D01*
G01Y1413780D02*
X368380D01*
G01X356230Y1415930D02*
X368380Y1413780D01*
G01X356230Y1406070D02*
X368380Y1408220D01*
G01X389640Y1395970D02*
X389650Y1395940D01*
G01X394160Y1383550D02*
X389650Y1395940D01*
G01X394160Y1438450D02*
X389650Y1426060D01*
G01D02*
X389640Y1426030D01*
G01X375650Y1383060D02*
G02X356220Y1402480I8511J27946D01*
G01X412110D02*
G02X392680Y1383060I-27938J8523D01*
G01Y1438940D02*
G02X412110Y1419520I-8508J-27943D01*
G01X356220D02*
G02X375650Y1438940I27941J-8526D01*
G01X402940Y1388620D02*
X394070Y1399200D01*
G01X402940Y1433380D02*
X394070Y1422800D01*
G01X368980Y1416040D02*
G02Y1405960I-3861J-5040D01*
G01X295270Y1404650D02*
X263520D01*
G01D02*
G02X263510Y1417350I0J6350D01*
G01X263520Y1385600D02*
G02X238920Y1417350I0J25405D01*
G01X396870Y1395870D02*
Y1385600D01*
G01Y1419630D02*
Y1402380D01*
G01Y1436400D02*
Y1426140D01*
G01X398590Y1385600D02*
X396870D01*
G01X393410D02*
X396870D01*
G01X263520D02*
X295270D01*
G01X396870Y1436400D02*
X393410D01*
G01X396870D02*
X398590D01*
G01X511170Y1760250D02*
X384170D01*
G01Y1620550D02*
Y1760250D01*
G01X231770Y1620550D02*
X600070D01*
G01X394000Y3316000D02*
G03I-140000J0D01*
G01X483230Y422940D02*
Y367060D01*
G01X539110D02*
Y422940D01*
G01X483230Y367060D02*
X539110D01*
G01X483230D02*
X460370Y344200D01*
G01X561970D02*
X539110Y367060D01*
G01X511170Y172750D02*
Y312450D01*
G01X561970Y344200D02*
X460370D01*
G01D02*
Y445800D01*
G01X561970D02*
Y344200D01*
G01X434970D02*
Y445800D01*
G01X600070Y1620550D02*
Y312450D01*
G01X505690Y410040D02*
G02X526920Y397780I5472J-15035D01*
G01Y392220D02*
G02X505690Y379970I-15754J2781D01*
G01X526950Y397780D02*
X526920D01*
G01Y392220D02*
X526950D01*
G01X539110Y390070D02*
X526950Y392220D01*
G01X539110Y399930D02*
X526950Y397780D01*
G01X505690Y410030D02*
X505680Y410060D01*
G01X501170Y422450D02*
X505680Y410060D01*
G01X501170Y367550D02*
X505680Y379940D01*
G01D02*
X505690Y379970D01*
G01X519680Y422940D02*
G02X539110Y403520I-8508J-27943D01*
G01X483220D02*
G02X502650Y422940I27941J-8526D01*
G01Y367060D02*
G02X483220Y386480I8511J27946D01*
G01X539110D02*
G02X519680Y367060I-27938J8523D01*
G01X492390Y417380D02*
X501260Y406800D01*
G01X492390Y372620D02*
X501260Y383200D01*
G01X526350Y389960D02*
G02Y400040I3868J5040D01*
G01X600070Y401350D02*
X631820D01*
G01X631810D02*
G02X631820Y388650I10J-6350D01*
G01D02*
X600070D01*
G01X631810Y420400D02*
G02X631820Y369600I10J-25400D01*
G01X498470Y410140D02*
Y420400D01*
G01Y386370D02*
Y403630D01*
G01Y369600D02*
Y379870D01*
G01Y369600D02*
X501920D01*
G01X498470D02*
X496740D01*
G01X631820D02*
X600070D01*
G01X539110Y748060D02*
Y803940D01*
G01Y621060D02*
Y676940D01*
G01Y803940D02*
X483230D01*
G01X561970Y826800D02*
X539110Y803940D01*
G01X483230Y676940D02*
Y621060D01*
G01Y494060D02*
X539110D01*
G01X483230D02*
X460370Y471200D01*
G01X483230Y549940D02*
Y494060D01*
G01X539110D02*
Y549940D01*
G01X561970Y471200D02*
X539110Y494060D01*
G01Y549940D02*
X483230D01*
G01X561970Y572800D02*
X539110Y549940D01*
G01X483230D02*
X460370Y572800D01*
G01X483230Y748060D02*
X539110D01*
G01X561970Y725200D02*
X539110Y748060D01*
G01Y676940D02*
X483230D01*
G01X561970Y699800D02*
X539110Y676940D01*
G01X483230D02*
X460370Y699800D01*
G01X483230Y748060D02*
X460370Y725200D01*
G01X483230Y803940D02*
Y748060D01*
G01Y803940D02*
X460370Y826800D01*
G01X483230Y621060D02*
X539110D01*
G01X483230D02*
X460370Y598200D01*
G01X561970D02*
X539110Y621060D01*
G01Y422940D02*
X483230D01*
G01X561970Y445800D02*
X539110Y422940D01*
G01X483230D02*
X460370Y445800D01*
G01D02*
X561970D01*
G01Y471200D02*
X460370D01*
G01D02*
Y572800D01*
G01D02*
X561970D01*
G01D02*
Y471200D01*
G01Y598200D02*
X460370D01*
G01D02*
Y699800D01*
G01D02*
X561970D01*
G01D02*
Y598200D01*
G01Y725200D02*
X460370D01*
G01D02*
Y826800D01*
G01X561970D02*
Y725200D01*
G01X434970Y471200D02*
Y572800D01*
G01Y598200D02*
Y699800D01*
G01Y725200D02*
Y826800D01*
G01X505690Y664040D02*
G02X526920Y651780I5472J-15035D01*
G01Y646220D02*
G02X505690Y633970I-15754J2781D01*
G01X526950Y651780D02*
X526920D01*
G01Y646220D02*
X526950D01*
G01X539110Y644070D02*
X526950Y646220D01*
G01X539110Y653930D02*
X526950Y651780D01*
G01X505690Y664030D02*
X505680Y664060D01*
G01X501170Y676450D02*
X505680Y664060D01*
G01X501170Y621550D02*
X505680Y633940D01*
G01D02*
X505690Y633970D01*
G01X519680Y676940D02*
G02X539110Y657520I-8508J-27943D01*
G01X483220D02*
G02X502650Y676940I27941J-8526D01*
G01Y621060D02*
G02X483220Y640480I8511J27946D01*
G01X539110D02*
G02X519680Y621060I-27938J8523D01*
G01X492390Y671380D02*
X501260Y660800D01*
G01X492390Y626620D02*
X501260Y637200D01*
G01X526350Y643960D02*
G02Y654040I3868J5040D01*
G01X600070Y655350D02*
X631820D01*
G01X631810D02*
G02X631820Y642650I10J-6350D01*
G01D02*
X600070D01*
G01X631810Y674400D02*
G02X631820Y623600I10J-25400D01*
G01X498470Y664140D02*
Y674400D01*
G01Y640370D02*
Y657630D01*
G01Y623600D02*
Y633870D01*
G01X496740Y674400D02*
X498470D01*
G01X501920D02*
X498470D01*
G01X631820D02*
X600070D01*
G01X498470Y623600D02*
X501920D01*
G01X498470D02*
X496740D01*
G01X631820D02*
X600070D01*
G01X496740Y420400D02*
X498470D01*
G01X501920D02*
X498470D01*
G01X631820D02*
X600070D01*
G01X505690Y537040D02*
G02X526920Y524780I5472J-15035D01*
G01Y519220D02*
G02X505690Y506970I-15754J2781D01*
G01X526950Y524780D02*
X526920D01*
G01Y519220D02*
X526950D01*
G01X539110Y517070D02*
X526950Y519220D01*
G01X539110Y526930D02*
X526950Y524780D01*
G01X505690Y537030D02*
X505680Y537060D01*
G01X501170Y549450D02*
X505680Y537060D01*
G01X501170Y494550D02*
X505680Y506940D01*
G01D02*
X505690Y506970D01*
G01X519680Y549940D02*
G02X539110Y530520I-8508J-27943D01*
G01X483220D02*
G02X502650Y549940I27941J-8526D01*
G01Y494060D02*
G02X483220Y513480I8511J27946D01*
G01X539110D02*
G02X519680Y494060I-27938J8523D01*
G01X492390Y544380D02*
X501260Y533800D01*
G01X492390Y499620D02*
X501260Y510200D01*
G01X526350Y516960D02*
G02Y527040I3868J5040D01*
G01X600070Y528350D02*
X631820D01*
G01X631810D02*
G02X631820Y515650I10J-6350D01*
G01D02*
X600070D01*
G01X631810Y547400D02*
G02X631820Y496600I10J-25400D01*
G01X498470Y537140D02*
Y547400D01*
G01Y513370D02*
Y530630D01*
G01Y496600D02*
Y506870D01*
G01X496740Y547400D02*
X498470D01*
G01X501920D02*
X498470D01*
G01X631820D02*
X600070D01*
G01X498470Y496600D02*
X501920D01*
G01X498470D02*
X496740D01*
G01X631820D02*
X600070D01*
G01X505690Y791040D02*
G02X526920Y778780I5472J-15035D01*
G01Y773220D02*
G02X505690Y760970I-15754J2781D01*
G01X526950Y778780D02*
X526920D01*
G01Y773220D02*
X526950D01*
G01X539110Y771070D02*
X526950Y773220D01*
G01X539110Y780930D02*
X526950Y778780D01*
G01X505690Y791030D02*
X505680Y791060D01*
G01X501170Y803450D02*
X505680Y791060D01*
G01X501170Y748550D02*
X505680Y760940D01*
G01D02*
X505690Y760970D01*
G01X519680Y803940D02*
G02X539110Y784520I-8508J-27943D01*
G01X483220D02*
G02X502650Y803940I27941J-8526D01*
G01Y748060D02*
G02X483220Y767480I8511J27946D01*
G01X539110D02*
G02X519680Y748060I-27938J8523D01*
G01X492390Y798380D02*
X501260Y787800D01*
G01X492390Y753620D02*
X501260Y764200D01*
G01X526350Y770960D02*
G02Y781040I3868J5040D01*
G01X600070Y782350D02*
X631820D01*
G01X631810D02*
G02X631820Y769650I10J-6350D01*
G01D02*
X600070D01*
G01X631810Y801400D02*
G02X631820Y750600I10J-25400D01*
G01X498470Y791140D02*
Y801400D01*
G01Y767370D02*
Y784630D01*
G01Y750600D02*
Y760870D01*
G01X496740Y801400D02*
X498470D01*
G01X501920D02*
X498470D01*
G01X631820D02*
X600070D01*
G01X498470Y750600D02*
X501920D01*
G01X498470D02*
X496740D01*
G01X631820D02*
X600070D01*
G01X539110Y1184940D02*
X483230D01*
G01X539110Y930940D02*
X483230D01*
G01X539110Y1057940D02*
X483230D01*
G01Y875060D02*
X539110D01*
G01Y1129060D02*
Y1184940D01*
G01X561970Y1207800D02*
X539110Y1184940D01*
G01X483230Y875060D02*
X460370Y852200D01*
G01X483230Y930940D02*
Y875060D01*
G01Y930940D02*
X460370Y953800D01*
G01X539110Y875060D02*
Y930940D01*
G01X561970Y852200D02*
X539110Y875060D01*
G01X561970Y953800D02*
X539110Y930940D01*
G01X483230Y1057940D02*
Y1002060D01*
G01Y1057940D02*
X460370Y1080800D01*
G01X539110Y1002060D02*
Y1057940D01*
G01X561970Y1080800D02*
X539110Y1057940D01*
G01X483230Y1002060D02*
X539110D01*
G01X483230D02*
X460370Y979200D01*
G01X561970D02*
X539110Y1002060D01*
G01X483230Y1184940D02*
Y1129060D01*
G01Y1184940D02*
X460370Y1207800D01*
G01X483230Y1129060D02*
X539110D01*
G01X483230D02*
X460370Y1106200D01*
G01X561970D02*
X539110Y1129060D01*
G01X460370Y826800D02*
X561970D01*
G01Y852200D02*
X460370D01*
G01D02*
Y953800D01*
G01D02*
X561970D01*
G01D02*
Y852200D01*
G01Y979200D02*
X460370D01*
G01D02*
Y1080800D01*
G01D02*
X561970D01*
G01D02*
Y979200D01*
G01Y1106200D02*
X460370D01*
G01D02*
Y1207800D01*
G01X561970D02*
Y1106200D01*
G01X434970Y852200D02*
Y953800D01*
G01Y979200D02*
Y1080800D01*
G01Y1106200D02*
Y1207800D01*
G01X505690Y1045040D02*
G02X526920Y1032780I5472J-15035D01*
G01Y1027220D02*
G02X505690Y1014970I-15754J2781D01*
G01X526950Y1032780D02*
X526920D01*
G01Y1027220D02*
X526950D01*
G01X539110Y1025070D02*
X526950Y1027220D01*
G01X539110Y1034930D02*
X526950Y1032780D01*
G01X505690Y1045030D02*
X505680Y1045060D01*
G01X501170Y1057450D02*
X505680Y1045060D01*
G01X501170Y1002550D02*
X505680Y1014940D01*
G01D02*
X505690Y1014970D01*
G01X519680Y1057940D02*
G02X539110Y1038520I-8508J-27943D01*
G01X483220D02*
G02X502650Y1057940I27941J-8526D01*
G01Y1002060D02*
G02X483220Y1021480I8511J27946D01*
G01X539110D02*
G02X519680Y1002060I-27938J8523D01*
G01X492390Y1052380D02*
X501260Y1041800D01*
G01X492390Y1007620D02*
X501260Y1018200D01*
G01X526350Y1024960D02*
G02Y1035040I3868J5040D01*
G01X600070Y1036350D02*
X631820D01*
G01X631810D02*
G02X631820Y1023650I10J-6350D01*
G01D02*
X600070D01*
G01X631810Y1055400D02*
G02X631820Y1004600I10J-25400D01*
G01X498470Y1045140D02*
Y1055400D01*
G01Y1021370D02*
Y1038630D01*
G01Y1004600D02*
Y1014870D01*
G01X496740Y1055400D02*
X498470D01*
G01X501920D02*
X498470D01*
G01X631820D02*
X600070D01*
G01X498470Y1004600D02*
X501920D01*
G01X498470D02*
X496740D01*
G01X631820D02*
X600070D01*
G01X505690Y1172040D02*
G02X526920Y1159780I5472J-15035D01*
G01Y1154220D02*
G02X505690Y1141970I-15754J2781D01*
G01X526950Y1159780D02*
X526920D01*
G01Y1154220D02*
X526950D01*
G01X539110Y1152070D02*
X526950Y1154220D01*
G01X539110Y1161930D02*
X526950Y1159780D01*
G01X505690Y1172030D02*
X505680Y1172060D01*
G01X501170Y1184450D02*
X505680Y1172060D01*
G01X501170Y1129550D02*
X505680Y1141940D01*
G01D02*
X505690Y1141970D01*
G01X519680Y1184940D02*
G02X539110Y1165520I-8508J-27943D01*
G01X483220D02*
G02X502650Y1184940I27941J-8526D01*
G01Y1129060D02*
G02X483220Y1148480I8511J27946D01*
G01X539110D02*
G02X519680Y1129060I-27938J8523D01*
G01X492390Y1179380D02*
X501260Y1168800D01*
G01X492390Y1134620D02*
X501260Y1145200D01*
G01X526350Y1151960D02*
G02Y1162040I3868J5040D01*
G01X600070Y1163350D02*
X631820D01*
G01X631810D02*
G02X631820Y1150650I10J-6350D01*
G01D02*
X600070D01*
G01X631810Y1182400D02*
G02X631820Y1131600I10J-25400D01*
G01X498470Y1172140D02*
Y1182400D01*
G01Y1148370D02*
Y1165630D01*
G01Y1131600D02*
Y1141870D01*
G01X496740Y1182400D02*
X498470D01*
G01X501920D02*
X498470D01*
G01X631820D02*
X600070D01*
G01X498470Y1131600D02*
X501920D01*
G01X498470D02*
X496740D01*
G01X631820D02*
X600070D01*
G01X505690Y918040D02*
G02X526920Y905780I5472J-15035D01*
G01Y900220D02*
G02X505690Y887970I-15754J2781D01*
G01X526950Y905780D02*
X526920D01*
G01Y900220D02*
X526950D01*
G01X539110Y898070D02*
X526950Y900220D01*
G01X539110Y907930D02*
X526950Y905780D01*
G01X505690Y918030D02*
X505680Y918060D01*
G01X501170Y930450D02*
X505680Y918060D01*
G01X501170Y875550D02*
X505680Y887940D01*
G01D02*
X505690Y887970D01*
G01X519680Y930940D02*
G02X539110Y911520I-8508J-27943D01*
G01X483220D02*
G02X502650Y930940I27941J-8526D01*
G01Y875060D02*
G02X483220Y894480I8511J27946D01*
G01X539110D02*
G02X519680Y875060I-27938J8523D01*
G01X492390Y925380D02*
X501260Y914800D01*
G01X492390Y880620D02*
X501260Y891200D01*
G01X526350Y897960D02*
G02Y908040I3868J5040D01*
G01X600070Y909350D02*
X631820D01*
G01X631810D02*
G02X631820Y896650I10J-6350D01*
G01D02*
X600070D01*
G01X631810Y928400D02*
G02X631820Y877600I10J-25400D01*
G01X498470Y918140D02*
Y928400D01*
G01Y894370D02*
Y911630D01*
G01Y877600D02*
Y887870D01*
G01X496740Y928400D02*
X498470D01*
G01X501920D02*
X498470D01*
G01X631820D02*
X600070D01*
G01X498470Y877600D02*
X501920D01*
G01X498470D02*
X496740D01*
G01X631820D02*
X600070D01*
G01X483230Y1510060D02*
X539110D01*
G01X483230D02*
X460370Y1487200D01*
G01X483230Y1565940D02*
Y1510060D01*
G01Y1256060D02*
X539110D01*
G01Y1510060D02*
Y1565940D01*
G01X561970Y1487200D02*
X539110Y1510060D01*
G01X483230Y1256060D02*
X460370Y1233200D01*
G01X483230Y1311940D02*
Y1256060D01*
G01X539110Y1565940D02*
X483230D01*
G01X561970Y1588800D02*
X539110Y1565940D01*
G01X483230D02*
X460370Y1588800D01*
G01X539110Y1256060D02*
Y1311940D01*
G01X561970Y1233200D02*
X539110Y1256060D01*
G01Y1311940D02*
X483230D01*
G01X561970Y1334800D02*
X539110Y1311940D01*
G01X483230D02*
X460370Y1334800D01*
G01Y1207800D02*
X561970D01*
G01Y1233200D02*
X460370D01*
G01D02*
Y1334800D01*
G01D02*
X561970D01*
G01D02*
Y1233200D01*
G01Y1487200D02*
X460370D01*
G01D02*
Y1588800D01*
G01D02*
X561970D01*
G01D02*
Y1487200D01*
G01X434970D02*
Y1588800D01*
G01Y1233200D02*
Y1334800D01*
G01Y1360200D02*
Y1461800D01*
G01X561970D02*
Y1360200D01*
G01D02*
X460370D01*
G01X561970D02*
X539110Y1383060D01*
G01X561970Y1461800D02*
X539110Y1438940D01*
G01X460370Y1461800D02*
X561970D01*
G01X460370Y1360200D02*
Y1461800D01*
G01X483230Y1383060D02*
X460370Y1360200D01*
G01X483230Y1438940D02*
X460370Y1461800D01*
G01X539110Y1383060D02*
Y1438940D01*
G01X483230Y1383060D02*
X539110D01*
G01Y1438940D02*
X483230D01*
G01D02*
Y1383060D01*
G01X505690Y1299040D02*
G02X526920Y1286780I5472J-15035D01*
G01Y1281220D02*
G02X505690Y1268970I-15754J2781D01*
G01X526950Y1286780D02*
X526920D01*
G01Y1281220D02*
X526950D01*
G01X539110Y1279070D02*
X526950Y1281220D01*
G01X539110Y1288930D02*
X526950Y1286780D01*
G01X505690Y1299030D02*
X505680Y1299060D01*
G01X501170Y1311450D02*
X505680Y1299060D01*
G01X501170Y1256550D02*
X505680Y1268940D01*
G01D02*
X505690Y1268970D01*
G01X519680Y1311940D02*
G02X539110Y1292520I-8508J-27943D01*
G01X483220D02*
G02X502650Y1311940I27941J-8526D01*
G01Y1256060D02*
G02X483220Y1275480I8511J27946D01*
G01X539110D02*
G02X519680Y1256060I-27938J8523D01*
G01X492390Y1306380D02*
X501260Y1295800D01*
G01X492390Y1261620D02*
X501260Y1272200D01*
G01X526350Y1278960D02*
G02Y1289040I3868J5040D01*
G01X600070Y1290350D02*
X631820D01*
G01X631810D02*
G02X631820Y1277650I10J-6350D01*
G01D02*
X600070D01*
G01X631810Y1309400D02*
G02X631820Y1258600I10J-25400D01*
G01X498470Y1299140D02*
Y1309400D01*
G01Y1275370D02*
Y1292630D01*
G01Y1258600D02*
Y1268870D01*
G01X496740Y1309400D02*
X498470D01*
G01X501920D02*
X498470D01*
G01X631820D02*
X600070D01*
G01X498470Y1258600D02*
X501920D01*
G01X498470D02*
X496740D01*
G01X631820D02*
X600070D01*
G01X505690Y1426040D02*
G02X526920Y1413780I5472J-15035D01*
G01Y1408220D02*
G02X505690Y1395970I-15754J2781D01*
G01X526950Y1413780D02*
X526920D01*
G01Y1408220D02*
X526950D01*
G01X539110Y1406070D02*
X526950Y1408220D01*
G01X539110Y1415930D02*
X526950Y1413780D01*
G01X505690Y1426030D02*
X505680Y1426060D01*
G01X501170Y1438450D02*
X505680Y1426060D01*
G01X501170Y1383550D02*
X505680Y1395940D01*
G01D02*
X505690Y1395970D01*
G01X519680Y1438940D02*
G02X539110Y1419520I-8508J-27943D01*
G01X483220D02*
G02X502650Y1438940I27941J-8526D01*
G01Y1383060D02*
G02X483220Y1402480I8511J27946D01*
G01X539110D02*
G02X519680Y1383060I-27938J8523D01*
G01X492390Y1433380D02*
X501260Y1422800D01*
G01X492390Y1388620D02*
X501260Y1399200D01*
G01X526350Y1405960D02*
G02Y1416040I3868J5040D01*
G01X600070Y1417350D02*
X631820D01*
G01X631810D02*
G02X631820Y1404650I10J-6350D01*
G01D02*
X600070D01*
G01X631810Y1436400D02*
G02X631820Y1385600I10J-25400D01*
G01X498470Y1426140D02*
Y1436400D01*
G01Y1402370D02*
Y1419630D01*
G01Y1385600D02*
Y1395870D01*
G01X496740Y1436400D02*
X498470D01*
G01X501920D02*
X498470D01*
G01X631820D02*
X600070D01*
G01X498470Y1385600D02*
X501920D01*
G01X498470D02*
X496740D01*
G01X631820D02*
X600070D01*
G01X505690Y1553040D02*
G02X526920Y1540780I5472J-15035D01*
G01Y1535220D02*
G02X505690Y1522970I-15754J2781D01*
G01X526950Y1540780D02*
X526920D01*
G01Y1535220D02*
X526950D01*
G01X539110Y1533070D02*
X526950Y1535220D01*
G01X539110Y1542930D02*
X526950Y1540780D01*
G01X505690Y1553030D02*
X505680Y1553060D01*
G01X501170Y1565450D02*
X505680Y1553060D01*
G01X501170Y1510550D02*
X505680Y1522940D01*
G01D02*
X505690Y1522970D01*
G01X519680Y1565940D02*
G02X539110Y1546520I-8508J-27943D01*
G01X483220D02*
G02X502650Y1565940I27941J-8526D01*
G01Y1510060D02*
G02X483220Y1529480I8511J27946D01*
G01X539110D02*
G02X519680Y1510060I-27938J8523D01*
G01X492390Y1560380D02*
X501260Y1549800D01*
G01X492390Y1515620D02*
X501260Y1526200D01*
G01X526350Y1532960D02*
G02Y1543040I3868J5040D01*
G01X600070Y1544350D02*
X631820D01*
G01X631810D02*
G02X631820Y1531650I10J-6350D01*
G01D02*
X600070D01*
G01X631810Y1563400D02*
G02X631820Y1512600I10J-25400D01*
G01X498470Y1553140D02*
Y1563400D01*
G01Y1529370D02*
Y1546630D01*
G01Y1512600D02*
Y1522870D01*
G01X496740Y1563400D02*
X498470D01*
G01X501920D02*
X498470D01*
G01X631820D02*
X600070D01*
G01X498470Y1512600D02*
X501920D01*
G01X498470D02*
X496740D01*
G01X631820D02*
X600070D01*
G01X511170Y1760250D02*
Y1620550D01*
G01X570250Y5145250D02*
G02X560000Y5170000I24756J24750D01*
G01Y5405500D01*
X430250Y5535250D01*
G02X479750Y5584750I24750J24750D01*
G01X619750Y5444750D01*
G02X630000Y5420000I-24756J-24750D01*
G01Y5184500D01*
X759750Y5054750D01*
G02X710250Y5005250I-24750J-24750D01*
G01X630000Y5085500D01*
X570250Y5145250D01*
G01X850250D02*
G02X840000Y5170000I24756J24750D01*
G01Y5405500D01*
X710250Y5535250D01*
G02X759750Y5584750I24750J24750D01*
G01X899750Y5444750D01*
G02X910000Y5420000I-24756J-24750D01*
G01Y5184500D01*
X1039750Y5054750D01*
G02X990250Y5005250I-24750J-24750D01*
G01X910000Y5085500D01*
X850250Y5145250D01*
G01X1130250D02*
G02X1120000Y5170000I24756J24750D01*
G01Y5405500D01*
X990250Y5535250D01*
G02X1039750Y5584750I24750J24750D01*
G01X1179750Y5444750D01*
G02X1190000Y5420000I-24756J-24750D01*
G01Y5184500D01*
X1319750Y5054750D01*
G02X1270250Y5005250I-24750J-24750D01*
G01X1190000Y5085500D01*
X1130250Y5145250D01*
G01X1410250D02*
G02X1400000Y5170000I24756J24750D01*
G01Y5405500D01*
X1270250Y5535250D01*
G02X1319750Y5584750I24750J24750D01*
G01X1459750Y5444750D01*
G02X1470000Y5420000I-24756J-24750D01*
G01Y5184500D01*
X1599750Y5054750D01*
G02X1550250Y5005250I-24750J-24750D01*
G01X1470000Y5085500D01*
X1410250Y5145250D01*
G01X1690250D02*
G02X1680000Y5170000I24756J24750D01*
G01Y5405500D01*
X1550250Y5535250D01*
G02X1599750Y5584750I24750J24750D01*
G01X1739750Y5444750D01*
G02X1750000Y5420000I-24756J-24750D01*
G01Y5184500D01*
X1879750Y5054750D01*
G02X1830250Y5005250I-24750J-24750D01*
G01X1750000Y5085500D01*
X1690250Y5145250D01*
G01X1970250D02*
G02X1960000Y5170000I24756J24750D01*
G01Y5405500D01*
X1830250Y5535250D01*
G02X1879750Y5584750I24750J24750D01*
G01X2019750Y5444750D01*
G02X2030000Y5420000I-24756J-24750D01*
G01Y5184500D01*
X2159750Y5054750D01*
G02X2110250Y5005250I-24750J-24750D01*
G01X2030000Y5085500D01*
X1970250Y5145250D01*
G01X2250250D02*
G02X2240000Y5170000I24756J24750D01*
G01Y5405500D01*
X2110250Y5535250D01*
G02X2159750Y5584750I24750J24750D01*
G01X2299750Y5444750D01*
G02X2310000Y5420000I-24756J-24750D01*
G01Y5184500D01*
X2439750Y5054750D01*
G02X2390250Y5005250I-24750J-24750D01*
G01X2310000Y5085500D01*
X2250250Y5145250D01*
G01X2530250D02*
G02X2520000Y5170000I24756J24750D01*
G01Y5405500D01*
X2390250Y5535250D01*
G02X2439750Y5584750I24750J24750D01*
G01X2579750Y5444750D01*
G02X2590000Y5420000I-24756J-24750D01*
G01Y5184500D01*
X2719750Y5054750D01*
G02X2670250Y5005250I-24750J-24750D01*
G01X2590000Y5085500D01*
X2530250Y5145250D01*
G01X2810250D02*
G02X2800000Y5170000I24756J24750D01*
G01Y5405500D01*
X2670250Y5535250D01*
G02X2719750Y5584750I24750J24750D01*
G01X2859750Y5444750D01*
G02X2870000Y5420000I-24756J-24750D01*
G01Y5184500D01*
X2999750Y5054750D01*
G02X2950250Y5005250I-24750J-24750D01*
G01X2870000Y5085500D01*
X2810250Y5145250D01*
G01X3090250D02*
G02X3080000Y5170000I24756J24750D01*
G01Y5405500D01*
X2950250Y5535250D01*
G02X2999750Y5584750I24750J24750D01*
G01X3139750Y5444750D01*
G02X3150000Y5420000I-24756J-24750D01*
G01Y5184500D01*
X3279750Y5054750D01*
G02X3230250Y5005250I-24750J-24750D01*
G01X3150000Y5085500D01*
X3090250Y5145250D01*
G01X3531230Y422940D02*
Y367060D01*
G01X3460110D02*
X3404230D01*
G01X3381370Y344200D02*
X3404230Y367060D01*
G01D02*
Y422940D01*
G01X3531230Y367060D02*
X3587110D01*
G01X3531230D02*
X3508370Y344200D01*
G01X3460110Y422940D02*
Y367060D01*
G01D02*
X3482970Y344200D01*
G01X3432170Y312450D02*
Y172750D01*
G01X3559170D02*
X3432170D01*
G01X3559170D02*
Y312450D01*
G01X3609970Y344200D02*
X3508370D01*
G01D02*
Y445800D01*
G01X3482970Y344200D02*
Y445800D01*
G01X3381370Y344200D02*
X3482970D01*
G01X3381370Y445800D02*
Y344200D01*
G01X3648070Y312450D02*
X3343270D01*
G01Y1417350D02*
Y312450D01*
G01X3553690Y410040D02*
G02X3574920Y397780I5472J-15035D01*
G01Y392220D02*
G02X3553690Y379970I-15754J2781D01*
G01Y410030D02*
X3553680Y410060D01*
G01X3549170Y422450D02*
X3553680Y410060D01*
G01X3549170Y367550D02*
X3553680Y379940D01*
G01D02*
X3553690Y379970D01*
G01X3531220Y403520D02*
G02X3550650Y422940I27941J-8526D01*
G01Y367060D02*
G02X3531220Y386480I8511J27946D01*
G01X3540390Y417380D02*
X3549260Y406800D01*
G01X3540390Y372620D02*
X3549260Y383200D01*
G01X3546470Y410140D02*
Y420400D01*
G01Y386370D02*
Y403630D01*
G01Y369600D02*
Y379870D01*
G01Y369600D02*
X3549920D01*
G01X3546470D02*
X3544740D01*
G01X3437640Y379970D02*
G02X3416410Y392220I-5475J15033D01*
G01Y397780D02*
G02X3437640Y410040I15759J-2778D01*
G01X3416380Y392220D02*
X3416410D01*
G01Y397780D02*
X3416380D01*
G01X3404230Y399930D02*
X3416380Y397780D01*
G01X3404230Y390070D02*
X3416380Y392220D01*
G01X3437640Y379970D02*
X3437650Y379940D01*
G01X3442160Y367550D02*
X3437650Y379940D01*
G01X3442160Y422450D02*
X3437650Y410060D01*
G01D02*
X3437640Y410030D01*
G01X3423650Y367060D02*
G02X3404220Y386480I8511J27946D01*
G01X3460110D02*
G02X3440680Y367060I-27938J8523D01*
G01Y422940D02*
G02X3460110Y403520I-8508J-27943D01*
G01X3404220D02*
G02X3423650Y422940I27941J-8526D01*
G01X3450940Y372620D02*
X3442070Y383200D01*
G01X3450940Y417380D02*
X3442070Y406800D01*
G01X3416980Y400040D02*
G02Y389960I-3861J-5040D01*
G01X3343270Y388650D02*
X3311520D01*
G01D02*
G02X3311510Y401350I0J6350D01*
G01X3311520D02*
X3343270D01*
G01X3311520Y369600D02*
G02X3311510Y420400I0J25400D01*
G01X3444870Y379870D02*
Y369600D01*
G01Y403630D02*
Y386380D01*
G01Y420400D02*
Y410140D01*
G01X3446590Y369600D02*
X3444870D01*
G01X3441410D02*
X3444870D01*
G01X3311520D02*
X3343270D01*
G01X3460110Y549940D02*
Y494060D01*
G01Y748060D02*
X3404230D01*
G01Y494060D02*
Y549940D01*
G01X3587110Y803940D02*
X3531230D01*
G01X3404230D02*
X3460110D01*
G01Y621060D02*
X3404230D01*
G01X3381370Y572800D02*
X3404230Y549940D01*
G01D02*
X3460110D01*
G01D02*
X3482970Y572800D01*
G01X3460110Y676940D02*
Y621060D01*
G01D02*
X3482970Y598200D01*
G01X3531230Y676940D02*
Y621060D01*
G01X3381370Y598200D02*
X3404230Y621060D01*
G01D02*
Y676940D01*
G01X3531230Y494060D02*
X3587110D01*
G01X3404230Y422940D02*
X3460110D01*
G01X3531230Y494060D02*
X3508370Y471200D01*
G01X3531230Y549940D02*
Y494060D01*
G01X3460110Y803940D02*
Y748060D01*
G01D02*
X3482970Y725200D01*
G01X3460110Y803940D02*
X3482970Y826800D01*
G01X3381370Y725200D02*
X3404230Y748060D01*
G01D02*
Y803940D01*
G01X3381370Y826800D02*
X3404230Y803940D01*
G01X3381370Y445800D02*
X3404230Y422940D01*
G01X3587110Y549940D02*
X3531230D01*
G01D02*
X3508370Y572800D01*
G01X3531230Y748060D02*
X3587110D01*
G01Y676940D02*
X3531230D01*
G01D02*
X3508370Y699800D01*
G01X3460110Y422940D02*
X3482970Y445800D01*
G01X3531230Y748060D02*
X3508370Y725200D01*
G01X3531230Y803940D02*
Y748060D01*
G01Y803940D02*
X3508370Y826800D01*
G01X3531230Y621060D02*
X3587110D01*
G01X3531230D02*
X3508370Y598200D01*
G01X3587110Y422940D02*
X3531230D01*
G01D02*
X3508370Y445800D01*
G01X3381370Y699800D02*
X3404230Y676940D01*
G01D02*
X3460110D01*
G01D02*
X3482970Y699800D01*
G01X3460110Y494060D02*
X3482970Y471200D01*
G01X3460110Y494060D02*
X3404230D01*
G01X3381370Y471200D02*
X3404230Y494060D01*
G01X3508370Y445800D02*
X3609970D01*
G01Y471200D02*
X3508370D01*
G01D02*
Y572800D01*
G01D02*
X3609970D01*
G01Y598200D02*
X3508370D01*
G01D02*
Y699800D01*
G01D02*
X3609970D01*
G01Y725200D02*
X3508370D01*
G01D02*
Y826800D01*
G01X3482970Y445800D02*
X3381370D01*
G01X3482970Y572800D02*
X3381370D01*
G01X3482970Y471200D02*
Y572800D01*
G01X3381370Y471200D02*
X3482970D01*
G01X3381370Y572800D02*
Y471200D01*
G01X3482970Y699800D02*
X3381370D01*
G01X3482970Y598200D02*
Y699800D01*
G01X3381370Y598200D02*
X3482970D01*
G01X3381370Y699800D02*
Y598200D01*
G01X3482970Y725200D02*
Y826800D01*
G01X3381370Y725200D02*
X3482970D01*
G01X3381370Y826800D02*
Y725200D01*
G01X3553690Y664040D02*
G02X3574920Y651780I5472J-15035D01*
G01Y646220D02*
G02X3553690Y633970I-15754J2781D01*
G01Y664030D02*
X3553680Y664060D01*
G01X3549170Y676450D02*
X3553680Y664060D01*
G01X3549170Y621550D02*
X3553680Y633940D01*
G01D02*
X3553690Y633970D01*
G01X3531220Y657520D02*
G02X3550650Y676940I27941J-8526D01*
G01Y621060D02*
G02X3531220Y640480I8511J27946D01*
G01X3540390Y671380D02*
X3549260Y660800D01*
G01X3540390Y626620D02*
X3549260Y637200D01*
G01X3546470Y664140D02*
Y674400D01*
G01Y640370D02*
Y657630D01*
G01Y623600D02*
Y633870D01*
G01X3544740Y674400D02*
X3546470D01*
G01X3549920D02*
X3546470D01*
G01Y623600D02*
X3549920D01*
G01X3546470D02*
X3544740D01*
G01Y420400D02*
X3546470D01*
G01X3549920D02*
X3546470D01*
G01X3437640Y633970D02*
G02X3416410Y646220I-5475J15033D01*
G01Y651780D02*
G02X3437640Y664040I15759J-2778D01*
G01X3416380Y646220D02*
X3416410D01*
G01Y651780D02*
X3416380D01*
G01X3404230Y653930D02*
X3416380Y651780D01*
G01X3404230Y644070D02*
X3416380Y646220D01*
G01X3437640Y633970D02*
X3437650Y633940D01*
G01X3442160Y621550D02*
X3437650Y633940D01*
G01X3442160Y676450D02*
X3437650Y664060D01*
G01D02*
X3437640Y664030D01*
G01X3423650Y621060D02*
G02X3404220Y640480I8511J27946D01*
G01X3460110D02*
G02X3440680Y621060I-27938J8523D01*
G01Y676940D02*
G02X3460110Y657520I-8508J-27943D01*
G01X3404220D02*
G02X3423650Y676940I27941J-8526D01*
G01X3450940Y626620D02*
X3442070Y637200D01*
G01X3450940Y671380D02*
X3442070Y660800D01*
G01X3416980Y654040D02*
G02Y643960I-3861J-5040D01*
G01X3343270Y642650D02*
X3311520D01*
G01D02*
G02X3311510Y655350I0J6350D01*
G01X3311520D02*
X3343270D01*
G01X3311520Y623600D02*
G02X3311510Y674400I0J25400D01*
G01X3444870Y633870D02*
Y623600D01*
G01Y657630D02*
Y640380D01*
G01Y674400D02*
Y664140D01*
G01X3446590Y623600D02*
X3444870D01*
G01X3441410D02*
X3444870D01*
G01X3311520D02*
X3343270D01*
G01X3444870Y674400D02*
X3441410D01*
G01X3444870D02*
X3446590D01*
G01X3311520D02*
X3343270D01*
G01X3444870Y420400D02*
X3441410D01*
G01X3444870D02*
X3446590D01*
G01X3311520D02*
X3343270D01*
G01X3553690Y537040D02*
G02X3574920Y524780I5472J-15035D01*
G01Y519220D02*
G02X3553690Y506970I-15754J2781D01*
G01Y537030D02*
X3553680Y537060D01*
G01X3549170Y549450D02*
X3553680Y537060D01*
G01X3549170Y494550D02*
X3553680Y506940D01*
G01D02*
X3553690Y506970D01*
G01X3531220Y530520D02*
G02X3550650Y549940I27941J-8526D01*
G01Y494060D02*
G02X3531220Y513480I8511J27946D01*
G01X3540390Y544380D02*
X3549260Y533800D01*
G01X3540390Y499620D02*
X3549260Y510200D01*
G01X3546470Y537140D02*
Y547400D01*
G01Y513370D02*
Y530630D01*
G01Y496600D02*
Y506870D01*
G01X3544740Y547400D02*
X3546470D01*
G01X3549920D02*
X3546470D01*
G01Y496600D02*
X3549920D01*
G01X3546470D02*
X3544740D01*
G01X3437640Y760970D02*
G02X3416410Y773220I-5475J15033D01*
G01Y778780D02*
G02X3437640Y791040I15759J-2778D01*
G01X3416380Y773220D02*
X3416410D01*
G01Y778780D02*
X3416380D01*
G01X3404230Y780930D02*
X3416380Y778780D01*
G01X3404230Y771070D02*
X3416380Y773220D01*
G01X3437640Y760970D02*
X3437650Y760940D01*
G01X3442160Y748550D02*
X3437650Y760940D01*
G01X3442160Y803450D02*
X3437650Y791060D01*
G01D02*
X3437640Y791030D01*
G01X3423650Y748060D02*
G02X3404220Y767480I8511J27946D01*
G01X3460110D02*
G02X3440680Y748060I-27938J8523D01*
G01Y803940D02*
G02X3460110Y784520I-8508J-27943D01*
G01X3404220D02*
G02X3423650Y803940I27941J-8526D01*
G01X3450940Y753620D02*
X3442070Y764200D01*
G01X3450940Y798380D02*
X3442070Y787800D01*
G01X3416980Y781040D02*
G02Y770960I-3861J-5040D01*
G01X3343270Y769650D02*
X3311520D01*
G01D02*
G02X3311510Y782350I0J6350D01*
G01X3311520D02*
X3343270D01*
G01X3311520Y750600D02*
G02X3311510Y801400I0J25400D01*
G01X3444870Y760870D02*
Y750600D01*
G01Y784630D02*
Y767380D01*
G01Y801400D02*
Y791140D01*
G01X3446590Y750600D02*
X3444870D01*
G01X3441410D02*
X3444870D01*
G01X3311520D02*
X3343270D01*
G01X3444870Y801400D02*
X3441410D01*
G01X3444870D02*
X3446590D01*
G01X3311520D02*
X3343270D01*
G01X3437640Y506970D02*
G02X3416410Y519220I-5475J15033D01*
G01Y524780D02*
G02X3437640Y537040I15759J-2778D01*
G01X3416380Y519220D02*
X3416410D01*
G01Y524780D02*
X3416380D01*
G01X3404230Y526930D02*
X3416380Y524780D01*
G01X3404230Y517070D02*
X3416380Y519220D01*
G01X3437640Y506970D02*
X3437650Y506940D01*
G01X3442160Y494550D02*
X3437650Y506940D01*
G01X3442160Y549450D02*
X3437650Y537060D01*
G01D02*
X3437640Y537030D01*
G01X3423650Y494060D02*
G02X3404220Y513480I8511J27946D01*
G01X3460110D02*
G02X3440680Y494060I-27938J8523D01*
G01Y549940D02*
G02X3460110Y530520I-8508J-27943D01*
G01X3404220D02*
G02X3423650Y549940I27941J-8526D01*
G01X3450940Y499620D02*
X3442070Y510200D01*
G01X3450940Y544380D02*
X3442070Y533800D01*
G01X3416980Y527040D02*
G02Y516960I-3861J-5040D01*
G01X3343270Y515650D02*
X3311520D01*
G01D02*
G02X3311510Y528350I0J6350D01*
G01X3311520D02*
X3343270D01*
G01X3311520Y496600D02*
G02X3311510Y547400I0J25400D01*
G01X3444870Y506870D02*
Y496600D01*
G01Y530630D02*
Y513380D01*
G01Y547400D02*
Y537140D01*
G01X3446590Y496600D02*
X3444870D01*
G01X3441410D02*
X3444870D01*
G01X3311520D02*
X3343270D01*
G01X3444870Y547400D02*
X3441410D01*
G01X3444870D02*
X3446590D01*
G01X3311520D02*
X3343270D01*
G01X3553690Y791040D02*
G02X3574920Y778780I5472J-15035D01*
G01Y773220D02*
G02X3553690Y760970I-15754J2781D01*
G01Y791030D02*
X3553680Y791060D01*
G01X3549170Y803450D02*
X3553680Y791060D01*
G01X3549170Y748550D02*
X3553680Y760940D01*
G01D02*
X3553690Y760970D01*
G01X3531220Y784520D02*
G02X3550650Y803940I27941J-8526D01*
G01Y748060D02*
G02X3531220Y767480I8511J27946D01*
G01X3540390Y798380D02*
X3549260Y787800D01*
G01X3540390Y753620D02*
X3549260Y764200D01*
G01X3546470Y791140D02*
Y801400D01*
G01Y767370D02*
Y784630D01*
G01Y750600D02*
Y760870D01*
G01X3544740Y801400D02*
X3546470D01*
G01X3549920D02*
X3546470D01*
G01Y750600D02*
X3549920D01*
G01X3546470D02*
X3544740D01*
G01X3404230Y1002060D02*
Y1057940D01*
G01X3460110Y1002060D02*
X3404230D01*
G01X3381370Y979200D02*
X3404230Y1002060D01*
G01X3460110Y1129060D02*
X3404230D01*
G01X3381370Y1106200D02*
X3404230Y1129060D01*
G01D02*
Y1184940D01*
G01X3587110D02*
X3531230D01*
G01X3587110Y930940D02*
X3531230D01*
G01X3381370Y1207800D02*
X3404230Y1184940D01*
G01D02*
X3460110D01*
G01X3587110Y1057940D02*
X3531230D01*
G01Y875060D02*
X3587110D01*
G01X3460110D02*
X3404230D01*
G01Y930940D02*
X3460110D01*
G01D02*
Y875060D01*
G01D02*
X3482970Y852200D01*
G01X3460110Y930940D02*
X3482970Y953800D01*
G01X3531230Y875060D02*
X3508370Y852200D01*
G01X3531230Y930940D02*
Y875060D01*
G01Y930940D02*
X3508370Y953800D01*
G01X3531230Y1057940D02*
Y1002060D01*
G01Y1057940D02*
X3508370Y1080800D01*
G01X3381370D02*
X3404230Y1057940D01*
G01D02*
X3460110D01*
G01X3381370Y852200D02*
X3404230Y875060D01*
G01D02*
Y930940D01*
G01X3381370Y953800D02*
X3404230Y930940D01*
G01X3460110Y1184940D02*
Y1129060D01*
G01D02*
X3482970Y1106200D01*
G01X3460110Y1184940D02*
X3482970Y1207800D01*
G01X3460110Y1057940D02*
Y1002060D01*
G01D02*
X3482970Y979200D01*
G01X3460110Y1057940D02*
X3482970Y1080800D01*
G01X3531230Y1002060D02*
X3587110D01*
G01X3531230D02*
X3508370Y979200D01*
G01X3531230Y1184940D02*
Y1129060D01*
G01Y1184940D02*
X3508370Y1207800D01*
G01X3531230Y1129060D02*
X3587110D01*
G01X3531230D02*
X3508370Y1106200D01*
G01Y826800D02*
X3609970D01*
G01Y852200D02*
X3508370D01*
G01D02*
Y953800D01*
G01D02*
X3609970D01*
G01Y979200D02*
X3508370D01*
G01D02*
Y1080800D01*
G01D02*
X3609970D01*
G01Y1106200D02*
X3508370D01*
G01D02*
Y1207800D01*
G01X3482970Y826800D02*
X3381370D01*
G01X3482970Y953800D02*
X3381370D01*
G01X3482970Y852200D02*
Y953800D01*
G01X3381370Y852200D02*
X3482970D01*
G01X3381370Y953800D02*
Y852200D01*
G01X3482970Y1080800D02*
X3381370D01*
G01X3482970Y979200D02*
Y1080800D01*
G01X3381370Y979200D02*
X3482970D01*
G01X3381370Y1080800D02*
Y979200D01*
G01X3482970Y1106200D02*
Y1207800D01*
G01X3381370Y1106200D02*
X3482970D01*
G01X3381370Y1207800D02*
Y1106200D01*
G01X3553690Y1045040D02*
G02X3574920Y1032780I5472J-15035D01*
G01Y1027220D02*
G02X3553690Y1014970I-15754J2781D01*
G01Y1045030D02*
X3553680Y1045060D01*
G01X3549170Y1057450D02*
X3553680Y1045060D01*
G01X3549170Y1002550D02*
X3553680Y1014940D01*
G01D02*
X3553690Y1014970D01*
G01X3531220Y1038520D02*
G02X3550650Y1057940I27941J-8526D01*
G01Y1002060D02*
G02X3531220Y1021480I8511J27946D01*
G01X3540390Y1052380D02*
X3549260Y1041800D01*
G01X3540390Y1007620D02*
X3549260Y1018200D01*
G01X3546470Y1045140D02*
Y1055400D01*
G01Y1021370D02*
Y1038630D01*
G01Y1004600D02*
Y1014870D01*
G01X3544740Y1055400D02*
X3546470D01*
G01X3549920D02*
X3546470D01*
G01Y1004600D02*
X3549920D01*
G01X3546470D02*
X3544740D01*
G01X3437640Y1014970D02*
G02X3416410Y1027220I-5475J15033D01*
G01Y1032780D02*
G02X3437640Y1045040I15759J-2778D01*
G01X3416380Y1027220D02*
X3416410D01*
G01Y1032780D02*
X3416380D01*
G01X3404230Y1034930D02*
X3416380Y1032780D01*
G01X3404230Y1025070D02*
X3416380Y1027220D01*
G01X3437640Y1014970D02*
X3437650Y1014940D01*
G01X3442160Y1002550D02*
X3437650Y1014940D01*
G01X3442160Y1057450D02*
X3437650Y1045060D01*
G01D02*
X3437640Y1045030D01*
G01X3423650Y1002060D02*
G02X3404220Y1021480I8511J27946D01*
G01X3460110D02*
G02X3440680Y1002060I-27938J8523D01*
G01Y1057940D02*
G02X3460110Y1038520I-8508J-27943D01*
G01X3404220D02*
G02X3423650Y1057940I27941J-8526D01*
G01X3450940Y1007620D02*
X3442070Y1018200D01*
G01X3450940Y1052380D02*
X3442070Y1041800D01*
G01X3416980Y1035040D02*
G02Y1024960I-3861J-5040D01*
G01X3343270Y1023650D02*
X3311520D01*
G01D02*
G02X3311510Y1036350I0J6350D01*
G01X3311520D02*
X3343270D01*
G01X3311520Y1004600D02*
G02X3311510Y1055400I0J25400D01*
G01X3444870Y1014870D02*
Y1004600D01*
G01Y1038630D02*
Y1021380D01*
G01Y1055400D02*
Y1045140D01*
G01X3446590Y1004600D02*
X3444870D01*
G01X3441410D02*
X3444870D01*
G01X3311520D02*
X3343270D01*
G01X3444870Y1055400D02*
X3441410D01*
G01X3444870D02*
X3446590D01*
G01X3311520D02*
X3343270D01*
G01X3553690Y1172040D02*
G02X3574920Y1159780I5472J-15035D01*
G01Y1154220D02*
G02X3553690Y1141970I-15754J2781D01*
G01Y1172030D02*
X3553680Y1172060D01*
G01X3549170Y1184450D02*
X3553680Y1172060D01*
G01X3549170Y1129550D02*
X3553680Y1141940D01*
G01D02*
X3553690Y1141970D01*
G01X3531220Y1165520D02*
G02X3550650Y1184940I27941J-8526D01*
G01Y1129060D02*
G02X3531220Y1148480I8511J27946D01*
G01X3540390Y1179380D02*
X3549260Y1168800D01*
G01X3540390Y1134620D02*
X3549260Y1145200D01*
G01X3546470Y1172140D02*
Y1182400D01*
G01Y1148370D02*
Y1165630D01*
G01Y1131600D02*
Y1141870D01*
G01X3544740Y1182400D02*
X3546470D01*
G01X3549920D02*
X3546470D01*
G01Y1131600D02*
X3549920D01*
G01X3546470D02*
X3544740D01*
G01X3553690Y918040D02*
G02X3574920Y905780I5472J-15035D01*
G01Y900220D02*
G02X3553690Y887970I-15754J2781D01*
G01Y918030D02*
X3553680Y918060D01*
G01X3549170Y930450D02*
X3553680Y918060D01*
G01X3549170Y875550D02*
X3553680Y887940D01*
G01D02*
X3553690Y887970D01*
G01X3531220Y911520D02*
G02X3550650Y930940I27941J-8526D01*
G01Y875060D02*
G02X3531220Y894480I8511J27946D01*
G01X3540390Y925380D02*
X3549260Y914800D01*
G01X3540390Y880620D02*
X3549260Y891200D01*
G01X3546470Y918140D02*
Y928400D01*
G01Y894370D02*
Y911630D01*
G01Y877600D02*
Y887870D01*
G01X3544740Y928400D02*
X3546470D01*
G01X3549920D02*
X3546470D01*
G01Y877600D02*
X3549920D01*
G01X3546470D02*
X3544740D01*
G01X3437640Y1141970D02*
G02X3416410Y1154220I-5475J15033D01*
G01Y1159780D02*
G02X3437640Y1172040I15759J-2778D01*
G01X3416380Y1154220D02*
X3416410D01*
G01Y1159780D02*
X3416380D01*
G01X3404230Y1161930D02*
X3416380Y1159780D01*
G01X3404230Y1152070D02*
X3416380Y1154220D01*
G01X3437640Y1141970D02*
X3437650Y1141940D01*
G01X3442160Y1129550D02*
X3437650Y1141940D01*
G01X3442160Y1184450D02*
X3437650Y1172060D01*
G01D02*
X3437640Y1172030D01*
G01X3423650Y1129060D02*
G02X3404220Y1148480I8511J27946D01*
G01X3460110D02*
G02X3440680Y1129060I-27938J8523D01*
G01Y1184940D02*
G02X3460110Y1165520I-8508J-27943D01*
G01X3404220D02*
G02X3423650Y1184940I27941J-8526D01*
G01X3450940Y1134620D02*
X3442070Y1145200D01*
G01X3450940Y1179380D02*
X3442070Y1168800D01*
G01X3416980Y1162040D02*
G02Y1151960I-3861J-5040D01*
G01X3343270Y1150650D02*
X3311520D01*
G01D02*
G02X3311510Y1163350I0J6350D01*
G01X3311520D02*
X3343270D01*
G01X3311520Y1131600D02*
G02X3311510Y1182400I0J25400D01*
G01X3444870Y1141870D02*
Y1131600D01*
G01Y1165630D02*
Y1148380D01*
G01Y1182400D02*
Y1172140D01*
G01X3446590Y1131600D02*
X3444870D01*
G01X3441410D02*
X3444870D01*
G01X3311520D02*
X3343270D01*
G01X3444870Y1182400D02*
X3441410D01*
G01X3444870D02*
X3446590D01*
G01X3311520D02*
X3343270D01*
G01X3437640Y887970D02*
G02X3416410Y900220I-5475J15033D01*
G01Y905780D02*
G02X3437640Y918040I15759J-2778D01*
G01X3416380Y900220D02*
X3416410D01*
G01Y905780D02*
X3416380D01*
G01X3404230Y907930D02*
X3416380Y905780D01*
G01X3404230Y898070D02*
X3416380Y900220D01*
G01X3437640Y887970D02*
X3437650Y887940D01*
G01X3442160Y875550D02*
X3437650Y887940D01*
G01X3442160Y930450D02*
X3437650Y918060D01*
G01D02*
X3437640Y918030D01*
G01X3423650Y875060D02*
G02X3404220Y894480I8511J27946D01*
G01X3460110D02*
G02X3440680Y875060I-27938J8523D01*
G01Y930940D02*
G02X3460110Y911520I-8508J-27943D01*
G01X3404220D02*
G02X3423650Y930940I27941J-8526D01*
G01X3450940Y880620D02*
X3442070Y891200D01*
G01X3450940Y925380D02*
X3442070Y914800D01*
G01X3416980Y908040D02*
G02Y897960I-3861J-5040D01*
G01X3343270Y896650D02*
X3311520D01*
G01D02*
G02X3311510Y909350I0J6350D01*
G01X3311520D02*
X3343270D01*
G01X3311520Y877600D02*
G02X3311510Y928400I0J25400D01*
G01X3444870Y887870D02*
Y877600D01*
G01Y911630D02*
Y894380D01*
G01Y928400D02*
Y918140D01*
G01X3446590Y877600D02*
X3444870D01*
G01X3441410D02*
X3444870D01*
G01X3311520D02*
X3343270D01*
G01X3444870Y928400D02*
X3441410D01*
G01X3444870D02*
X3446590D01*
G01X3311520D02*
X3343270D01*
G01X3531230Y1510060D02*
X3587110D01*
G01X3460110Y1565940D02*
Y1510060D01*
G01Y1256060D02*
X3404230D01*
G01X3460110Y1311940D02*
Y1256060D01*
G01D02*
X3482970Y1233200D01*
G01X3381370D02*
X3404230Y1256060D01*
G01D02*
Y1311940D01*
G01Y1510060D02*
Y1565940D01*
G01X3460110Y1510060D02*
X3482970Y1487200D01*
G01X3460110Y1510060D02*
X3404230D01*
G01X3381370Y1487200D02*
X3404230Y1510060D01*
G01X3381370Y1588800D02*
X3404230Y1565940D01*
G01D02*
X3460110D01*
G01D02*
X3482970Y1588800D01*
G01X3531230Y1510060D02*
X3508370Y1487200D01*
G01X3531230Y1565940D02*
Y1510060D01*
G01X3381370Y1334800D02*
X3404230Y1311940D01*
G01D02*
X3460110D01*
G01D02*
X3482970Y1334800D01*
G01X3531230Y1256060D02*
X3587110D01*
G01X3531230D02*
X3508370Y1233200D01*
G01X3531230Y1311940D02*
Y1256060D01*
G01X3587110Y1565940D02*
X3531230D01*
G01D02*
X3508370Y1588800D01*
G01X3587110Y1311940D02*
X3531230D01*
G01D02*
X3508370Y1334800D01*
G01X3460110Y1438940D02*
X3482970Y1461800D01*
G01X3460110Y1383060D02*
X3482970Y1360200D01*
G01X3381370D02*
X3404230Y1383060D01*
G01X3381370Y1461800D02*
X3404230Y1438940D01*
G01X3508370Y1207800D02*
X3609970D01*
G01Y1233200D02*
X3508370D01*
G01D02*
Y1334800D01*
G01D02*
X3609970D01*
G01Y1487200D02*
X3508370D01*
G01D02*
Y1588800D01*
G01D02*
X3609970D01*
G01X3482970D02*
X3381370D01*
G01X3482970Y1487200D02*
Y1588800D01*
G01X3381370Y1487200D02*
X3482970D01*
G01X3381370Y1588800D02*
Y1487200D01*
G01X3482970Y1207800D02*
X3381370D01*
G01X3482970Y1334800D02*
X3381370D01*
G01X3482970Y1233200D02*
Y1334800D01*
G01X3381370Y1233200D02*
X3482970D01*
G01X3381370Y1334800D02*
Y1233200D01*
G01X3482970Y1461800D02*
X3381370D01*
G01X3482970Y1360200D02*
Y1461800D01*
G01X3381370Y1360200D02*
X3482970D01*
G01X3381370Y1461800D02*
Y1360200D01*
G01X3279770Y1620550D02*
Y1417350D01*
G01D02*
X3343270D01*
G01X3404230Y1438940D02*
X3460110D01*
G01D02*
Y1383060D01*
G01D02*
X3404230D01*
G01D02*
Y1438940D01*
G01X3609970Y1360200D02*
X3508370D01*
G01Y1461800D02*
X3609970D01*
G01X3508370Y1360200D02*
Y1461800D01*
G01X3531230Y1383060D02*
X3508370Y1360200D01*
G01X3531230Y1438940D02*
X3508370Y1461800D01*
G01X3531230Y1383060D02*
X3587110D01*
G01Y1438940D02*
X3531230D01*
G01D02*
Y1383060D01*
G01X3553690Y1299040D02*
G02X3574920Y1286780I5472J-15035D01*
G01Y1281220D02*
G02X3553690Y1268970I-15754J2781D01*
G01Y1299030D02*
X3553680Y1299060D01*
G01X3549170Y1311450D02*
X3553680Y1299060D01*
G01X3549170Y1256550D02*
X3553680Y1268940D01*
G01D02*
X3553690Y1268970D01*
G01X3531220Y1292520D02*
G02X3550650Y1311940I27941J-8526D01*
G01Y1256060D02*
G02X3531220Y1275480I8511J27946D01*
G01X3540390Y1306380D02*
X3549260Y1295800D01*
G01X3540390Y1261620D02*
X3549260Y1272200D01*
G01X3546470Y1299140D02*
Y1309400D01*
G01Y1275370D02*
Y1292630D01*
G01Y1258600D02*
Y1268870D01*
G01X3544740Y1309400D02*
X3546470D01*
G01X3549920D02*
X3546470D01*
G01Y1258600D02*
X3549920D01*
G01X3546470D02*
X3544740D01*
G01X3553690Y1426040D02*
G02X3574920Y1413780I5472J-15035D01*
G01Y1408220D02*
G02X3553690Y1395970I-15754J2781D01*
G01Y1426030D02*
X3553680Y1426060D01*
G01X3549170Y1438450D02*
X3553680Y1426060D01*
G01X3549170Y1383550D02*
X3553680Y1395940D01*
G01D02*
X3553690Y1395970D01*
G01X3531220Y1419520D02*
G02X3550650Y1438940I27941J-8526D01*
G01Y1383060D02*
G02X3531220Y1402480I8511J27946D01*
G01X3540390Y1433380D02*
X3549260Y1422800D01*
G01X3540390Y1388620D02*
X3549260Y1399200D01*
G01X3546470Y1426140D02*
Y1436400D01*
G01Y1402370D02*
Y1419630D01*
G01Y1385600D02*
Y1395870D01*
G01X3544740Y1436400D02*
X3546470D01*
G01X3549920D02*
X3546470D01*
G01Y1385600D02*
X3549920D01*
G01X3546470D02*
X3544740D01*
G01X3553690Y1553040D02*
G02X3574920Y1540780I5472J-15035D01*
G01Y1535220D02*
G02X3553690Y1522970I-15754J2781D01*
G01Y1553030D02*
X3553680Y1553060D01*
G01X3549170Y1565450D02*
X3553680Y1553060D01*
G01X3549170Y1510550D02*
X3553680Y1522940D01*
G01D02*
X3553690Y1522970D01*
G01X3531220Y1546520D02*
G02X3550650Y1565940I27941J-8526D01*
G01Y1510060D02*
G02X3531220Y1529480I8511J27946D01*
G01X3540390Y1560380D02*
X3549260Y1549800D01*
G01X3540390Y1515620D02*
X3549260Y1526200D01*
G01X3546470Y1553140D02*
Y1563400D01*
G01Y1529370D02*
Y1546630D01*
G01Y1512600D02*
Y1522870D01*
G01X3544740Y1563400D02*
X3546470D01*
G01X3549920D02*
X3546470D01*
G01Y1512600D02*
X3549920D01*
G01X3546470D02*
X3544740D01*
G01X3437640Y1522970D02*
G02X3416410Y1535220I-5475J15033D01*
G01Y1540780D02*
G02X3437640Y1553040I15759J-2778D01*
G01X3416380Y1535220D02*
X3416410D01*
G01Y1540780D02*
X3416380D01*
G01X3404230Y1542930D02*
X3416380Y1540780D01*
G01X3404230Y1533070D02*
X3416380Y1535220D01*
G01X3437640Y1522970D02*
X3437650Y1522940D01*
G01X3442160Y1510550D02*
X3437650Y1522940D01*
G01X3442160Y1565450D02*
X3437650Y1553060D01*
G01D02*
X3437640Y1553030D01*
G01X3423650Y1510060D02*
G02X3404220Y1529480I8511J27946D01*
G01X3460110D02*
G02X3440680Y1510060I-27938J8523D01*
G01Y1565940D02*
G02X3460110Y1546520I-8508J-27943D01*
G01X3404220D02*
G02X3423650Y1565940I27941J-8526D01*
G01X3450940Y1515620D02*
X3442070Y1526200D01*
G01X3450940Y1560380D02*
X3442070Y1549800D01*
G01X3416980Y1543040D02*
G02Y1532960I-3861J-5040D01*
G01X3444870Y1522870D02*
Y1512600D01*
G01Y1546630D02*
Y1529380D01*
G01Y1563400D02*
Y1553140D01*
G01X3446590Y1512600D02*
X3444870D01*
G01X3441410D02*
X3444870D01*
G01Y1563400D02*
X3441410D01*
G01X3444870D02*
X3446590D01*
G01X3437640Y1268970D02*
G02X3416410Y1281220I-5475J15033D01*
G01Y1286780D02*
G02X3437640Y1299040I15759J-2778D01*
G01X3416380Y1281220D02*
X3416410D01*
G01Y1286780D02*
X3416380D01*
G01X3404230Y1288930D02*
X3416380Y1286780D01*
G01X3404230Y1279070D02*
X3416380Y1281220D01*
G01X3437640Y1268970D02*
X3437650Y1268940D01*
G01X3442160Y1256550D02*
X3437650Y1268940D01*
G01X3442160Y1311450D02*
X3437650Y1299060D01*
G01D02*
X3437640Y1299030D01*
G01X3423650Y1256060D02*
G02X3404220Y1275480I8511J27946D01*
G01X3460110D02*
G02X3440680Y1256060I-27938J8523D01*
G01Y1311940D02*
G02X3460110Y1292520I-8508J-27943D01*
G01X3404220D02*
G02X3423650Y1311940I27941J-8526D01*
G01X3450940Y1261620D02*
X3442070Y1272200D01*
G01X3450940Y1306380D02*
X3442070Y1295800D01*
G01X3416980Y1289040D02*
G02Y1278960I-3861J-5040D01*
G01X3343270Y1277650D02*
X3311520D01*
G01D02*
G02X3311510Y1290350I0J6350D01*
G01X3311520D02*
X3343270D01*
G01X3311520Y1258600D02*
G02X3311510Y1309400I0J25400D01*
G01X3444870Y1268870D02*
Y1258600D01*
G01Y1292630D02*
Y1275380D01*
G01Y1309400D02*
Y1299140D01*
G01X3446590Y1258600D02*
X3444870D01*
G01X3441410D02*
X3444870D01*
G01X3311520D02*
X3343270D01*
G01X3444870Y1309400D02*
X3441410D01*
G01X3444870D02*
X3446590D01*
G01X3311520D02*
X3343270D01*
G01X3437640Y1395970D02*
G02X3416410Y1408220I-5475J15033D01*
G01Y1413780D02*
G02X3437640Y1426040I15759J-2778D01*
G01X3416380Y1408220D02*
X3416410D01*
G01Y1413780D02*
X3416380D01*
G01X3404230Y1415930D02*
X3416380Y1413780D01*
G01X3404230Y1406070D02*
X3416380Y1408220D01*
G01X3437640Y1395970D02*
X3437650Y1395940D01*
G01X3442160Y1383550D02*
X3437650Y1395940D01*
G01X3442160Y1438450D02*
X3437650Y1426060D01*
G01D02*
X3437640Y1426030D01*
G01X3423650Y1383060D02*
G02X3404220Y1402480I8511J27946D01*
G01X3460110D02*
G02X3440680Y1383060I-27938J8523D01*
G01Y1438940D02*
G02X3460110Y1419520I-8508J-27943D01*
G01X3404220D02*
G02X3423650Y1438940I27941J-8526D01*
G01X3450940Y1388620D02*
X3442070Y1399200D01*
G01X3450940Y1433380D02*
X3442070Y1422800D01*
G01X3416980Y1416040D02*
G02Y1405960I-3861J-5040D01*
G01X3343270Y1404650D02*
X3311520D01*
G01D02*
G02X3311510Y1417350I0J6350D01*
G01X3311520Y1385600D02*
G02X3286920Y1417350I0J25405D01*
G01X3444870Y1395870D02*
Y1385600D01*
G01Y1419630D02*
Y1402380D01*
G01Y1436400D02*
Y1426140D01*
G01X3446590Y1385600D02*
X3444870D01*
G01X3441410D02*
X3444870D01*
G01X3311520D02*
X3343270D01*
G01X3444870Y1436400D02*
X3441410D01*
G01X3444870D02*
X3446590D01*
G01X3559170Y1760250D02*
X3432170D01*
G01X3559170D02*
Y1620550D01*
G01X3432170D02*
Y1760250D01*
G01X3279770Y1620550D02*
X3648070D01*
G01X3370250Y5145250D02*
G02X3360000Y5170000I24756J24750D01*
G01Y5405500D01*
X3230250Y5535250D01*
G02X3279750Y5584750I24750J24750D01*
G01X3419750Y5444750D01*
G02X3430000Y5420000I-24756J-24750D01*
G01Y5184500D01*
X3559750Y5054750D01*
G02X3510250Y5005250I-24750J-24750D01*
G01X3430000Y5085500D01*
X3370250Y5145250D01*
G01X3650250D02*
G02X3640000Y5170000I24756J24750D01*
G01Y5405500D01*
X3510250Y5535250D01*
G02X3559750Y5584750I24750J24750D01*
G01X3699750Y5444750D01*
G02X3710000Y5420000I-24756J-24750D01*
G01Y5184500D01*
X3839750Y5054750D01*
G02X3790250Y5005250I-24750J-24750D01*
G01X3710000Y5085500D01*
X3650250Y5145250D01*
G01X3587110Y367060D02*
Y422940D01*
G01X3609970Y344200D02*
X3587110Y367060D01*
G01X3609970Y445800D02*
Y344200D01*
G01X3648070Y1620550D02*
Y312450D01*
G01X3574950Y397780D02*
X3574920D01*
G01Y392220D02*
X3574950D01*
G01X3587110Y390070D02*
X3574950Y392220D01*
G01X3587110Y399930D02*
X3574950Y397780D01*
G01X3567680Y422940D02*
G02X3587110Y403520I-8508J-27943D01*
G01Y386480D02*
G02X3567680Y367060I-27938J8523D01*
G01X3574350Y389960D02*
G02Y400040I3868J5040D01*
G01X3648070Y401350D02*
X3679820D01*
G01X3679810D02*
G02X3679820Y388650I10J-6350D01*
G01D02*
X3648070D01*
G01X3679810Y420400D02*
G02X3679820Y369600I10J-25400D01*
G01D02*
X3648070D01*
G01X3891600Y191800D02*
G03I-140000J0D01*
G01X3587110Y748060D02*
Y803940D01*
G01Y621060D02*
Y676940D01*
G01X3609970Y826800D02*
X3587110Y803940D01*
G01Y494060D02*
Y549940D01*
G01X3609970Y471200D02*
X3587110Y494060D01*
G01X3609970Y572800D02*
X3587110Y549940D01*
G01X3609970Y725200D02*
X3587110Y748060D01*
G01X3609970Y699800D02*
X3587110Y676940D01*
G01X3609970Y598200D02*
X3587110Y621060D01*
G01X3609970Y445800D02*
X3587110Y422940D01*
G01X3609970Y572800D02*
Y471200D01*
G01Y699800D02*
Y598200D01*
G01Y826800D02*
Y725200D01*
G01X3574950Y651780D02*
X3574920D01*
G01Y646220D02*
X3574950D01*
G01X3587110Y644070D02*
X3574950Y646220D01*
G01X3587110Y653930D02*
X3574950Y651780D01*
G01X3567680Y676940D02*
G02X3587110Y657520I-8508J-27943D01*
G01Y640480D02*
G02X3567680Y621060I-27938J8523D01*
G01X3574350Y643960D02*
G02Y654040I3868J5040D01*
G01X3648070Y655350D02*
X3679820D01*
G01X3679810D02*
G02X3679820Y642650I10J-6350D01*
G01D02*
X3648070D01*
G01X3679810Y674400D02*
G02X3679820Y623600I10J-25400D01*
G01Y674400D02*
X3648070D01*
G01X3679820Y623600D02*
X3648070D01*
G01X3679820Y420400D02*
X3648070D01*
G01X3574950Y524780D02*
X3574920D01*
G01Y519220D02*
X3574950D01*
G01X3587110Y517070D02*
X3574950Y519220D01*
G01X3587110Y526930D02*
X3574950Y524780D01*
G01X3567680Y549940D02*
G02X3587110Y530520I-8508J-27943D01*
G01Y513480D02*
G02X3567680Y494060I-27938J8523D01*
G01X3574350Y516960D02*
G02Y527040I3868J5040D01*
G01X3648070Y528350D02*
X3679820D01*
G01X3679810D02*
G02X3679820Y515650I10J-6350D01*
G01D02*
X3648070D01*
G01X3679810Y547400D02*
G02X3679820Y496600I10J-25400D01*
G01Y547400D02*
X3648070D01*
G01X3679820Y496600D02*
X3648070D01*
G01X3574950Y778780D02*
X3574920D01*
G01Y773220D02*
X3574950D01*
G01X3587110Y771070D02*
X3574950Y773220D01*
G01X3587110Y780930D02*
X3574950Y778780D01*
G01X3567680Y803940D02*
G02X3587110Y784520I-8508J-27943D01*
G01Y767480D02*
G02X3567680Y748060I-27938J8523D01*
G01X3574350Y770960D02*
G02Y781040I3868J5040D01*
G01X3648070Y782350D02*
X3679820D01*
G01X3679810D02*
G02X3679820Y769650I10J-6350D01*
G01D02*
X3648070D01*
G01X3679810Y801400D02*
G02X3679820Y750600I10J-25400D01*
G01Y801400D02*
X3648070D01*
G01X3679820Y750600D02*
X3648070D01*
G01X3587110Y1129060D02*
Y1184940D01*
G01X3609970Y1207800D02*
X3587110Y1184940D01*
G01Y875060D02*
Y930940D01*
G01X3609970Y852200D02*
X3587110Y875060D01*
G01X3609970Y953800D02*
X3587110Y930940D01*
G01Y1002060D02*
Y1057940D01*
G01X3609970Y1080800D02*
X3587110Y1057940D01*
G01X3609970Y979200D02*
X3587110Y1002060D01*
G01X3609970Y1106200D02*
X3587110Y1129060D01*
G01X3609970Y953800D02*
Y852200D01*
G01Y1080800D02*
Y979200D01*
G01Y1207800D02*
Y1106200D01*
G01X3574950Y1032780D02*
X3574920D01*
G01Y1027220D02*
X3574950D01*
G01X3587110Y1025070D02*
X3574950Y1027220D01*
G01X3587110Y1034930D02*
X3574950Y1032780D01*
G01X3567680Y1057940D02*
G02X3587110Y1038520I-8508J-27943D01*
G01Y1021480D02*
G02X3567680Y1002060I-27938J8523D01*
G01X3574350Y1024960D02*
G02Y1035040I3868J5040D01*
G01X3648070Y1036350D02*
X3679820D01*
G01X3679810D02*
G02X3679820Y1023650I10J-6350D01*
G01D02*
X3648070D01*
G01X3679810Y1055400D02*
G02X3679820Y1004600I10J-25400D01*
G01Y1055400D02*
X3648070D01*
G01X3679820Y1004600D02*
X3648070D01*
G01X3574950Y1159780D02*
X3574920D01*
G01Y1154220D02*
X3574950D01*
G01X3587110Y1152070D02*
X3574950Y1154220D01*
G01X3587110Y1161930D02*
X3574950Y1159780D01*
G01X3567680Y1184940D02*
G02X3587110Y1165520I-8508J-27943D01*
G01Y1148480D02*
G02X3567680Y1129060I-27938J8523D01*
G01X3574350Y1151960D02*
G02Y1162040I3868J5040D01*
G01X3648070Y1163350D02*
X3679820D01*
G01X3679810D02*
G02X3679820Y1150650I10J-6350D01*
G01D02*
X3648070D01*
G01X3679810Y1182400D02*
G02X3679820Y1131600I10J-25400D01*
G01Y1182400D02*
X3648070D01*
G01X3679820Y1131600D02*
X3648070D01*
G01X3574950Y905780D02*
X3574920D01*
G01Y900220D02*
X3574950D01*
G01X3587110Y898070D02*
X3574950Y900220D01*
G01X3587110Y907930D02*
X3574950Y905780D01*
G01X3567680Y930940D02*
G02X3587110Y911520I-8508J-27943D01*
G01Y894480D02*
G02X3567680Y875060I-27938J8523D01*
G01X3574350Y897960D02*
G02Y908040I3868J5040D01*
G01X3648070Y909350D02*
X3679820D01*
G01X3679810D02*
G02X3679820Y896650I10J-6350D01*
G01D02*
X3648070D01*
G01X3679810Y928400D02*
G02X3679820Y877600I10J-25400D01*
G01Y928400D02*
X3648070D01*
G01X3679820Y877600D02*
X3648070D01*
G01X3587110Y1510060D02*
Y1565940D01*
G01X3609970Y1487200D02*
X3587110Y1510060D01*
G01X3609970Y1588800D02*
X3587110Y1565940D01*
G01Y1256060D02*
Y1311940D01*
G01X3609970Y1233200D02*
X3587110Y1256060D01*
G01X3609970Y1334800D02*
X3587110Y1311940D01*
G01X3609970Y1334800D02*
Y1233200D01*
G01Y1588800D02*
Y1487200D01*
G01Y1461800D02*
Y1360200D01*
G01D02*
X3587110Y1383060D01*
G01X3609970Y1461800D02*
X3587110Y1438940D01*
G01Y1383060D02*
Y1438940D01*
G01X3574950Y1286780D02*
X3574920D01*
G01Y1281220D02*
X3574950D01*
G01X3587110Y1279070D02*
X3574950Y1281220D01*
G01X3587110Y1288930D02*
X3574950Y1286780D01*
G01X3567680Y1311940D02*
G02X3587110Y1292520I-8508J-27943D01*
G01Y1275480D02*
G02X3567680Y1256060I-27938J8523D01*
G01X3574350Y1278960D02*
G02Y1289040I3868J5040D01*
G01X3648070Y1290350D02*
X3679820D01*
G01X3679810D02*
G02X3679820Y1277650I10J-6350D01*
G01D02*
X3648070D01*
G01X3679810Y1309400D02*
G02X3679820Y1258600I10J-25400D01*
G01Y1309400D02*
X3648070D01*
G01X3679820Y1258600D02*
X3648070D01*
G01X3574950Y1413780D02*
X3574920D01*
G01Y1408220D02*
X3574950D01*
G01X3587110Y1406070D02*
X3574950Y1408220D01*
G01X3587110Y1415930D02*
X3574950Y1413780D01*
G01X3567680Y1438940D02*
G02X3587110Y1419520I-8508J-27943D01*
G01Y1402480D02*
G02X3567680Y1383060I-27938J8523D01*
G01X3574350Y1405960D02*
G02Y1416040I3868J5040D01*
G01X3648070Y1417350D02*
X3679820D01*
G01X3679810D02*
G02X3679820Y1404650I10J-6350D01*
G01D02*
X3648070D01*
G01X3679810Y1436400D02*
G02X3679820Y1385600I10J-25400D01*
G01Y1436400D02*
X3648070D01*
G01X3679820Y1385600D02*
X3648070D01*
G01X3574950Y1540780D02*
X3574920D01*
G01Y1535220D02*
X3574950D01*
G01X3587110Y1533070D02*
X3574950Y1535220D01*
G01X3587110Y1542930D02*
X3574950Y1540780D01*
G01X3567680Y1565940D02*
G02X3587110Y1546520I-8508J-27943D01*
G01Y1529480D02*
G02X3567680Y1510060I-27938J8523D01*
G01X3574350Y1532960D02*
G02Y1543040I3868J5040D01*
G01X3648070Y1544350D02*
X3679820D01*
G01X3679810D02*
G02X3679820Y1531650I10J-6350D01*
G01D02*
X3648070D01*
G01X3679810Y1563400D02*
G02X3679820Y1512600I10J-25400D01*
G01Y1563400D02*
X3648070D01*
G01X3679820Y1512600D02*
X3648070D01*
G01X3842500Y3291000D02*
G03I-140000J0D01*
M02*
