G04 ================== begin FILE IDENTIFICATION RECORD ==================*
G04 Layout Name:  CC120xEM_420_470.brd*
G04 Film Name:    Layer2*
G04 File Format:  Gerber RS274X*
G04 File Origin:  Cadence Allegro 16.5-S017*
G04 Origin Date:  Fri Jan 25 12:45:29 2013*
G04 *
G04 Layer:  VIA CLASS/L2*
G04 Layer:  PIN/L2*
G04 Layer:  ETCH/L2*
G04 *
G04 Offset:    (0.0000 0.0000)*
G04 Mirror:    No*
G04 Mode:      Positive*
G04 Rotation:  0*
G04 FullContactRelief:  No*
G04 UndefLineWidth:     0.0100*
G04 ================== end FILE IDENTIFICATION RECORD ====================*
%FSLAX25Y25*MOMM*%
%IR0*IPPOS*OFA0.00000B0.00000*MIA0B0*SFA1.00000B1.00000*%
%ADD10C,.1001*%
%ADD11C,.5*%
%ADD12C,.8*%
%ADD13C,1.9*%
%ADD14C,.2*%
%ADD15C,1.2004*%
%ADD17C,2.1544*%
%ADD16C,1.907*%
G75*
%LPD*%
G75*
G36*
G01X3932990Y12010D02*
X7010D01*
Y3660000D01*
X3932990D01*
Y12010D01*
G37*
%LPC*%
G75*
G36*
G01X765560Y449310D02*
G02X714440I-25560J-54310D01*
G03Y467690I-4322J9190D01*
G02X714020Y576110I25557J54310D01*
G03X713880Y594490I-4398J9157D01*
G02X764980Y594890I25125J54509D01*
G03X765120Y576510I4398J-9157D01*
G02X765560Y467690I-25119J-54512D01*
G03Y449310I4322J-9190D01*
G37*
G36*
G01X1863010Y474180D02*
G02X1792990Y415820I-10007J-59179D01*
G02X1743160Y470350I10010J59180D01*
G03X1726800Y477590I-10130J-787D01*
G02X1749840Y529650I-36799J47414D01*
G03X1766200Y522410I10130J787D01*
G02X1863010Y474180I36798J-47413D01*
G37*
G36*
G01X1955750Y743220D02*
G02X1905460Y728260I-9753J-59221D01*
G03X1900250Y745780I-6861J7494D01*
G02X1950540Y760740I9753J59221D01*
G03X1955750Y743220I6861J-7494D01*
G37*
G36*
G01X2179750Y745660D02*
G02X2145770Y794210I-59753J-5655D01*
G03X2160250Y804340I4366J9173D01*
G02X2194230Y755790I59753J5655D01*
G03X2179750Y745660I-4366J-9173D01*
G37*
G36*
G01X1320200Y164960D02*
G03X1301800I-9200J-4301D01*
G02Y275040I-117800J55040D01*
G03X1320200I9200J4301D01*
G02X1555800I117800J-55040D01*
G03X1574200I9200J4301D01*
G02X1809800I117800J-55040D01*
G03X1828200I9200J4301D01*
G02X2063800I117800J-55040D01*
G03X2082200I9200J4301D01*
G02X2317800I117800J-55040D01*
G03X2336200I9200J4301D01*
G02X2571800I117800J-55040D01*
G03X2590200I9200J4301D01*
G02Y164960I117800J-55040D01*
G03X2571800I-9200J-4301D01*
G02X2336200I-117800J55040D01*
G03X2317800I-9200J-4301D01*
G02X2082200I-117800J55040D01*
G03X2063800I-9200J-4301D01*
G02X1828200I-117800J55040D01*
G03X1809800I-9200J-4301D01*
G02X1574200I-117800J55040D01*
G03X1555800I-9200J-4301D01*
G02X1320200I-117800J55040D01*
G37*
G36*
G01X982960Y547720D02*
G03X967040I-7960J-6311D01*
G02Y622280I-47040J37280D01*
G03X982960I7960J6311D01*
G02X987880Y627760I47038J-37282D01*
G03Y642240I-7126J7240D01*
G02X992720Y732040I42119J42760D01*
G03Y747960I-6311J7960D01*
G02X1067280I37280J47040D01*
G03Y732040I6311J-7960D01*
G02X1072120Y642240I-37279J-47040D01*
G03Y627760I7126J-7240D01*
G02X982960Y547720I-42124J-42756D01*
G37*
G36*
G01X2120730Y1205130D02*
G03X2109870Y1194270I-729J-10131D01*
G02X2054270Y1249870I-59870J-4270D01*
G03X2065130Y1260730I729J10131D01*
G02Y1269270I59870J4270D01*
G03X2054270Y1280130I-10131J729D01*
G02Y1399870I-4270J59870D01*
G03X2065130Y1410730I729J10131D01*
G02Y1419270I59870J4270D01*
G03X2054270Y1430130I-10131J729D01*
G02X2109870Y1485730I-4270J59870D01*
G03X2120730Y1474870I10131J-729D01*
G02X2129270I4270J-59870D01*
G03X2140130Y1485730I729J10131D01*
G02X2259870I59870J4270D01*
G03X2270730Y1474870I10131J-729D01*
G02X2279270I4270J-59870D01*
G03X2290130Y1485730I729J10131D01*
G02X2409870I59870J4270D01*
G03X2420730Y1474870I10131J-729D01*
G02X2429270I4270J-59870D01*
G03X2440130Y1485730I729J10131D01*
G02X2559870I59870J4270D01*
G03X2570730Y1474870I10131J-729D01*
G02Y1355130I4270J-59870D01*
G03X2559870Y1344270I-729J-10131D01*
G02X2440130I-59870J-4270D01*
G03X2429270Y1355130I-10131J729D01*
G02X2420730I-4270J59870D01*
G03X2409870Y1344270I-729J-10131D01*
G02X2345730Y1280130I-59870J-4270D01*
G03X2334870Y1269270I-729J-10131D01*
G02X2270730Y1205130I-59870J-4270D01*
G03X2259870Y1194270I-729J-10131D01*
G02X2140130I-59870J-4270D01*
G03X2129270Y1205130I-10131J729D01*
G02X2120730I-4270J59870D01*
G37*
G36*
G01X2854750Y1595000D02*
G02Y1515000I-44750J-40000D01*
G02X2765250I-44750J-40000D01*
G02Y1595000I44750J40000D01*
G02X2763140Y1672500I44750J39997D01*
G02X2763300Y1747700I46861J37500D01*
G02X2856700I46700J37700D01*
G02X2856860Y1672500I-46701J-37700D01*
G02X2854750Y1595000I-46860J-37503D01*
G37*
G54D15*
X3778000Y522000D03*
X3202000D03*
X3150000Y1030000D03*
X2510000Y2160000D03*
X2730000Y2250000D03*
X2540000Y1770000D03*
X2545000Y1909500D03*
X2455000Y635000D03*
X1635000Y2540000D03*
X1665300Y1620000D03*
X1402500Y2522500D03*
X1310000Y2245000D03*
Y2114500D03*
X1295000Y1984870D03*
X1217500Y2527500D03*
X1200000Y1180000D03*
X1195000Y505000D03*
X795000Y870000D03*
G54D17*
X930000Y220000D03*
G54D16*
X3495670Y1696750D03*
Y236250D03*
X447670Y1696750D03*
Y236250D03*
%LPD*%
G75*
G54D10*
X447670Y236250D03*
Y1696750D03*
X3495670Y236250D03*
Y1696750D03*
G54D11*
X150000Y395000D03*
X162500Y222500D03*
X312500Y122500D03*
X112500Y822500D03*
Y572500D03*
Y1072500D03*
X155000Y1545000D03*
X112500Y1322500D03*
X212500Y1722500D03*
X162500Y1972500D03*
Y2172500D03*
Y2372500D03*
Y2572500D03*
Y2722500D03*
Y2972500D03*
Y3522500D03*
X102500Y3622500D03*
X307500D03*
X712500Y222500D03*
X610000Y120000D03*
X740000Y395000D03*
X739000Y649000D03*
X740000Y522000D03*
X795000Y870000D03*
X762500Y1522500D03*
Y1272500D03*
X712500Y1722500D03*
X512500Y1972500D03*
X812500D03*
Y2172500D03*
Y2372500D03*
X512500Y2172500D03*
Y2372500D03*
X812500Y2572500D03*
X512500D03*
X765000Y2705000D03*
X512500Y2722500D03*
Y2972500D03*
X762500D03*
X512500Y3172500D03*
X762500D03*
X677500Y3392500D03*
X512500Y3372500D03*
Y3522500D03*
X750000Y3515000D03*
X825000Y3620000D03*
X495000Y3622300D03*
X680000D03*
X585000D03*
X1057500Y62500D03*
X1195000Y505000D03*
X1030000Y795000D03*
Y685000D03*
X920000Y585000D03*
X1030000D03*
X1062500Y1222500D03*
X1212500Y872500D03*
X1012500Y922500D03*
X862500Y1072500D03*
X1200000Y1180000D03*
X1100000Y1410000D03*
X995000D03*
X1155000Y1310000D03*
X1012500Y1322500D03*
X1065000Y1825000D03*
X1012500Y1922500D03*
X1225000Y2180000D03*
X1012500Y2372500D03*
Y2172500D03*
Y2572500D03*
X1010000Y2680000D03*
X1220000Y2720000D03*
X1217500Y2527500D03*
X1207500Y2867500D03*
X937500Y3127500D03*
X920000Y2995000D03*
X1080000Y2845000D03*
X1227500Y3397500D03*
X930000Y3265000D03*
X1080000Y3405000D03*
X1190000Y3520000D03*
X1157500Y3617500D03*
X1007300Y3622300D03*
X915000D03*
X1327500Y62500D03*
X1577500Y67500D03*
X1605000Y455000D03*
X1510000D03*
X1255000Y1260000D03*
X1430000Y1765000D03*
X1235000Y1920000D03*
X1295000Y1984870D03*
X1350000Y2375000D03*
X1235000Y2050000D03*
X1310000Y2114500D03*
Y2245000D03*
X1380000Y2675000D03*
X1402500Y2522500D03*
X1335000Y2850000D03*
X1340000Y3410000D03*
X1522500Y3627500D03*
X1327500Y3617500D03*
X1832500Y67500D03*
X1853000Y415000D03*
X1910000Y805000D03*
X1690000Y525000D03*
X1946000Y684000D03*
X1803000Y475000D03*
X1695000Y1070000D03*
X1700000Y985000D03*
X1695000Y865000D03*
X1735000Y1445000D03*
X1970000D03*
X1665300Y1620000D03*
X1915000Y2725000D03*
X1715000Y2650000D03*
X1815000D03*
X1817500Y2797500D03*
X1712500Y2737500D03*
X1635000Y2540000D03*
X1765000Y2885000D03*
X1930000Y2895000D03*
X1635000Y2850000D03*
X1827500Y3522500D03*
X1755000Y3370000D03*
X1875000D03*
X1640000Y3410000D03*
X1712500Y3627500D03*
X2085000Y70000D03*
X2330000Y75000D03*
X2350000Y835000D03*
X2062500Y822500D03*
X2220000Y810000D03*
X2120000Y740000D03*
X2305000Y1070000D03*
X2062500Y1072500D03*
Y922500D03*
X2200000Y1190000D03*
X2050000D03*
X2260000Y1580000D03*
X2275000Y1265000D03*
Y1415000D03*
X2125000D03*
Y1265000D03*
X2200000Y1340000D03*
X2350000D03*
Y1490000D03*
X2200000D03*
X2050000D03*
Y1340000D03*
X2275000Y2644000D03*
X2045000Y2900000D03*
X2155000Y2895000D03*
X2265000D03*
X2220000Y3545000D03*
X2222500Y3422500D03*
X2325000Y3357700D03*
X2362500Y3472500D03*
X2590000Y75000D03*
X2520000Y835000D03*
X2455000Y635000D03*
X2661700Y1063300D03*
X2492710Y1070000D03*
X2575000Y1415000D03*
X2425000D03*
X2500000Y1340000D03*
Y1490000D03*
X2600000Y1845000D03*
X2595000Y1975000D03*
X2545000Y1909500D03*
X2540000Y1770000D03*
X2560000Y2225000D03*
Y2095000D03*
X2730000Y2250000D03*
X2510000Y2160000D03*
X2592500Y2757500D03*
X2607500Y2647500D03*
X2707500Y2657500D03*
X2712500Y2772500D03*
X2575000Y3035000D03*
X2587500Y3162500D03*
Y2912500D03*
X2712500Y2972500D03*
X2527500Y3287500D03*
X2712500Y3472500D03*
Y3222500D03*
X2500000Y3420000D03*
X2702500Y3622500D03*
X2512500Y3602500D03*
X3105000Y80000D03*
X2870000D03*
X3090000Y285000D03*
X2920000Y290000D03*
X3162500Y772500D03*
X3150000Y1030000D03*
X3162500Y1422500D03*
X3140000Y1255000D03*
X2810000Y1555000D03*
Y1475000D03*
X2812500Y1922500D03*
X3062500D03*
Y1722500D03*
X3162500Y1622500D03*
X2962500Y1822500D03*
X2810000Y1710000D03*
Y1785400D03*
Y1635000D03*
X2905000Y2335000D03*
X2820000Y2250000D03*
X3062500Y2372500D03*
X2812500Y2122500D03*
X3062500Y2172500D03*
X2962500Y2222500D03*
Y2022500D03*
X2820000Y2515000D03*
X2905000Y2430000D03*
X3062500Y2772500D03*
X2862500Y2622500D03*
X3062500Y2572500D03*
Y2972500D03*
Y3472500D03*
Y3222500D03*
X2887500Y3612500D03*
X3315000Y285000D03*
X3355000Y80000D03*
X3202000Y522000D03*
X3412500Y1922500D03*
X3312500Y1722500D03*
X3412500Y2372500D03*
Y2172500D03*
Y2772500D03*
Y2572500D03*
Y2972500D03*
Y3472500D03*
Y3222500D03*
X3467500Y3602500D03*
X3252500Y3612500D03*
X3812500Y722500D03*
X3778000Y522000D03*
X3812500Y1022500D03*
X3778000Y1538000D03*
X3812500Y1322500D03*
X3712500Y1922500D03*
Y1722500D03*
Y2372500D03*
Y2172500D03*
Y2772500D03*
Y2572500D03*
Y2972500D03*
X3812500Y3472500D03*
X3862500Y3222500D03*
Y3612500D03*
X3667500Y3617500D03*
G54D12*
X455000Y5560000D03*
X735000Y5030000D03*
Y5560000D03*
X1015000Y5030000D03*
Y5560000D03*
X1295000Y5030000D03*
X1575000D03*
X1295000Y5560000D03*
X1575000D03*
X2027500Y1895900D03*
X1927500D03*
X1827500D03*
X2027500Y1995900D03*
X1927500D03*
X1827500D03*
X2027500Y2095900D03*
X1927500D03*
X1827500D03*
X1855000Y5030000D03*
Y5560000D03*
X2135000Y5030000D03*
X2415000D03*
X2135000Y5560000D03*
X2415000D03*
X2695000Y5030000D03*
Y5560000D03*
X2975000Y5030000D03*
Y5560000D03*
X3255000Y5030000D03*
X3535000D03*
X3255000Y5560000D03*
X3535000D03*
X3815000Y5030000D03*
Y5560000D03*
G54D13*
X1184000Y220000D03*
X930000D03*
X1692000D03*
X1438000D03*
X1946000D03*
X2454000D03*
X2200000D03*
X2708000D03*
G54D14*
G01X817200D02*
X930000D01*
G01Y107200D02*
Y220000D01*
G01D02*
Y332800D01*
G01Y220000D02*
X1042800D01*
M02*
