G04 ================== begin FILE IDENTIFICATION RECORD ==================*
G04 Layout Name:  CC120xEM_420_470.brd*
G04 Film Name:    Layer4*
G04 File Format:  Gerber RS274X*
G04 File Origin:  Cadence Allegro 16.5-S017*
G04 Origin Date:  Fri Jan 25 12:45:29 2013*
G04 *
G04 Layer:  VIA CLASS/BOTTOM*
G04 Layer:  PIN/BOTTOM*
G04 Layer:  ETCH/BOTTOM*
G04 *
G04 Offset:    (0.0000 0.0000)*
G04 Mirror:    No*
G04 Mode:      Positive*
G04 Rotation:  0*
G04 FullContactRelief:  No*
G04 UndefLineWidth:     0.0100*
G04 ================== end FILE IDENTIFICATION RECORD ====================*
%FSLAX25Y25*MOMM*%
%IR0*IPPOS*OFA0.00000B0.00000*MIA0B0*SFA1.00000B1.00000*%
%ADD11O,2.05X.65*%
%ADD10C,.1001*%
%ADD12C,.5*%
%ADD14C,.8*%
%ADD15C,1.9*%
%ADD13C,1.27*%
%ADD16C,.2*%
%ADD17C,1.2004*%
%ADD18C,2.1544*%
G75*
%LPD*%
G75*
G36*
G01X3932990Y12010D02*
X7010D01*
Y3660000D01*
X3932990D01*
Y12010D01*
G37*
G36*
G01X570250Y5145250D02*
G02X560000Y5170000I24756J24750D01*
G01Y5405500D01*
X430250Y5535250D01*
G02X479750Y5584750I24750J24750D01*
G01X619750Y5444750D01*
G02X630000Y5420000I-24756J-24750D01*
G01Y5184500D01*
X759750Y5054750D01*
G02X710250Y5005250I-24750J-24750D01*
G01X630000Y5085500D01*
X570250Y5145250D01*
G37*
G36*
G01X850250D02*
G02X840000Y5170000I24756J24750D01*
G01Y5405500D01*
X710250Y5535250D01*
G02X759750Y5584750I24750J24750D01*
G01X899750Y5444750D01*
G02X910000Y5420000I-24756J-24750D01*
G01Y5184500D01*
X1039750Y5054750D01*
G02X990250Y5005250I-24750J-24750D01*
G01X910000Y5085500D01*
X850250Y5145250D01*
G37*
G36*
G01X1130250D02*
G02X1120000Y5170000I24756J24750D01*
G01Y5405500D01*
X990250Y5535250D01*
G02X1039750Y5584750I24750J24750D01*
G01X1179750Y5444750D01*
G02X1190000Y5420000I-24756J-24750D01*
G01Y5184500D01*
X1319750Y5054750D01*
G02X1270250Y5005250I-24750J-24750D01*
G01X1190000Y5085500D01*
X1130250Y5145250D01*
G37*
G36*
G01X1410250D02*
G02X1400000Y5170000I24756J24750D01*
G01Y5405500D01*
X1270250Y5535250D01*
G02X1319750Y5584750I24750J24750D01*
G01X1459750Y5444750D01*
G02X1470000Y5420000I-24756J-24750D01*
G01Y5184500D01*
X1599750Y5054750D01*
G02X1550250Y5005250I-24750J-24750D01*
G01X1470000Y5085500D01*
X1410250Y5145250D01*
G37*
G36*
G01X1690250D02*
G02X1680000Y5170000I24756J24750D01*
G01Y5405500D01*
X1550250Y5535250D01*
G02X1599750Y5584750I24750J24750D01*
G01X1739750Y5444750D01*
G02X1750000Y5420000I-24756J-24750D01*
G01Y5184500D01*
X1879750Y5054750D01*
G02X1830250Y5005250I-24750J-24750D01*
G01X1750000Y5085500D01*
X1690250Y5145250D01*
G37*
G36*
G01X1970250D02*
G02X1960000Y5170000I24756J24750D01*
G01Y5405500D01*
X1830250Y5535250D01*
G02X1879750Y5584750I24750J24750D01*
G01X2019750Y5444750D01*
G02X2030000Y5420000I-24756J-24750D01*
G01Y5184500D01*
X2159750Y5054750D01*
G02X2110250Y5005250I-24750J-24750D01*
G01X2030000Y5085500D01*
X1970250Y5145250D01*
G37*
G36*
G01X2250250D02*
G02X2240000Y5170000I24756J24750D01*
G01Y5405500D01*
X2110250Y5535250D01*
G02X2159750Y5584750I24750J24750D01*
G01X2299750Y5444750D01*
G02X2310000Y5420000I-24756J-24750D01*
G01Y5184500D01*
X2439750Y5054750D01*
G02X2390250Y5005250I-24750J-24750D01*
G01X2310000Y5085500D01*
X2250250Y5145250D01*
G37*
G36*
G01X2530250D02*
G02X2520000Y5170000I24756J24750D01*
G01Y5405500D01*
X2390250Y5535250D01*
G02X2439750Y5584750I24750J24750D01*
G01X2579750Y5444750D01*
G02X2590000Y5420000I-24756J-24750D01*
G01Y5184500D01*
X2719750Y5054750D01*
G02X2670250Y5005250I-24750J-24750D01*
G01X2590000Y5085500D01*
X2530250Y5145250D01*
G37*
G36*
G01X2810250D02*
G02X2800000Y5170000I24756J24750D01*
G01Y5405500D01*
X2670250Y5535250D01*
G02X2719750Y5584750I24750J24750D01*
G01X2859750Y5444750D01*
G02X2870000Y5420000I-24756J-24750D01*
G01Y5184500D01*
X2999750Y5054750D01*
G02X2950250Y5005250I-24750J-24750D01*
G01X2870000Y5085500D01*
X2810250Y5145250D01*
G37*
G36*
G01X3090250D02*
G02X3080000Y5170000I24756J24750D01*
G01Y5405500D01*
X2950250Y5535250D01*
G02X2999750Y5584750I24750J24750D01*
G01X3139750Y5444750D01*
G02X3150000Y5420000I-24756J-24750D01*
G01Y5184500D01*
X3279750Y5054750D01*
G02X3230250Y5005250I-24750J-24750D01*
G01X3150000Y5085500D01*
X3090250Y5145250D01*
G37*
G36*
G01X3370250D02*
G02X3360000Y5170000I24756J24750D01*
G01Y5405500D01*
X3230250Y5535250D01*
G02X3279750Y5584750I24750J24750D01*
G01X3419750Y5444750D01*
G02X3430000Y5420000I-24756J-24750D01*
G01Y5184500D01*
X3559750Y5054750D01*
G02X3510250Y5005250I-24750J-24750D01*
G01X3430000Y5085500D01*
X3370250Y5145250D01*
G37*
G36*
G01X3650250D02*
G02X3640000Y5170000I24756J24750D01*
G01Y5405500D01*
X3510250Y5535250D01*
G02X3559750Y5584750I24750J24750D01*
G01X3699750Y5444750D01*
G02X3710000Y5420000I-24756J-24750D01*
G01Y5184500D01*
X3839750Y5054750D01*
G02X3790250Y5005250I-24750J-24750D01*
G01X3710000Y5085500D01*
X3650250Y5145250D01*
G37*
%LPC*%
G75*
G36*
G01X495640Y318650D02*
G02X450990Y331540I-47974J-82400D01*
G03X458740Y348670I359J10156D01*
G02X444830Y370760I49101J46344D01*
G03X426570Y372230I-9483J-3645D01*
G02X387500Y349780I-39070J22772D01*
G01X247500D01*
G02Y440220I0J45220D01*
G01X335000D01*
Y454480D01*
X247500D01*
G02X208610Y577190I0J67518D01*
G03Y593810I-5852J8310D01*
G02Y704190I38890J55190D01*
G03Y720810I-5852J8310D01*
G02Y831190I38890J55190D01*
G03Y847810I-5852J8310D01*
G02Y958190I38890J55190D01*
G03Y974810I-5852J8310D01*
G02Y1085190I38890J55190D01*
G03Y1101810I-5852J8310D01*
G02Y1212190I38890J55190D01*
G03Y1228810I-5852J8310D01*
G02Y1339190I38890J55190D01*
G03Y1355810I-5852J8310D01*
G02X247500Y1478520I38890J55192D01*
G01X340000D01*
Y1492780D01*
X247500D01*
G02Y1583220I0J45220D01*
G01X387500D01*
G02X403420Y1580330I13J-45222D01*
G01X404280Y1580000D01*
X454980D01*
G02X458740Y1584330I52814J-42064D01*
G03X450990Y1601460I-7391J6974D01*
G02X495640Y1614350I-3324J95290D01*
G03X498870Y1604920I2551J-4394D01*
G02X507850Y1605520I8981J-66920D01*
G01X647850D01*
G02X686740Y1482810I0J-67518D01*
G03Y1466190I5852J-8310D01*
G02Y1355810I-38890J-55190D01*
G03Y1339190I5852J-8310D01*
G02Y1228810I-38890J-55190D01*
G03Y1212190I5852J-8310D01*
G02Y1101810I-38890J-55190D01*
G03Y1085190I5852J-8310D01*
G02X698170Y1075020I-38877J-55202D01*
G01X768650D01*
X900020Y943650D01*
Y763220D01*
G03X917360Y756030I10159J-4D01*
G01X946350Y785020D01*
X959820D01*
G03X969980Y795150I0J10160D01*
G02X1069690Y840020I60019J-151D01*
G01X1861260D01*
G02X1969430Y796600I48741J-35023D01*
G03X1979490Y785020I10060J-1421D01*
G01X2080310D01*
G02X2145770Y794210I39695J-45019D01*
G03X2160250Y804340I4366J9173D01*
G02X2278670Y797330I59753J5660D01*
G03X2288600Y785020I9928J-2151D01*
G01X2751350D01*
X2794980Y828650D01*
Y1416770D01*
X2791470Y1417910D01*
G02X2765250Y1515000I18529J57089D01*
G02Y1595000I44750J40000D01*
G02X2763140Y1672500I44750J39997D01*
G02X2763300Y1747700I46861J37500D01*
G02X2848770Y1831220I46702J37701D01*
G01X2850190Y1830020D01*
X2853650D01*
X3105020Y1578650D01*
Y1179430D01*
G03X3122360Y1172240I10160J-2D01*
G01X3167140Y1217020D01*
X3242530D01*
G03X3249460Y1234610I2J10159D01*
G02X3256610Y1339190I46041J49387D01*
G03Y1355810I-5852J8310D01*
G02Y1466190I38890J55190D01*
G03Y1482810I-5852J8310D01*
G02X3295500Y1605520I38890J55192D01*
G01X3435500D01*
G02X3444470Y1604920I-11J-67519D01*
G03X3447700Y1614350I677J5036D01*
G02X3492360Y1601460I47973J82400D01*
G03X3484610Y1584330I-359J-10156D01*
G02X3498520Y1562240I-49101J-46344D01*
G03X3516780Y1560770I9483J3645D01*
G02X3555850Y1583220I39070J-22772D01*
G01X3695850D01*
G02Y1492780I0J-45220D01*
G01X3615000D01*
Y1478520D01*
X3695850D01*
G02X3734740Y1355810I0J-67518D01*
G03Y1339190I5852J-8310D01*
G02Y1228810I-38890J-55190D01*
G03Y1212190I5852J-8310D01*
G02Y1101810I-38890J-55190D01*
G03Y1085190I5852J-8310D01*
G02Y974810I-38890J-55190D01*
G03Y958190I5852J-8310D01*
G02Y847810I-38890J-55190D01*
G03Y831190I5852J-8310D01*
G02Y720810I-38890J-55190D01*
G03Y704190I5852J-8310D01*
G02Y593810I-38890J-55190D01*
G03Y577190I5852J-8310D01*
G02X3742750Y570580I-38843J-55229D01*
G02Y473420I35250J-48580D01*
G02X3695850Y454480I-46894J48583D01*
G01X3555850D01*
G02X3503550Y479300I0J67513D01*
G03X3487800I-7875J-6423D01*
G02X3474390Y466810I-52297J42705D01*
G03Y450190I5852J-8310D01*
G02X3498520Y419240I-38885J-55198D01*
G03X3516780Y417770I9483J3645D01*
G02X3555850Y440220I39070J-22772D01*
G01X3695850D01*
G02Y349780I0J-45220D01*
G01X3555850D01*
G02X3516780Y372230I0J45222D01*
G03X3498520Y370760I-8777J-5115D01*
G02X3484610Y348670I-63012J24254D01*
G03X3492360Y331540I7391J-6974D01*
G02X3447700Y318650I3313J-95290D01*
G03X3444470Y328080I-2553J4394D01*
G02X3435500Y327480I-8981J66919D01*
G01X3295500D01*
G02X3256610Y450190I0J67518D01*
G03Y466810I-5852J8310D01*
G02X3246880Y475140I38849J55225D01*
G03X3240010Y475550I-3657J-3523D01*
G02X3163670Y475810I-38012J46450D01*
G01X3162260Y476980D01*
X3140650D01*
X3033650Y369980D01*
X1892690D01*
G02X1792990Y415820I-39688J45022D01*
G02X1743150Y479520I10010J59180D01*
G01X1743160Y479710D01*
Y484980D01*
X1734780D01*
X1733280Y483420D01*
G02X1645270Y484980I-43282J41581D01*
G01X1478650D01*
X1373650Y379980D01*
X906350D01*
X801540Y484790D01*
G03X786490Y484030I-7181J-7183D01*
G02X765560Y467690I-46487J37970D01*
G03Y449310I4322J-9190D01*
G02X702690Y347990I-25559J-54306D01*
G03X695910Y347580I-3162J-3979D01*
G02X647850Y327480I-48060J47407D01*
G01X507850D01*
G02X498870Y328080I1J67520D01*
G03X495640Y318650I-679J-5036D01*
G37*
G36*
G01X3746600Y316820D02*
X3756600D01*
G02X3626580Y191800I-4761J-125169D01*
G02X3746600Y316820I124367J727D01*
G37*
G36*
G01X1320200Y164960D02*
G03X1301800I-9200J-4301D01*
G02Y275040I-117800J55040D01*
G03X1320200I9200J4301D01*
G02X1555800I117800J-55040D01*
G03X1574200I9200J4301D01*
G02X1809800I117800J-55040D01*
G03X1828200I9200J4301D01*
G02X2063800I117800J-55040D01*
G03X2082200I9200J4301D01*
G02X2317800I117800J-55040D01*
G03X2336200I9200J4301D01*
G02X2571800I117800J-55040D01*
G03X2590200I9200J4301D01*
G02Y164960I117800J-55040D01*
G03X2571800I-9200J-4301D01*
G02X2336200I-117800J55040D01*
G03X2317800I-9200J-4301D01*
G02X2082200I-117800J55040D01*
G03X2063800I-9200J-4301D01*
G02X1828200I-117800J55040D01*
G03X1809800I-9200J-4301D01*
G02X1574200I-117800J55040D01*
G03X1555800I-9200J-4301D01*
G02X1320200I-117800J55040D01*
G37*
G36*
G01X2120730Y1205130D02*
G03X2109870Y1194270I-729J-10131D01*
G02X2054270Y1249870I-59870J-4270D01*
G03X2065130Y1260730I729J10131D01*
G02Y1269270I59870J4270D01*
G03X2054270Y1280130I-10131J729D01*
G02Y1399870I-4270J59870D01*
G03X2065130Y1410730I729J10131D01*
G02Y1419270I59870J4270D01*
G03X2054270Y1430130I-10131J729D01*
G02X2109870Y1485730I-4270J59870D01*
G03X2120730Y1474870I10131J-729D01*
G02X2129270I4270J-59870D01*
G03X2140130Y1485730I729J10131D01*
G02X2259870I59870J4270D01*
G03X2270730Y1474870I10131J-729D01*
G02X2279270I4270J-59870D01*
G03X2290130Y1485730I729J10131D01*
G02X2409870I59870J4270D01*
G03X2420730Y1474870I10131J-729D01*
G02X2429270I4270J-59870D01*
G03X2440130Y1485730I729J10131D01*
G02X2559870I59870J4270D01*
G03X2570730Y1474870I10131J-729D01*
G02Y1355130I4270J-59870D01*
G03X2559870Y1344270I-729J-10131D01*
G02X2440130I-59870J-4270D01*
G03X2429270Y1355130I-10131J729D01*
G02X2420730I-4270J59870D01*
G03X2409870Y1344270I-729J-10131D01*
G02X2345730Y1280130I-59870J-4270D01*
G03X2334870Y1269270I-729J-10131D01*
G02X2270730Y1205130I-59870J-4270D01*
G03X2259870Y1194270I-729J-10131D01*
G02X2140130I-59870J-4270D01*
G03X2129270Y1205130I-10131J729D01*
G02X2120730I-4270J59870D01*
G37*
G36*
G01X3697500Y3416020D02*
X3698070D01*
G02X3577480Y3291000I4668J-125171D01*
G02X3697500Y3416020I124367J727D01*
G37*
G36*
G01X249000Y3441020D02*
X259000D01*
G02X128980Y3316000I-4761J-125169D01*
G02X249000Y3441020I124367J727D01*
G37*
G54D17*
X2510000Y2160000D03*
X2730000Y2250000D03*
X2540000Y1770000D03*
X2545000Y1909500D03*
X1635000Y2540000D03*
X1665300Y1620000D03*
X1402500Y2522500D03*
X1310000Y2245000D03*
Y2114500D03*
X1295000Y1984870D03*
X1217500Y2527500D03*
X1200000Y1180000D03*
G54D18*
X930000Y220000D03*
%LPD*%
G75*
G36*
G01X2946030Y537360D02*
X3105020Y696350D01*
Y969070D01*
G02X3120220Y977890I10160J-2D01*
G03X3150000Y969980I29780J52104D01*
G01X3242530D01*
G02X3249460Y952390I2J-10159D01*
G03X3256610Y847810I46041J-49387D01*
G02Y831190I-5852J-8310D01*
G03Y720810I38890J-55190D01*
G02Y704190I-5852J-8310D01*
G03X3245180Y694020I38877J-55202D01*
G01X3145350D01*
X2971350Y520020D01*
X2953220D01*
G02X2946030Y537360I-4J10159D01*
G37*
G54D10*
X447670Y236250D03*
Y1696750D03*
X3495670Y236250D03*
Y1696750D03*
G54D11*
X317500Y395000D03*
Y522000D03*
Y649000D03*
Y776000D03*
Y903000D03*
Y1030000D03*
Y1157000D03*
Y1284000D03*
Y1411000D03*
Y1538000D03*
X577850Y395000D03*
Y522000D03*
Y649000D03*
Y776000D03*
Y903000D03*
Y1030000D03*
Y1157000D03*
Y1284000D03*
Y1411000D03*
Y1538000D03*
X3625850Y395000D03*
X3365500D03*
X3625850Y522000D03*
Y649000D03*
Y776000D03*
X3365500Y522000D03*
Y649000D03*
Y776000D03*
X3625850Y903000D03*
Y1030000D03*
Y1157000D03*
X3365500Y903000D03*
Y1030000D03*
Y1157000D03*
X3625850Y1284000D03*
Y1411000D03*
Y1538000D03*
X3365500Y1284000D03*
Y1411000D03*
Y1538000D03*
G54D12*
G01X3150000Y1030000D02*
Y1115000D01*
X3192000Y1157000D01*
X3365500D01*
G01Y1030000D02*
X3150000D01*
X150000Y395000D03*
X162500Y222500D03*
X312500Y122500D03*
X112500Y822500D03*
Y572500D03*
Y1072500D03*
X155000Y1545000D03*
X112500Y1322500D03*
X212500Y1722500D03*
X162500Y1972500D03*
Y2172500D03*
Y2372500D03*
Y2572500D03*
Y2722500D03*
Y2972500D03*
Y3522500D03*
X102500Y3622500D03*
X307500D03*
X712500Y222500D03*
X610000Y120000D03*
X740000Y395000D03*
X739000Y649000D03*
X740000Y522000D03*
X795000Y870000D03*
X762500Y1522500D03*
Y1272500D03*
X712500Y1722500D03*
X512500Y1972500D03*
X812500D03*
Y2172500D03*
Y2372500D03*
X512500Y2172500D03*
Y2372500D03*
X812500Y2572500D03*
X512500D03*
X765000Y2705000D03*
X512500Y2722500D03*
Y2972500D03*
X762500D03*
X512500Y3172500D03*
X762500D03*
X677500Y3392500D03*
X512500Y3372500D03*
Y3522500D03*
X750000Y3515000D03*
X825000Y3620000D03*
X495000Y3622300D03*
X680000D03*
X585000D03*
X1057500Y62500D03*
X1195000Y505000D03*
X1030000Y795000D03*
Y685000D03*
X920000Y585000D03*
X1030000D03*
X1062500Y1222500D03*
X1212500Y872500D03*
X1012500Y922500D03*
X862500Y1072500D03*
X1200000Y1180000D03*
X1100000Y1410000D03*
X995000D03*
X1155000Y1310000D03*
X1012500Y1322500D03*
X1065000Y1825000D03*
X1012500Y1922500D03*
X1225000Y2180000D03*
X1012500Y2372500D03*
Y2172500D03*
Y2572500D03*
X1010000Y2680000D03*
X1220000Y2720000D03*
X1217500Y2527500D03*
X1207500Y2867500D03*
X937500Y3127500D03*
X920000Y2995000D03*
X1080000Y2845000D03*
X1227500Y3397500D03*
X930000Y3265000D03*
X1080000Y3405000D03*
X1190000Y3520000D03*
X1157500Y3617500D03*
X1007300Y3622300D03*
X915000D03*
X1327500Y62500D03*
X1577500Y67500D03*
X1605000Y455000D03*
X1510000D03*
X1255000Y1260000D03*
X1430000Y1765000D03*
X1235000Y1920000D03*
X1295000Y1984870D03*
X1350000Y2375000D03*
X1235000Y2050000D03*
X1310000Y2114500D03*
Y2245000D03*
X1380000Y2675000D03*
X1402500Y2522500D03*
X1335000Y2850000D03*
X1340000Y3410000D03*
X1522500Y3627500D03*
X1327500Y3617500D03*
X1832500Y67500D03*
X1853000Y415000D03*
X1910000Y805000D03*
X1690000Y525000D03*
X1946000Y684000D03*
X1803000Y475000D03*
X1695000Y1070000D03*
X1700000Y985000D03*
X1695000Y865000D03*
X1735000Y1445000D03*
X1970000D03*
X1665300Y1620000D03*
X1915000Y2725000D03*
X1715000Y2650000D03*
X1815000D03*
X1817500Y2797500D03*
X1712500Y2737500D03*
X1635000Y2540000D03*
X1765000Y2885000D03*
X1930000Y2895000D03*
X1635000Y2850000D03*
X1827500Y3522500D03*
X1755000Y3370000D03*
X1875000D03*
X1640000Y3410000D03*
X1712500Y3627500D03*
X2085000Y70000D03*
X2330000Y75000D03*
X2350000Y835000D03*
X2062500Y822500D03*
X2220000Y810000D03*
X2120000Y740000D03*
X2305000Y1070000D03*
X2062500Y1072500D03*
Y922500D03*
X2200000Y1190000D03*
X2050000D03*
X2260000Y1580000D03*
X2275000Y1265000D03*
Y1415000D03*
X2125000D03*
Y1265000D03*
X2200000Y1340000D03*
X2350000D03*
Y1490000D03*
X2200000D03*
X2050000D03*
Y1340000D03*
X2275000Y2644000D03*
X2045000Y2900000D03*
X2155000Y2895000D03*
X2265000D03*
X2220000Y3545000D03*
X2222500Y3422500D03*
X2325000Y3357700D03*
X2362500Y3472500D03*
X2590000Y75000D03*
X2520000Y835000D03*
X2455000Y635000D03*
X2661700Y1063300D03*
X2492710Y1070000D03*
X2575000Y1415000D03*
X2425000D03*
X2500000Y1340000D03*
Y1490000D03*
X2600000Y1845000D03*
X2595000Y1975000D03*
X2545000Y1909500D03*
X2540000Y1770000D03*
X2560000Y2225000D03*
Y2095000D03*
X2730000Y2250000D03*
X2510000Y2160000D03*
X2592500Y2757500D03*
X2607500Y2647500D03*
X2707500Y2657500D03*
X2712500Y2772500D03*
X2575000Y3035000D03*
X2587500Y3162500D03*
Y2912500D03*
X2712500Y2972500D03*
X2527500Y3287500D03*
X2712500Y3472500D03*
Y3222500D03*
X2500000Y3420000D03*
X2702500Y3622500D03*
X2512500Y3602500D03*
X3105000Y80000D03*
X2870000D03*
X3090000Y285000D03*
X2920000Y290000D03*
X3162500Y772500D03*
X3150000Y1030000D03*
X3162500Y1422500D03*
X3140000Y1255000D03*
X2810000Y1555000D03*
Y1475000D03*
X2812500Y1922500D03*
X3062500D03*
Y1722500D03*
X3162500Y1622500D03*
X2962500Y1822500D03*
X2810000Y1710000D03*
Y1785400D03*
Y1635000D03*
X2905000Y2335000D03*
X2820000Y2250000D03*
X3062500Y2372500D03*
X2812500Y2122500D03*
X3062500Y2172500D03*
X2962500Y2222500D03*
Y2022500D03*
X2820000Y2515000D03*
X2905000Y2430000D03*
X3062500Y2772500D03*
X2862500Y2622500D03*
X3062500Y2572500D03*
Y2972500D03*
Y3472500D03*
Y3222500D03*
X2887500Y3612500D03*
X3315000Y285000D03*
X3355000Y80000D03*
X3202000Y522000D03*
X3412500Y1922500D03*
X3312500Y1722500D03*
X3412500Y2372500D03*
Y2172500D03*
Y2772500D03*
Y2572500D03*
Y2972500D03*
Y3472500D03*
Y3222500D03*
X3467500Y3602500D03*
X3252500Y3612500D03*
X3812500Y722500D03*
X3778000Y522000D03*
X3812500Y1022500D03*
X3778000Y1538000D03*
X3812500Y1322500D03*
X3712500Y1922500D03*
Y1722500D03*
Y2372500D03*
Y2172500D03*
Y2772500D03*
Y2572500D03*
Y2972500D03*
X3812500Y3472500D03*
X3862500Y3222500D03*
Y3612500D03*
X3667500Y3617500D03*
G54D13*
X254000Y3316000D03*
X3751600Y191800D03*
X3702500Y3291000D03*
G54D14*
X455000Y5560000D03*
X735000Y5030000D03*
Y5560000D03*
X1015000Y5030000D03*
Y5560000D03*
X1295000Y5030000D03*
X1575000D03*
X1295000Y5560000D03*
X1575000D03*
X2027500Y1895900D03*
X1927500D03*
X1827500D03*
X2027500Y1995900D03*
X1927500D03*
X1827500D03*
X2027500Y2095900D03*
X1927500D03*
X1827500D03*
X1855000Y5030000D03*
Y5560000D03*
X2135000Y5030000D03*
X2415000D03*
X2135000Y5560000D03*
X2415000D03*
X2695000Y5030000D03*
Y5560000D03*
X2975000Y5030000D03*
Y5560000D03*
X3255000Y5030000D03*
X3535000D03*
X3255000Y5560000D03*
X3535000D03*
X3815000Y5030000D03*
Y5560000D03*
G54D15*
X1184000Y220000D03*
X930000D03*
X1692000D03*
X1438000D03*
X1946000D03*
X2454000D03*
X2200000D03*
X2708000D03*
G54D16*
G01X317500Y395000D02*
X150000D01*
G01X317500Y344700D02*
Y395000D01*
G01D02*
Y445300D01*
G01X155000Y1545000D02*
X162000Y1538000D01*
G01D02*
X317500D01*
G01Y1487700D02*
Y1538000D01*
G01D02*
Y1588300D01*
G01X817200Y220000D02*
X930000D01*
G01X577850Y395000D02*
X740000D01*
G01X577850Y776000D02*
X719000D01*
X810000Y685000D01*
Y540000D01*
X925000Y425000D01*
X1355000D01*
X1460000Y530000D01*
X1685000D01*
X1690000Y525000D01*
G01X577850Y649000D02*
X739000D01*
G01X577850Y522000D02*
X740000D01*
G01X1195000Y505000D02*
X1185000Y495000D01*
X915000D01*
X855000Y555000D01*
Y925000D01*
X750000Y1030000D01*
X577850D01*
G01X795000Y870000D02*
X762000Y903000D01*
X577850D01*
G01X930000Y107200D02*
Y220000D01*
G01D02*
Y332800D01*
G01Y220000D02*
X1042800D01*
G01X1195000Y505000D02*
X1205000Y495000D01*
X1341720D01*
X1426320Y579600D01*
X2449670D01*
X2450070Y580000D01*
X2850000D01*
X3010000Y740000D01*
Y1530000D01*
X2830000Y1710000D01*
X2810000D01*
G01X1030000Y795000D02*
X1900000D01*
X1910000Y805000D01*
G01X1030000Y685000D02*
X1945000D01*
X1946000Y684000D01*
G01X1035000Y690000D02*
X1030000Y685000D01*
G01X2120000Y740000D02*
X1106280D01*
X1105880Y740400D01*
X1064120D01*
X1063720Y740000D01*
X965000D01*
X920000Y695000D01*
Y585000D01*
G01X1030000D02*
X1070000Y625000D01*
X2445000D01*
X2455000Y635000D01*
G01X1853000Y415000D02*
X3015000D01*
X3122000Y522000D01*
X3202000D01*
G01X1690000Y525000D02*
X1695000Y530000D01*
X2875000D01*
X3060000Y715000D01*
Y1560000D01*
X2835000Y1785000D01*
X2810400D01*
X2810000Y1785400D01*
G01X1935120Y689600D02*
X2140880D01*
X2141280Y690000D01*
X2800000D01*
X2895000Y785000D01*
Y1470000D01*
X2810000Y1555000D01*
G01X1934720Y690000D02*
X1935120Y689600D01*
G01X1946000Y684000D02*
X1940720D01*
X1935120Y689600D01*
G01X1803000Y475000D02*
X2990000D01*
X3164000Y649000D01*
X3365500D01*
G01X2810000Y1475000D02*
Y1470000D01*
X2840000Y1440000D01*
Y810000D01*
X2770000Y740000D01*
X2120000D01*
G01X2810000Y1635000D02*
X2825000D01*
X2950000Y1510000D01*
Y755000D01*
X2825000Y630000D01*
X2460000D01*
X2455000Y635000D01*
G01X3625850Y344700D02*
Y395000D01*
G01D02*
Y445300D01*
G01Y395000D02*
X3746150D01*
G01X3778000Y522000D02*
X3625850D01*
G01Y1538000D02*
X3778000D01*
G01X3625850Y1487700D02*
Y1538000D01*
G01D02*
Y1588300D01*
M02*
