G04 ================== begin FILE IDENTIFICATION RECORD ==================*
G04 Layout Name:  CC120xEM_420_470.brd*
G04 Film Name:    paste_top*
G04 File Format:  Gerber RS274X*
G04 File Origin:  Cadence Allegro 16.5-S017*
G04 Origin Date:  Fri Jan 25 12:45:29 2013*
G04 *
G04 Layer:  PIN/FILMMASKTOP*
G04 Layer:  BOARD GEOMETRY/OUTLINE*
G04 *
G04 Offset:    (0.0000 0.0000)*
G04 Mirror:    No*
G04 Mode:      Positive*
G04 Rotation:  0*
G04 FullContactRelief:  No*
G04 UndefLineWidth:     0.0100*
G04 ================== end FILE IDENTIFICATION RECORD ====================*
%FSLAX25Y25*MOMM*%
%IR0*IPPOS*OFA0.00000B0.00000*MIA0B0*SFA1.00000B1.00000*%
%AMMACRO21*
4,1,44,-.5001,-.2375,
-.5001,.2375,
-.496486,.278747,
-.485764,.318739,
-.46826,.356262,
-.444506,.390176,
-.415225,.419449,
-.381305,.443193,
-.343777,.460686,
-.303781,.471397,
-.262533,.475,
-.2624,.475,
.2624,.475,
.30365,.47142,
.343651,.460732,
.381189,.44326,
.415122,.419535,
.444421,.390278,
.468193,.356378,
.485718,.318864,
.496462,.278878,
.5001,.237633,
.5001,.2375,
.5001,-.2375,
.496486,-.278747,
.485764,-.318739,
.46826,-.356262,
.444506,-.390176,
.415225,-.419449,
.381305,-.443193,
.343777,-.460686,
.303781,-.471397,
.262533,-.475,
.2624,-.475,
-.2624,-.475,
-.30365,-.47142,
-.343651,-.460732,
-.381189,-.44326,
-.415122,-.419535,
-.444421,-.390278,
-.468193,-.356378,
-.485718,-.318864,
-.496462,-.278878,
-.5001,-.237633,
-.5001,-.2375,
0.0*
%
%ADD21MACRO21*%
%AMMACRO23*
4,1,41,.3251,0.0,
.3251,.1501,
.322798,.176151,
.316006,.201406,
.304933,.225099,
.289913,.246508,
.271404,.264985,
.249968,.279966,
.226256,.290997,
.200988,.297744,
.175,.3,
-.175,.3,
-.201054,.297732,
-.226318,.290975,
-.250026,.279933,
-.271455,.264942,
-.289956,.246457,
-.304966,.225041,
-.316029,.201344,
-.322809,.176085,
-.3251,.1501,
-.3251,-.1501,
-.322798,-.176151,
-.316006,-.201406,
-.304933,-.225099,
-.289913,-.246508,
-.271404,-.264985,
-.249968,-.279966,
-.226256,-.290997,
-.200988,-.297744,
-.175,-.3,
.175,-.3,
.201054,-.297732,
.226318,-.290975,
.250026,-.279933,
.271455,-.264942,
.289956,-.246457,
.304966,-.225041,
.316029,-.201344,
.322809,-.176085,
.3251,-.1501,
.3251,0.0,
0.0*
%
%ADD23MACRO23*%
%AMMACRO20*
4,1,41,0.0,-.425,
.075,-.425,
.088024,-.423861,
.100652,-.420477,
.1125,-.414952,
.123209,-.407453,
.132453,-.398209,
.139952,-.3875,
.145477,-.375652,
.148861,-.363024,
.15,-.35,
.15,.35,
.148861,.363024,
.145477,.375652,
.139952,.3875,
.132453,.398209,
.123209,.407453,
.1125,.414952,
.100652,.420477,
.088024,.423861,
.075,.425,
-.075,.425,
-.088024,.423861,
-.100652,.420477,
-.1125,.414952,
-.123209,.407453,
-.132453,.398209,
-.139952,.3875,
-.145477,.375652,
-.148861,.363024,
-.15,.35,
-.15,-.35,
-.148861,-.363024,
-.145477,-.375652,
-.139952,-.3875,
-.132453,-.398209,
-.123209,-.407453,
-.1125,-.414952,
-.100652,-.420477,
-.088024,-.423861,
-.075,-.425,
0.0,-.425,
0.0*
%
%ADD20MACRO20*%
%AMMACRO24*
4,1,41,0.0,-.3251,
.1501,-.3251,
.176151,-.322798,
.201406,-.316006,
.225099,-.304933,
.246508,-.289913,
.264985,-.271404,
.279966,-.249968,
.290997,-.226256,
.297744,-.200988,
.3,-.175,
.3,.175,
.297732,.201054,
.290975,.226318,
.279933,.250026,
.264942,.271455,
.246457,.289956,
.225041,.304966,
.201344,.316029,
.176085,.322809,
.1501,.3251,
-.1501,.3251,
-.176151,.322798,
-.201406,.316006,
-.225099,.304933,
-.246508,.289913,
-.264985,.271404,
-.279966,.249968,
-.290997,.226256,
-.297744,.200988,
-.3,.175,
-.3,-.175,
-.297732,-.201054,
-.290975,-.226318,
-.279933,-.250026,
-.264942,-.271455,
-.246457,-.289956,
-.225041,-.304966,
-.201344,-.316029,
-.176085,-.322809,
-.1501,-.3251,
0.0,-.3251,
0.0*
%
%ADD24MACRO24*%
%AMMACRO22*
4,1,40,.3251,.16,
.3251,-.16,
.322663,-.187789,
.315437,-.214733,
.303643,-.240012,
.287638,-.26286,
.267909,-.282581,
.245054,-.298576,
.21977,-.31036,
.192823,-.317575,
.1651,-.32,
-.1651,-.32,
-.192889,-.317563,
-.219833,-.310337,
-.245112,-.298543,
-.26796,-.282538,
-.287681,-.262809,
-.303676,-.239954,
-.31546,-.21467,
-.322675,-.187723,
-.3251,-.16,
-.3251,.16,
-.322663,.187789,
-.315437,.214733,
-.303643,.240012,
-.287638,.26286,
-.267909,.282581,
-.245054,.298576,
-.21977,.31036,
-.192823,.317575,
-.1651,.32,
.1651,.32,
.192889,.317563,
.219833,.310337,
.245112,.298543,
.26796,.282538,
.287681,.262809,
.303676,.239954,
.31546,.21467,
.322675,.187723,
.3251,.16,
0.0*
%
%ADD22MACRO22*%
%AMMACRO13*
4,1,40,.16,-.3251,
-.16,-.3251,
-.187789,-.322663,
-.214733,-.315437,
-.240012,-.303643,
-.26286,-.287638,
-.282581,-.267909,
-.298576,-.245054,
-.31036,-.21977,
-.317575,-.192823,
-.32,-.1651,
-.32,.1651,
-.317563,.192889,
-.310337,.219833,
-.298543,.245112,
-.282538,.26796,
-.262809,.287681,
-.239954,.303676,
-.21467,.31546,
-.187723,.322675,
-.16,.3251,
.16,.3251,
.187789,.322663,
.214733,.315437,
.240012,.303643,
.26286,.287638,
.282581,.267909,
.298576,.245054,
.31036,.21977,
.317575,.192823,
.32,.1651,
.32,-.1651,
.317563,-.192889,
.310337,-.219833,
.298543,-.245112,
.282538,-.26796,
.262809,-.287681,
.239954,-.303676,
.21467,-.31546,
.187723,-.322675,
.16,-.3251,
0.0*
%
%ADD13MACRO13*%
%ADD25O,.5499X1.*%
%AMMACRO17*
4,1,40,-.2007,-.5004,
.2007,-.5004,
.235357,-.497082,
.268912,-.487797,
.300345,-.472826,
.3287,-.452624,
.353117,-.427805,
.372853,-.399123,
.387309,-.36745,
.396045,-.333748,
.3988,-.2997,
.3988,.2997,
.395935,.334398,
.387087,.368071,
.372527,.399696,
.352697,.428313,
.328199,.453051,
.299777,.473159,
.268295,.488026,
.234709,.497201,
.2007,.5004,
-.2007,.5004,
-.235357,.497082,
-.268912,.487797,
-.300345,.472826,
-.3287,.452624,
-.353117,.427805,
-.372853,.399123,
-.387309,.36745,
-.396045,.333748,
-.3988,.2997,
-.3988,-.2997,
-.395935,-.334398,
-.387087,-.368071,
-.372527,-.399696,
-.352697,-.428313,
-.328199,-.453051,
-.299777,-.473159,
-.268295,-.488026,
-.234709,-.497201,
-.2007,-.5004,
0.0*
%
%ADD17MACRO17*%
%AMMACRO19*
4,1,41,-.425,0.0,
-.425,-.075,
-.423861,-.088024,
-.420477,-.100652,
-.414952,-.1125,
-.407453,-.123209,
-.398209,-.132453,
-.3875,-.139952,
-.375652,-.145477,
-.363024,-.148861,
-.35,-.15,
.35,-.15,
.363024,-.148861,
.375652,-.145477,
.3875,-.139952,
.398209,-.132453,
.407453,-.123209,
.414952,-.1125,
.420477,-.100652,
.423861,-.088024,
.425,-.075,
.425,.075,
.423861,.088024,
.420477,.100652,
.414952,.1125,
.407453,.123209,
.398209,.132453,
.3875,.139952,
.375652,.145477,
.363024,.148861,
.35,.15,
-.35,.15,
-.363024,.148861,
-.375652,.145477,
-.3875,.139952,
-.398209,.132453,
-.407453,.123209,
-.414952,.1125,
-.420477,.100652,
-.423861,.088024,
-.425,.075,
-.425,0.0,
0.0*
%
%ADD19MACRO19*%
%AMMACRO12*
4,1,40,-.16,.3251,
.16,.3251,
.187789,.322663,
.214733,.315437,
.240012,.303643,
.26286,.287638,
.282581,.267909,
.298576,.245054,
.31036,.21977,
.317575,.192823,
.32,.1651,
.32,-.1651,
.317563,-.192889,
.310337,-.219833,
.298543,-.245112,
.282538,-.26796,
.262809,-.287681,
.239954,-.303676,
.21467,-.31546,
.187723,-.322675,
.16,-.3251,
-.16,-.3251,
-.187789,-.322663,
-.214733,-.315437,
-.240012,-.303643,
-.26286,-.287638,
-.282581,-.267909,
-.298576,-.245054,
-.31036,-.21977,
-.317575,-.192823,
-.32,-.1651,
-.32,.1651,
-.317563,.192889,
-.310337,.219833,
-.298543,.245112,
-.282538,.26796,
-.262809,.287681,
-.239954,.303676,
-.21467,.31546,
-.187723,.322675,
-.16,.3251,
0.0*
%
%ADD12MACRO12*%
%AMMACRO11*
4,1,40,-.3251,-.16,
-.3251,.16,
-.322663,.187789,
-.315437,.214733,
-.303643,.240012,
-.287638,.26286,
-.267909,.282581,
-.245054,.298576,
-.21977,.31036,
-.192823,.317575,
-.1651,.32,
.1651,.32,
.192889,.317563,
.219833,.310337,
.245112,.298543,
.26796,.282538,
.287681,.262809,
.303676,.239954,
.31546,.21467,
.322675,.187723,
.3251,.16,
.3251,-.16,
.322663,-.187789,
.315437,-.214733,
.303643,-.240012,
.287638,-.26286,
.267909,-.282581,
.245054,-.298576,
.21977,-.31036,
.192823,-.317575,
.1651,-.32,
-.1651,-.32,
-.192889,-.317563,
-.219833,-.310337,
-.245112,-.298543,
-.26796,-.282538,
-.287681,-.262809,
-.303676,-.239954,
-.31546,-.21467,
-.322675,-.187723,
-.3251,-.16,
0.0*
%
%ADD11MACRO11*%
%ADD16C,1.8001*%
%ADD10C,1.27*%
%ADD18R,3.15X3.15*%
%AMMACRO15*
4,1,41,0.0,-1.,
.5189,-1.,
.602466,-.992663,
.683488,-.970926,
.759505,-.93545,
.828206,-.887312,
.887505,-.827977,
.9356,-.759245,
.971028,-.683206,
.992715,-.60217,
1.,-.5189,
1.,.5189,
.992663,.602466,
.970926,.683488,
.93545,.759505,
.887312,.828206,
.827977,.887505,
.759245,.9356,
.683206,.971028,
.60217,.992715,
.5189,1.,
-.5189,1.,
-.602466,.992663,
-.683488,.970926,
-.759505,.93545,
-.828206,.887312,
-.887505,.827977,
-.9356,.759245,
-.971028,.683206,
-.992715,.60217,
-1.,.5189,
-1.,-.5189,
-.992663,-.602466,
-.970926,-.683488,
-.93545,-.759505,
-.887312,-.828206,
-.827977,-.887505,
-.759245,-.9356,
-.683206,-.971028,
-.60217,-.992715,
-.5189,-1.,
0.0,-1.,
0.0*
%
%ADD15MACRO15*%
%AMMACRO14*
4,1,41,0.0,-.65,
.3438,-.65,
.396979,-.645339,
.448541,-.631514,
.496918,-.608945,
.540642,-.578319,
.578383,-.540565,
.608995,-.496832,
.631548,-.448447,
.645356,-.396881,
.65,-.3438,
.65,.3438,
.645339,.396979,
.631514,.448541,
.608945,.496918,
.578319,.540642,
.540565,.578383,
.496832,.608995,
.448447,.631548,
.396881,.645356,
.3438,.65,
-.3438,.65,
-.396979,.645339,
-.448541,.631514,
-.496918,.608945,
-.540642,.578319,
-.578383,.540565,
-.608995,.496832,
-.631548,.448447,
-.645356,.396881,
-.65,.3438,
-.65,-.3438,
-.645339,-.396979,
-.631514,-.448541,
-.608945,-.496918,
-.578319,-.540642,
-.540565,-.578383,
-.496832,-.608995,
-.448447,-.631548,
-.396881,-.645356,
-.3438,-.65,
0.0,-.65,
0.0*
%
%ADD14MACRO14*%
%ADD26C,.01*%
G75*
%LPD*%
G75*
G54D10*
X254000Y3316000D03*
X3751600Y191800D03*
X3701500Y3291500D03*
G54D11*
X705000Y3830000D03*
X795000D03*
X1150000Y1825000D03*
X1240000D03*
X1010000Y1725000D03*
X1100000D03*
X1340000Y1140000D03*
X1430000D03*
X1340000Y1260000D03*
X1430000D03*
X1360000Y1920000D03*
X1450000D03*
X1390000Y2050000D03*
X1480000D03*
X1420000Y2310000D03*
X1510000D03*
X1390000Y2180000D03*
X1480000D03*
X2014000Y2445000D03*
X1960000Y3035000D03*
X2220000Y925000D03*
X2310000D03*
X2400000Y1845000D03*
X2104000Y2445000D03*
X2210000Y3145000D03*
X2300000D03*
X2215000Y3035000D03*
X2305000D03*
X2050000D03*
X2490000Y1845000D03*
X2535000Y2430000D03*
X2625000D03*
G54D20*
X2003000Y1747500D03*
X1953000D03*
X1903000D03*
X1853000D03*
X1803000D03*
X1753000D03*
Y2242500D03*
X1803000D03*
X1853000D03*
X1903000D03*
X1953000D03*
X2003000D03*
X2103000Y1747500D03*
X2053000D03*
Y2242500D03*
X2103000D03*
G54D12*
X585000Y3830000D03*
Y3740000D03*
X1200000Y1095000D03*
Y1005000D03*
X1580000Y1215000D03*
Y1305000D03*
X1605000Y2370000D03*
Y2460000D03*
X1815000Y2565000D03*
Y2475000D03*
X1915000Y2640000D03*
Y2550000D03*
X1715000Y2565000D03*
Y2475000D03*
X2005000Y2636000D03*
Y2546000D03*
X2105000Y2640000D03*
Y2550000D03*
X2200000Y2635000D03*
Y2545000D03*
X2400000Y2932500D03*
Y2842500D03*
X2050000Y3125000D03*
X2510000Y2635000D03*
Y2545000D03*
G54D21*
X2405000Y1070000D03*
Y1230000D03*
G54D13*
X995000Y1495000D03*
Y1585000D03*
X1100000Y1495000D03*
Y1585000D03*
X915000Y3740000D03*
Y3830000D03*
X1630000Y1425000D03*
Y1515000D03*
X1970000Y1530000D03*
Y1620000D03*
X1735000Y1530000D03*
Y1620000D03*
X2435000Y835000D03*
Y925000D03*
G54D22*
X2190000Y1580000D03*
X2100000D03*
X2360000Y1975000D03*
X2410000Y2225000D03*
X2320000D03*
X2361000Y2335000D03*
X2271000D03*
X2360000Y2095000D03*
X2400000Y2740000D03*
X2310000D03*
X2400000Y2445000D03*
X2310000D03*
X2400000Y3035000D03*
X2450000Y1975000D03*
X2730000Y2335000D03*
X2450000Y2095000D03*
X2625000Y2335000D03*
X2535000D03*
X2730000Y2430000D03*
X2490000Y3035000D03*
X2995000Y1230000D03*
X2905000D03*
X2820000Y2335000D03*
Y2430000D03*
G54D14*
X1250000Y1410000D03*
Y1640000D03*
X1430000Y1410000D03*
Y1640000D03*
G54D23*
X2400000Y2639000D03*
Y2541000D03*
G54D15*
X930000Y2845000D03*
Y3405000D03*
X1490000Y2845000D03*
Y3405000D03*
G54D24*
X2154000Y2750000D03*
X2056000D03*
G54D16*
X1210000Y3125000D03*
G54D25*
X2566700Y1228800D03*
X2756700D03*
Y958800D03*
X2661700D03*
X2566700D03*
G54D26*
G01X5000Y10000D02*
Y5680000D01*
X3935000D01*
Y10000D01*
X5000D01*
G54D17*
X1555000Y865000D03*
X1345000D03*
X1555000Y1005000D03*
X1345000D03*
G54D18*
X1928000Y1995000D03*
G54D19*
X1680500Y1820000D03*
Y1870000D03*
Y1920000D03*
Y1970000D03*
Y2020000D03*
Y2070000D03*
Y2120000D03*
Y2170000D03*
X2175500Y1970000D03*
Y1920000D03*
Y1870000D03*
Y1820000D03*
Y2170000D03*
Y2120000D03*
Y2070000D03*
Y2020000D03*
M02*
