G04 ================== begin FILE IDENTIFICATION RECORD ==================*
G04 Layout Name:  CC120xEM_420_470.brd*
G04 Film Name:    silk_bottom*
G04 File Format:  Gerber RS274X*
G04 File Origin:  Cadence Allegro 16.5-S017*
G04 Origin Date:  Fri Jan 25 12:45:29 2013*
G04 *
G04 Layer:  REF DES/SILKSCREEN_BOTTOM*
G04 Layer:  PACKAGE GEOMETRY/SILKSCREEN_BOTTOM*
G04 Layer:  MANUFACTURING/AUTOSILK_BOTTOM*
G04 Layer:  BOARD GEOMETRY/OUTLINE*
G04 *
G04 Offset:    (0.0000 0.0000)*
G04 Mirror:    No*
G04 Mode:      Positive*
G04 Rotation:  0*
G04 FullContactRelief:  No*
G04 UndefLineWidth:     0.0100*
G04 ================== end FILE IDENTIFICATION RECORD ====================*
%FSLAX25Y25*MOMM*%
%IR0*IPPOS*OFA0.00000B0.00000*MIA0B0*SFA1.00000B1.00000*%
%ADD10C,.1*%
%ADD11C,.01*%
G75*
%LPD*%
G75*
G54D10*
G01X277500Y343000D02*
Y293000D01*
X362500D01*
G01X372500Y1638000D02*
X262500D01*
X212500Y1588000D01*
G01X350000Y1650000D02*
Y1696000D01*
X338000D01*
X334000Y1693700D01*
X331000Y1688330D01*
X330000Y1682200D01*
X331000Y1676070D01*
X333500Y1671470D01*
X338000Y1669170D01*
X350000D01*
G01X305000Y1650000D02*
Y1696000D01*
X311000Y1686800D01*
G01Y1650000D02*
X299000D01*
G01X314500Y3105000D02*
Y3151000D01*
X295500D01*
G01X302500Y3128770D02*
X314500D01*
G01X276000Y3151000D02*
X264000D01*
G01X270000D02*
Y3105000D01*
G01X276000D02*
X264000D01*
G01X246000D02*
Y3151000D01*
X236000D01*
X232000Y3148700D01*
X229000Y3145630D01*
X226500Y3141030D01*
X224500Y3135670D01*
X224000Y3128000D01*
X224500Y3120330D01*
X226500Y3114970D01*
X229000Y3110370D01*
X232000Y3107300D01*
X236000Y3105000D01*
X246000D01*
G01X211000Y3151000D02*
Y3118030D01*
X209000Y3111130D01*
X205000Y3106530D01*
X200000Y3105000D01*
X195000Y3106530D01*
X191000Y3111130D01*
X189000Y3118030D01*
Y3151000D01*
G01X174500Y3124170D02*
X171000Y3129530D01*
X168000Y3132600D01*
X164000Y3134130D01*
X160500Y3132600D01*
X158000Y3129530D01*
X156000Y3124930D01*
X155500Y3119570D01*
X156000Y3114970D01*
X158000Y3110370D01*
X161000Y3106530D01*
X164500Y3105000D01*
X168500Y3106530D01*
X172000Y3111130D01*
X174000Y3118030D01*
X174500Y3125700D01*
X173500Y3135670D01*
X172000Y3141030D01*
X169500Y3146400D01*
X166000Y3150230D01*
X162500Y3151000D01*
X159000Y3149470D01*
X156500Y3145630D01*
G01X254000Y3471000D02*
G03X99000Y3316000I-4769J-150231D01*
G03X254000Y3471000I155000J0D01*
G01X532500Y293000D02*
X617500D01*
Y343000D01*
G01X537500Y1638000D02*
X617500D01*
Y1588000D01*
G01X3325500Y343000D02*
Y293000D01*
X3410500D01*
G01X3420500Y1638000D02*
X3310500D01*
X3260500Y1588000D01*
G01X3400000Y1650000D02*
Y1696000D01*
X3388000D01*
X3384000Y1693700D01*
X3381000Y1688330D01*
X3380000Y1682200D01*
X3381000Y1676070D01*
X3383500Y1671470D01*
X3388000Y1669170D01*
X3400000D01*
G01X3364500Y1688330D02*
X3361500Y1692930D01*
X3358000Y1695230D01*
X3354000Y1696000D01*
X3349000Y1694470D01*
X3345500Y1690630D01*
X3344500Y1686030D01*
X3345000Y1681430D01*
X3347000Y1677600D01*
X3357000Y1669930D01*
X3361500Y1664570D01*
X3364500Y1656900D01*
X3365500Y1650000D01*
X3344500D01*
G01X3702500Y3446000D02*
G03X3547500Y3291000I-4769J-150231D01*
G03X3702500Y3446000I155000J0D01*
G01X3580500Y293000D02*
X3665500D01*
Y343000D01*
G01X3879500Y345000D02*
Y391000D01*
X3860500D01*
G01X3867500Y368770D02*
X3879500D01*
G01X3841000Y391000D02*
X3829000D01*
G01X3835000D02*
Y345000D01*
G01X3841000D02*
X3829000D01*
G01X3811000D02*
Y391000D01*
X3801000D01*
X3797000Y388700D01*
X3794000Y385630D01*
X3791500Y381030D01*
X3789500Y375670D01*
X3789000Y368000D01*
X3789500Y360330D01*
X3791500Y354970D01*
X3794000Y350370D01*
X3797000Y347300D01*
X3801000Y345000D01*
X3811000D01*
G01X3776000Y391000D02*
Y358030D01*
X3774000Y351130D01*
X3770000Y346530D01*
X3765000Y345000D01*
X3760000Y346530D01*
X3756000Y351130D01*
X3754000Y358030D01*
Y391000D01*
G01X3741000Y351900D02*
X3738000Y348070D01*
X3734500Y345770D01*
X3730000Y345000D01*
X3725500Y346530D01*
X3722000Y349600D01*
X3719500Y354970D01*
X3719000Y361100D01*
X3720000Y367230D01*
X3722500Y371070D01*
X3726000Y374130D01*
X3729500Y374900D01*
X3733000Y374130D01*
X3737500Y371070D01*
X3736000Y391000D01*
X3722500D01*
G01X3751600Y346800D02*
G03X3596600Y191800I-4769J-150231D01*
G03X3751600Y346800I155000J0D01*
G01X3585500Y1638000D02*
X3665500D01*
Y1588000D01*
G01X3779000Y3084400D02*
Y3130400D01*
X3760000D01*
G01X3767000Y3108170D02*
X3779000D01*
G01X3740500Y3130400D02*
X3728500D01*
G01X3734500D02*
Y3084400D01*
G01X3740500D02*
X3728500D01*
G01X3710500D02*
Y3130400D01*
X3700500D01*
X3696500Y3128100D01*
X3693500Y3125030D01*
X3691000Y3120430D01*
X3689000Y3115070D01*
X3688500Y3107400D01*
X3689000Y3099730D01*
X3691000Y3094370D01*
X3693500Y3089770D01*
X3696500Y3086700D01*
X3700500Y3084400D01*
X3710500D01*
G01X3675500Y3130400D02*
Y3097430D01*
X3673500Y3090530D01*
X3669500Y3085930D01*
X3664500Y3084400D01*
X3659500Y3085930D01*
X3655500Y3090530D01*
X3653500Y3097430D01*
Y3130400D01*
G01X3623500Y3084400D02*
Y3130400D01*
X3642000Y3097430D01*
X3617000D01*
G54D11*
G01X5000Y10000D02*
Y5680000D01*
X3935000D01*
Y10000D01*
X5000D01*
M02*
