G04 ================== begin FILE IDENTIFICATION RECORD ==================*
G04 Layout Name:  CC120xEM_420_470.brd*
G04 Film Name:    silk_top*
G04 File Format:  Gerber RS274X*
G04 File Origin:  Cadence Allegro 16.5-S017*
G04 Origin Date:  Fri Jan 25 12:45:29 2013*
G04 *
G04 Layer:  REF DES/SILKSCREEN_TOP*
G04 Layer:  PACKAGE GEOMETRY/SILKSCREEN_TOP*
G04 Layer:  MANUFACTURING/AUTOSILK_TOP*
G04 Layer:  BOARD GEOMETRY/OUTLINE*
G04 *
G04 Offset:    (0.0000 0.0000)*
G04 Mirror:    No*
G04 Mode:      Positive*
G04 Rotation:  0*
G04 FullContactRelief:  No*
G04 UndefLineWidth:     0.0100*
G04 ================== end FILE IDENTIFICATION RECORD ====================*
%FSLAX25Y25*MOMM*%
%IR0*IPPOS*OFA0.00000B0.00000*MIA0B0*SFA1.00000B1.00000*%
%ADD10C,.1*%
%ADD11C,.15*%
%ADD12C,.003*%
%ADD13C,.03*%
%ADD14C,.05*%
%ADD15C,.01*%
G75*
%LPD*%
G75*
G36*
G01X2047150Y4787460D02*
X2024360D01*
Y4855000D01*
X1930000D01*
Y4713870D01*
X1829790D01*
X1830630Y4710310D01*
X1831490Y4706780D01*
X1832420Y4703290D01*
X1833430Y4699870D01*
X1834560Y4696530D01*
X1835850Y4693310D01*
X1837310Y4690220D01*
X1838980Y4687280D01*
X1840890Y4684520D01*
X1841950Y4683210D01*
X1845500Y4679570D01*
X1848120Y4677310D01*
X1850860Y4675140D01*
X1853650Y4673010D01*
X1856440Y4670850D01*
X1859500Y4668320D01*
X1861740Y4666270D01*
X1864210Y4663810D01*
X1866560Y4661260D01*
X1868830Y4658630D01*
X1871040Y4655950D01*
X1873200Y4653230D01*
X1875350Y4650490D01*
X1876350Y4646920D01*
X1877370Y4643360D01*
X1878400Y4639800D01*
X1879470Y4636250D01*
X1880580Y4632710D01*
X1881740Y4629200D01*
X1882960Y4625700D01*
X1884250Y4622230D01*
X1885630Y4618780D01*
X1887100Y4615370D01*
X1889210Y4610880D01*
X1890350Y4608650D01*
X1892210Y4605410D01*
X1894320Y4602350D01*
X1896760Y4599540D01*
X1899710Y4597000D01*
X1902930Y4595030D01*
X1906570Y4593520D01*
X1910350Y4592650D01*
X1914090Y4592530D01*
X1916940Y4593060D01*
X1920800Y4594910D01*
X1923700Y4597220D01*
X1926370Y4600000D01*
X1928820Y4602960D01*
X1931270Y4606100D01*
X1933640Y4609110D01*
X1936070Y4611970D01*
X1938650Y4614590D01*
X1941450Y4616880D01*
X1944660Y4618800D01*
X1948050Y4620110D01*
X1952590Y4620780D01*
X1955410Y4620530D01*
X1958990Y4619480D01*
X1962400Y4617770D01*
X1966450Y4614840D01*
X1968380Y4613070D01*
X1970900Y4610310D01*
X1973160Y4607370D01*
X1975220Y4604290D01*
X1977140Y4601110D01*
X1978330Y4599000D01*
X1980730Y4594610D01*
X1982440Y4591320D01*
X1984120Y4588020D01*
X1985760Y4584700D01*
X1987360Y4581360D01*
X1988930Y4578010D01*
X1990210Y4575230D01*
X1992020Y4571270D01*
X1993540Y4567890D01*
X1995060Y4564510D01*
X1996590Y4561140D01*
X1998140Y4557770D01*
X1999710Y4554420D01*
X2002100Y4549490D01*
X2002960Y4547770D01*
X2004650Y4544490D01*
X2006410Y4541240D01*
X2008240Y4538030D01*
X2010150Y4534860D01*
X2012150Y4531740D01*
X2014250Y4528670D01*
X2016460Y4525650D01*
X2017940Y4523740D01*
X2021230Y4519810D01*
X2023790Y4517010D01*
X2026450Y4514300D01*
X2029180Y4511700D01*
X2031990Y4509220D01*
X2034850Y4506870D01*
X2037750Y4504670D01*
X2041710Y4501950D01*
X2043630Y4500760D01*
X2046610Y4499060D01*
X2049650Y4497550D01*
X2052780Y4496220D01*
X2056020Y4495060D01*
X2059410Y4494090D01*
X2062970Y4493310D01*
X2066740Y4492700D01*
X2070740Y4492290D01*
X2074990Y4492060D01*
X2081320Y4492050D01*
X2084390Y4492170D01*
X2089370Y4492540D01*
X2094160Y4493190D01*
X2098450Y4494170D01*
X2101910Y4495540D01*
X2104230Y4497330D01*
X2105080Y4499970D01*
X2104290Y4502420D01*
X2102210Y4505610D01*
X2099490Y4508980D01*
X2098050Y4518490D01*
X2096890Y4527880D01*
X2096280Y4537000D01*
X2096510Y4545740D01*
X2097510Y4552550D01*
X2100450Y4561600D01*
X2104270Y4568680D01*
X2109180Y4575250D01*
X2115080Y4581360D01*
X2121860Y4587070D01*
X2129400Y4592420D01*
X2137600Y4597460D01*
X2146360Y4602250D01*
X2155550Y4606840D01*
X2165070Y4611270D01*
X2174800Y4615610D01*
X2184650Y4619890D01*
X2202130D01*
Y4700000D01*
X2184300Y4717830D01*
Y4787460D01*
X2103100D01*
X2093200Y4734710D01*
X2116970D01*
X2111030Y4701140D01*
X2089240D01*
X2075870Y4630590D01*
X2093140Y4630690D01*
Y4602430D01*
G02X2085940Y4593240I-8034J-1121D01*
G01X2030360D01*
G02X2013970Y4606030I-1089J15502D01*
G01Y4614020D01*
X2029560Y4701140D01*
X2006370D01*
X2013570Y4734710D01*
X2038360D01*
X2047150Y4787460D01*
G37*
G36*
G01D02*
X2024360D01*
Y4855000D01*
X1930000D01*
Y4713870D01*
X1829790D01*
X1830630Y4710310D01*
X1831490Y4706780D01*
X1832420Y4703290D01*
X1833430Y4699870D01*
X1834560Y4696530D01*
X1835850Y4693310D01*
X1837310Y4690220D01*
X1838980Y4687280D01*
X1840890Y4684520D01*
X1841950Y4683210D01*
X1845500Y4679570D01*
X1848120Y4677310D01*
X1850860Y4675140D01*
X1853650Y4673010D01*
X1856440Y4670850D01*
X1859500Y4668320D01*
X1861740Y4666270D01*
X1864210Y4663810D01*
X1866560Y4661260D01*
X1868830Y4658630D01*
X1871040Y4655950D01*
X1873200Y4653230D01*
X1875350Y4650490D01*
X1876350Y4646920D01*
X1877370Y4643360D01*
X1878400Y4639800D01*
X1879470Y4636250D01*
X1880580Y4632710D01*
X1881740Y4629200D01*
X1882960Y4625700D01*
X1884250Y4622230D01*
X1885630Y4618780D01*
X1887100Y4615370D01*
X1889210Y4610880D01*
X1890350Y4608650D01*
X1892210Y4605410D01*
X1894320Y4602350D01*
X1896760Y4599540D01*
X1899710Y4597000D01*
X1902930Y4595030D01*
X1906570Y4593520D01*
X1910350Y4592650D01*
X1914090Y4592530D01*
X1916940Y4593060D01*
X1920800Y4594910D01*
X1923700Y4597220D01*
X1926370Y4600000D01*
X1928820Y4602960D01*
X1931270Y4606100D01*
X1933640Y4609110D01*
X1936070Y4611970D01*
X1938650Y4614590D01*
X1941450Y4616880D01*
X1944660Y4618800D01*
X1948050Y4620110D01*
X1952590Y4620780D01*
X1955410Y4620530D01*
X1958990Y4619480D01*
X1962400Y4617770D01*
X1966450Y4614840D01*
X1968380Y4613070D01*
X1970900Y4610310D01*
X1973160Y4607370D01*
X1975220Y4604290D01*
X1977140Y4601110D01*
X1978330Y4599000D01*
X1980730Y4594610D01*
X1982440Y4591320D01*
X1984120Y4588020D01*
X1985760Y4584700D01*
X1987360Y4581360D01*
X1988930Y4578010D01*
X1990210Y4575230D01*
X1992020Y4571270D01*
X1993540Y4567890D01*
X1995060Y4564510D01*
X1996590Y4561140D01*
X1998140Y4557770D01*
X1999710Y4554420D01*
X2002100Y4549490D01*
X2002960Y4547770D01*
X2004650Y4544490D01*
X2006410Y4541240D01*
X2008240Y4538030D01*
X2010150Y4534860D01*
X2012150Y4531740D01*
X2014250Y4528670D01*
X2016460Y4525650D01*
X2017940Y4523740D01*
X2021230Y4519810D01*
X2023790Y4517010D01*
X2026450Y4514300D01*
X2029180Y4511700D01*
X2031990Y4509220D01*
X2034850Y4506870D01*
X2037750Y4504670D01*
X2041710Y4501950D01*
X2043630Y4500760D01*
X2046610Y4499060D01*
X2049650Y4497550D01*
X2052780Y4496220D01*
X2056020Y4495060D01*
X2059410Y4494090D01*
X2062970Y4493310D01*
X2066740Y4492700D01*
X2070740Y4492290D01*
X2074990Y4492060D01*
X2081320Y4492050D01*
X2084390Y4492170D01*
X2089370Y4492540D01*
X2094160Y4493190D01*
X2098450Y4494170D01*
X2101910Y4495540D01*
X2104230Y4497330D01*
X2105080Y4499970D01*
X2104290Y4502420D01*
X2102210Y4505610D01*
X2099490Y4508980D01*
X2098050Y4518490D01*
X2096890Y4527880D01*
X2096280Y4537000D01*
X2096510Y4545740D01*
X2097510Y4552550D01*
X2100450Y4561600D01*
X2104270Y4568680D01*
X2109180Y4575250D01*
X2115080Y4581360D01*
X2121860Y4587070D01*
X2129400Y4592420D01*
X2137600Y4597460D01*
X2146360Y4602250D01*
X2155550Y4606840D01*
X2165070Y4611270D01*
X2174800Y4615610D01*
X2184650Y4619890D01*
X2202130D01*
Y4700000D01*
X2184300Y4717830D01*
Y4787460D01*
X2103100D01*
X2093200Y4734710D01*
X2116970D01*
X2111030Y4701140D01*
X2089240D01*
X2075870Y4630590D01*
X2093140Y4630690D01*
Y4602430D01*
G02X2085940Y4593240I-8034J-1121D01*
G01X2030360D01*
G02X2013970Y4606030I-1089J15502D01*
G01Y4614020D01*
X2029560Y4701140D01*
X2006370D01*
X2013570Y4734710D01*
X2038360D01*
X2047150Y4787460D01*
G37*
G36*
G01X2345170Y4640610D02*
Y4631230D01*
X2293780D01*
Y4640610D01*
X2299490D01*
G03X2304420Y4645540I1J4929D01*
G01Y4759930D01*
G03X2299490Y4764860I-4928J2D01*
G01X2270290D01*
G03X2266810Y4763430I-8J-4931D01*
G01X2253690Y4750360D01*
X2258500Y4781040D01*
X2380450D01*
X2385260Y4750360D01*
X2372140Y4763430D01*
G03X2368660Y4764860I-3472J-3500D01*
G01X2339460D01*
G03X2334530Y4759930I-1J-4929D01*
G01Y4645540D01*
G03X2339460Y4640610I4930J0D01*
G01X2345170D01*
G37*
G36*
G01X2444470Y4706440D02*
X2447330D01*
Y4676830D01*
X2444470D01*
X2440480Y4681920D01*
G03X2437360Y4683430I-3111J-2450D01*
G01X2396890D01*
Y4645120D01*
X2447910D01*
G03X2450770Y4646340I1J3961D01*
G01X2463120Y4659250D01*
X2466540D01*
X2457780Y4633900D01*
G02X2454030Y4631230I-3745J1291D01*
G01X2363370D01*
Y4635480D01*
X2374540Y4641330D01*
G03X2376660Y4644840I-1841J3507D01*
G01Y4733230D01*
G03X2374710Y4736640I-3959J-2D01*
G01X2363370Y4743330D01*
Y4750100D01*
X2449280D01*
G02X2452940Y4747650I-1J-3961D01*
G01X2463690Y4721660D01*
X2457800Y4719230D01*
X2447300Y4730690D01*
G03X2444380Y4731970I-2916J-2681D01*
G01X2396890D01*
Y4701480D01*
X2437700D01*
G03X2440440Y4702580I0J3963D01*
G01X2444470Y4706440D01*
G37*
G36*
G01X2333810Y4472130D02*
G03X2341730Y4464210I7921J1D01*
G01X2345980D01*
Y4455150D01*
X2293780Y4455020D01*
Y4464210D01*
X2298030D01*
G03X2305950Y4472130I-1J7921D01*
G01Y4594910D01*
G03X2298030Y4602840I-7922J8D01*
G01X2293780D01*
Y4609640D01*
X2345170D01*
Y4602840D01*
X2341730D01*
G03X2333810Y4594910I3J-7923D01*
G01Y4472130D01*
G37*
G36*
G01X2352890Y4464210D02*
X2360390D01*
G03X2364360Y4468170I8J3962D01*
G01Y4561150D01*
G03X2360390Y4565110I-3961J-1D01*
G01X2352330D01*
Y4573890D01*
X2388830D01*
G02X2391830Y4572520I4J-3960D01*
G01X2448580Y4506780D01*
Y4560360D01*
G03X2444620Y4564320I-3959J1D01*
G01X2434940D01*
Y4573890D01*
X2474830D01*
Y4564320D01*
X2466430D01*
G03X2462470Y4560360I-1J-3959D01*
G01Y4455150D01*
X2456300D01*
G02X2453310Y4456520I5J3958D01*
G01X2384680Y4536020D01*
Y4468170D01*
G03X2388640Y4464210I3961J1D01*
G01X2394560D01*
Y4455150D01*
X2352890D01*
Y4464210D01*
G37*
G36*
G01X2055570Y4787460D02*
X2023880Y4630690D01*
X2065470D01*
X2097160Y4787460D01*
X2055570D01*
G37*
G36*
G01X2345170Y4640610D02*
Y4631230D01*
X2293780D01*
Y4640610D01*
X2299490D01*
G03X2304420Y4645540I1J4929D01*
G01Y4759930D01*
G03X2299490Y4764860I-4928J2D01*
G01X2270290D01*
G03X2266810Y4763430I-8J-4931D01*
G01X2253690Y4750360D01*
X2258500Y4781040D01*
X2380450D01*
X2385260Y4750360D01*
X2372140Y4763430D01*
G03X2368660Y4764860I-3472J-3500D01*
G01X2339460D01*
G03X2334530Y4759930I-1J-4929D01*
G01Y4645540D01*
G03X2339460Y4640610I4930J0D01*
G01X2345170D01*
G37*
G36*
G01X2444470Y4706440D02*
X2447330D01*
Y4676830D01*
X2444470D01*
X2440480Y4681920D01*
G03X2437360Y4683430I-3111J-2450D01*
G01X2396890D01*
Y4645120D01*
X2447910D01*
G03X2450770Y4646340I1J3961D01*
G01X2463120Y4659250D01*
X2466540D01*
X2457780Y4633900D01*
G02X2454030Y4631230I-3745J1291D01*
G01X2363370D01*
Y4635480D01*
X2374540Y4641330D01*
G03X2376660Y4644840I-1841J3507D01*
G01Y4733230D01*
G03X2374710Y4736640I-3959J-2D01*
G01X2363370Y4743330D01*
Y4750100D01*
X2449280D01*
G02X2452940Y4747650I-1J-3961D01*
G01X2463690Y4721660D01*
X2457800Y4719230D01*
X2447300Y4730690D01*
G03X2444380Y4731970I-2916J-2681D01*
G01X2396890D01*
Y4701480D01*
X2437700D01*
G03X2440440Y4702580I0J3963D01*
G01X2444470Y4706440D01*
G37*
G36*
G01X2333810Y4472130D02*
G03X2341730Y4464210I7921J1D01*
G01X2345980D01*
Y4455150D01*
X2293780Y4455020D01*
Y4464210D01*
X2298030D01*
G03X2305950Y4472130I-1J7921D01*
G01Y4594910D01*
G03X2298030Y4602840I-7922J8D01*
G01X2293780D01*
Y4609640D01*
X2345170D01*
Y4602840D01*
X2341730D01*
G03X2333810Y4594910I3J-7923D01*
G01Y4472130D01*
G37*
G36*
G01X2352890Y4464210D02*
X2360390D01*
G03X2364360Y4468170I8J3962D01*
G01Y4561150D01*
G03X2360390Y4565110I-3961J-1D01*
G01X2352330D01*
Y4573890D01*
X2388830D01*
G02X2391830Y4572520I4J-3960D01*
G01X2448580Y4506780D01*
Y4560360D01*
G03X2444620Y4564320I-3959J1D01*
G01X2434940D01*
Y4573890D01*
X2474830D01*
Y4564320D01*
X2466430D01*
G03X2462470Y4560360I-1J-3959D01*
G01Y4455150D01*
X2456300D01*
G02X2453310Y4456520I5J3958D01*
G01X2384680Y4536020D01*
Y4468170D01*
G03X2388640Y4464210I3961J1D01*
G01X2394560D01*
Y4455150D01*
X2352890D01*
Y4464210D01*
G37*
G36*
G01X2055570Y4787460D02*
X2023880Y4630690D01*
X2065470D01*
X2097160Y4787460D01*
X2055570D01*
G37*
G36*
G01Y4793090D02*
X2064710Y4832870D01*
X2106300D01*
X2097160Y4793090D01*
X2055570D01*
G37*
G36*
G01D02*
X2064710Y4832870D01*
X2106300D01*
X2097160Y4793090D01*
X2055570D01*
G37*
G36*
G01X2645810Y4462560D02*
Y4455150D01*
X2605220D01*
Y4462560D01*
X2609730D01*
G03X2613620Y4466450I-2J3892D01*
G01Y4556820D01*
G03X2609730Y4560720I-3895J5D01*
G01X2586660D01*
G03X2583910Y4559580I4J-3896D01*
G01X2573550Y4549260D01*
X2577350Y4573500D01*
X2673680D01*
X2677480Y4549260D01*
X2667120Y4559580D01*
G03X2664370Y4560720I-2754J-2756D01*
G01X2641300D01*
G03X2637410Y4556820I5J-3895D01*
G01Y4466450D01*
G03X2641300Y4462560I3893J3D01*
G01X2645810D01*
G37*
G36*
G01X2479610Y4735680D02*
X2510380Y4692150D01*
G02X2510400Y4687610I-3234J-2284D01*
G01X2479870Y4643610D01*
G02X2476610Y4641900I-3260J2252D01*
G01X2468880D01*
Y4631230D01*
X2505110D01*
Y4641900D01*
X2498290D01*
X2521260Y4676770D01*
X2545900Y4641900D01*
X2538620D01*
Y4631230D01*
X2579710D01*
Y4641900D01*
X2578510D01*
G02X2575270Y4643600I12J3961D01*
G01X2544450Y4687720D01*
G02X2544360Y4692120I3245J2267D01*
G01X2572090Y4735530D01*
G02X2575430Y4737360I3339J-2131D01*
G01X2584400D01*
Y4750260D01*
X2541720D01*
Y4740980D01*
Y4737360D01*
X2553180D01*
X2532560Y4706050D01*
X2511930Y4737360D01*
X2524540D01*
Y4750260D01*
X2468620D01*
Y4737360D01*
X2476380D01*
G02X2479610Y4735680I-8J-3960D01*
G37*
G36*
G01X2656340Y4631230D02*
Y4641900D01*
X2659740D01*
G03X2663470Y4647200I-2J3964D01*
G01X2635510Y4725400D01*
X2616610Y4676670D01*
X2652310D01*
X2656390Y4665270D01*
X2612150Y4665160D01*
X2605220Y4647300D01*
G03X2608910Y4641900I3693J-1437D01*
G01X2609600D01*
Y4631230D01*
X2582240D01*
Y4641900D01*
X2582780D01*
G03X2586470Y4644440I-7J3961D01*
G01X2627350Y4750260D01*
X2654190D01*
X2692970Y4644500D01*
G03X2696680Y4641900I3720J1361D01*
G01X2701000D01*
Y4631230D01*
X2656340D01*
G37*
G36*
G01X2693960Y4466310D02*
Y4562640D01*
G03X2690000Y4566600I-3960J0D01*
G01X2682690D01*
Y4573290D01*
X2756470D01*
X2758880Y4572940D01*
X2761280Y4572540D01*
X2762470Y4572310D01*
X2763650Y4572040D01*
X2765130Y4571640D01*
X2765980Y4571380D01*
X2767130Y4570980D01*
X2768270Y4570540D01*
X2769390Y4570050D01*
X2770490Y4569510D01*
X2771560Y4568930D01*
X2772620Y4568300D01*
X2773650Y4567630D01*
X2774650Y4566920D01*
X2775620Y4566170D01*
X2776560Y4565370D01*
X2777470Y4564530D01*
X2777980Y4564030D01*
X2779180Y4562730D01*
X2779970Y4561780D01*
X2780720Y4560790D01*
X2781420Y4559770D01*
X2782080Y4558720D01*
X2782680Y4557640D01*
X2783230Y4556540D01*
X2783710Y4555420D01*
X2784140Y4554280D01*
X2784510Y4553130D01*
X2784850Y4551790D01*
X2785040Y4550780D01*
X2785210Y4549600D01*
X2785330Y4548400D01*
X2785410Y4547200D01*
X2785460Y4545990D01*
X2785550Y4541090D01*
X2785590Y4540000D01*
X2785670Y4538620D01*
X2785830Y4536150D01*
X2785880Y4534920D01*
X2785910Y4533700D01*
X2785890Y4532480D01*
X2785810Y4531280D01*
X2785660Y4530090D01*
X2785540Y4529510D01*
X2785410Y4528920D01*
X2785290Y4528510D01*
X2785060Y4527770D01*
X2784840Y4527210D01*
X2784600Y4526650D01*
X2784340Y4526090D01*
X2784050Y4525550D01*
X2783420Y4524480D01*
X2782710Y4523450D01*
X2781940Y4522460D01*
X2781100Y4521520D01*
X2780230Y4520630D01*
X2779310Y4519800D01*
X2778370Y4519030D01*
X2777680Y4518510D01*
X2776440Y4517680D01*
X2775450Y4517090D01*
X2774460Y4516550D01*
X2773450Y4516040D01*
X2772430Y4515560D01*
X2770340Y4514630D01*
X2769270Y4514160D01*
X2768190Y4513670D01*
X2767100Y4513150D01*
X2765980Y4512590D01*
X2764850Y4511990D01*
X2763700Y4511320D01*
X2762540Y4510590D01*
X2761250Y4509700D01*
X2760760Y4509340D01*
X2760480Y4509110D01*
X2760230Y4508880D01*
X2760000Y4508660D01*
X2759820Y4508430D01*
X2759690Y4508210D01*
X2759610Y4507910D01*
X2759620Y4507770D01*
X2759680Y4507570D01*
X2759810Y4507360D01*
X2759990Y4507160D01*
X2760210Y4506970D01*
X2760470Y4506780D01*
X2761080Y4506410D01*
X2762150Y4505820D01*
X2763050Y4505310D01*
X2763650Y4504940D01*
X2764220Y4504580D01*
X2764760Y4504210D01*
X2765270Y4503840D01*
X2765760Y4503460D01*
X2766680Y4502700D01*
X2767530Y4501930D01*
X2768320Y4501130D01*
X2769080Y4500310D01*
X2769950Y4499320D01*
X2770570Y4498590D01*
X2771310Y4497690D01*
X2772060Y4496770D01*
X2772800Y4495810D01*
X2773530Y4494840D01*
X2774960Y4492830D01*
X2775650Y4491800D01*
X2776320Y4490750D01*
X2776970Y4489700D01*
X2777320Y4489110D01*
X2778780Y4486480D01*
X2779910Y4484310D01*
X2781030Y4482170D01*
X2782190Y4480050D01*
X2782810Y4479020D01*
X2783450Y4478000D01*
X2783860Y4477390D01*
X2784830Y4476030D01*
X2785570Y4475080D01*
X2786340Y4474140D01*
X2787140Y4473230D01*
X2787960Y4472330D01*
X2789660Y4470570D01*
X2791800Y4468490D01*
X2793180Y4467200D01*
X2794980Y4465570D01*
X2797470Y4463350D01*
G03X2800110Y4462350I2631J2961D01*
G01X2805070D01*
Y4454940D01*
X2777570D01*
G02X2774630Y4456250I3J3960D01*
G01X2769130Y4462350D01*
X2768220Y4463360D01*
X2767320Y4464370D01*
X2766420Y4465390D01*
X2765530Y4466410D01*
X2764650Y4467450D01*
X2763790Y4468490D01*
X2762950Y4469560D01*
X2762130Y4470640D01*
X2761430Y4471590D01*
X2760570Y4472850D01*
X2759830Y4473990D01*
X2759130Y4475160D01*
X2758450Y4476340D01*
X2757810Y4477530D01*
X2757210Y4478750D01*
X2756640Y4479990D01*
X2756130Y4481170D01*
X2755600Y4482510D01*
X2755120Y4483780D01*
X2754660Y4485060D01*
X2754190Y4486340D01*
X2753710Y4487610D01*
X2753210Y4488860D01*
X2752670Y4490100D01*
X2752360Y4490750D01*
X2751450Y4492490D01*
X2750770Y4493660D01*
X2750060Y4494810D01*
X2749340Y4495960D01*
X2748600Y4497120D01*
X2748090Y4497930D01*
X2747130Y4499460D01*
X2746380Y4500620D01*
X2745590Y4501740D01*
X2744750Y4502810D01*
X2743840Y4503780D01*
X2743080Y4504450D01*
X2741720Y4505390D01*
X2740530Y4506050D01*
X2739300Y4506640D01*
X2738030Y4507210D01*
X2717620D01*
Y4518360D01*
X2741120D01*
X2742490Y4518470D01*
X2743860Y4518600D01*
X2744880Y4518700D01*
X2746600Y4518930D01*
X2747950Y4519180D01*
X2749290Y4519510D01*
X2750010Y4519730D01*
X2751900Y4520500D01*
X2753160Y4521160D01*
X2754370Y4521920D01*
X2755520Y4522770D01*
X2756600Y4523710D01*
X2757610Y4524730D01*
X2758530Y4525810D01*
X2759350Y4526960D01*
X2760060Y4528160D01*
X2760600Y4529290D01*
X2761120Y4530690D01*
X2761470Y4532010D01*
X2761730Y4533350D01*
X2761900Y4534720D01*
X2761990Y4536110D01*
X2762030Y4537510D01*
X2762020Y4538920D01*
X2761970Y4540560D01*
X2761910Y4541760D01*
X2761820Y4543170D01*
X2761690Y4544570D01*
X2761520Y4545950D01*
X2761290Y4547320D01*
X2760990Y4548670D01*
X2760610Y4549990D01*
X2760150Y4551270D01*
X2759590Y4552530D01*
X2759230Y4553200D01*
X2758130Y4554900D01*
X2757250Y4556000D01*
X2756280Y4557020D01*
X2755220Y4557950D01*
X2754090Y4558780D01*
X2752890Y4559480D01*
X2752070Y4559870D01*
X2750340Y4560480D01*
X2749010Y4560800D01*
X2747650Y4561050D01*
X2746270Y4561230D01*
X2744880Y4561400D01*
X2717200D01*
Y4466310D01*
G03X2721160Y4462350I3960J0D01*
G01X2730190D01*
Y4454940D01*
X2682690D01*
Y4462350D01*
X2690000D01*
G03X2693960Y4466310I1J3959D01*
G37*
G36*
G01X2487160Y4456290D02*
X2477200Y4492970D01*
X2481800Y4494100D01*
X2483730Y4491470D01*
X2485680Y4488870D01*
X2487670Y4486340D01*
X2489710Y4483910D01*
X2491830Y4481610D01*
X2494050Y4479470D01*
X2496380Y4477540D01*
X2498840Y4475840D01*
X2501560Y4474350D01*
X2504240Y4473250D01*
X2507170Y4472330D01*
X2510200Y4471570D01*
X2513870Y4470790D01*
X2516440Y4470280D01*
X2519600Y4469710D01*
X2522770Y4469240D01*
X2525930Y4468920D01*
X2529070Y4468810D01*
X2532170Y4468940D01*
X2535230Y4469360D01*
X2538220Y4470140D01*
X2541390Y4471440D01*
X2543930Y4472920D01*
X2546480Y4474930D01*
X2548590Y4477310D01*
X2550460Y4481150D01*
X2550790Y4483000D01*
X2550700Y4486150D01*
X2549910Y4489290D01*
X2548520Y4492280D01*
X2545930Y4495720D01*
X2544350Y4497130D01*
X2541760Y4498840D01*
X2538930Y4500150D01*
X2535950Y4501150D01*
X2531680Y4502190D01*
X2529800Y4502560D01*
X2526740Y4503110D01*
X2523700Y4503590D01*
X2520670Y4504030D01*
X2517640Y4504460D01*
X2514610Y4504910D01*
X2511570Y4505390D01*
X2508530Y4505940D01*
X2505470Y4506580D01*
X2503500Y4507040D01*
X2499320Y4508230D01*
X2496300Y4509300D01*
X2493390Y4510570D01*
X2490660Y4512070D01*
X2488160Y4513820D01*
X2486020Y4515780D01*
X2484070Y4518200D01*
X2482510Y4520800D01*
X2481270Y4523630D01*
X2480310Y4526640D01*
X2479610Y4529790D01*
X2479150Y4533020D01*
X2478890Y4537790D01*
X2478900Y4539600D01*
X2479080Y4542860D01*
X2479480Y4546070D01*
X2480110Y4549190D01*
X2480980Y4552190D01*
X2482120Y4555060D01*
X2483530Y4557760D01*
X2485370Y4560450D01*
X2487220Y4562560D01*
X2489490Y4564630D01*
X2491980Y4566500D01*
X2494660Y4568160D01*
X2497480Y4569620D01*
X2500410Y4570890D01*
X2504800Y4572430D01*
X2506430Y4572900D01*
X2509460Y4573650D01*
X2512500Y4574230D01*
X2515550Y4574650D01*
X2518620Y4574910D01*
X2521640Y4575020D01*
X2524840Y4574980D01*
X2527960Y4574770D01*
X2531050Y4574380D01*
X2534100Y4573780D01*
X2537090Y4572950D01*
X2539450Y4572110D01*
X2542780Y4570580D01*
X2545500Y4569120D01*
X2548200Y4567570D01*
Y4575140D01*
X2556900D01*
X2564650Y4541600D01*
X2561800Y4538770D01*
X2559430Y4540630D01*
X2557050Y4542470D01*
X2554640Y4544250D01*
X2552170Y4545960D01*
X2549650Y4547570D01*
X2546900Y4549120D01*
X2544350Y4550370D01*
X2541570Y4551550D01*
X2538730Y4552560D01*
X2535830Y4553430D01*
X2532900Y4554130D01*
X2529940Y4554690D01*
X2528120Y4554950D01*
X2524020Y4555320D01*
X2521040Y4555370D01*
X2518030Y4555230D01*
X2515490Y4554950D01*
X2511900Y4554250D01*
X2509000Y4553230D01*
X2506430Y4551680D01*
X2505120Y4550420D01*
X2503020Y4546620D01*
X2502350Y4543470D01*
X2502440Y4540300D01*
X2503180Y4537790D01*
X2505050Y4535120D01*
X2507400Y4533290D01*
X2510200Y4531870D01*
X2513270Y4530790D01*
X2516130Y4530030D01*
X2519500Y4529310D01*
X2522510Y4528800D01*
X2525460Y4528370D01*
X2528380Y4527980D01*
X2531270Y4527580D01*
X2534270Y4527110D01*
X2537050Y4526590D01*
X2539950Y4525940D01*
X2542860Y4525210D01*
X2545780Y4524390D01*
X2548520Y4523550D01*
X2551600Y4522520D01*
X2554470Y4521430D01*
X2557240Y4520200D01*
X2559890Y4518780D01*
X2562370Y4517130D01*
X2564390Y4515460D01*
X2566660Y4513040D01*
X2568430Y4510620D01*
X2569960Y4507990D01*
X2571250Y4505210D01*
X2572300Y4502310D01*
X2573130Y4499280D01*
X2573700Y4496350D01*
X2574050Y4493340D01*
X2574170Y4490330D01*
X2574070Y4487320D01*
X2573740Y4484330D01*
X2573130Y4481150D01*
X2572400Y4478430D01*
X2571410Y4475560D01*
X2570200Y4472760D01*
X2568780Y4470070D01*
X2567140Y4467510D01*
X2565310Y4465100D01*
X2563090Y4462700D01*
X2561030Y4460840D01*
X2558620Y4459010D01*
X2556050Y4457370D01*
X2553340Y4455940D01*
X2550520Y4454700D01*
X2547600Y4453660D01*
X2544620Y4452820D01*
X2541580Y4452170D01*
X2538510Y4451710D01*
X2535440Y4451440D01*
X2532000Y4451370D01*
X2529350Y4451480D01*
X2526360Y4451760D01*
X2523400Y4452210D01*
X2520470Y4452800D01*
X2517560Y4453520D01*
X2514680Y4454340D01*
X2511820Y4455270D01*
X2508970Y4456270D01*
X2506130Y4457340D01*
X2503310Y4458450D01*
X2500490Y4459600D01*
X2497670Y4460760D01*
Y4456290D01*
X2487160D01*
G37*
G36*
G01X2709210Y4632510D02*
X2699240Y4669190D01*
X2703850Y4670320D01*
X2705780Y4667690D01*
X2707720Y4665090D01*
X2709710Y4662560D01*
X2711750Y4660130D01*
X2713870Y4657830D01*
X2716090Y4655700D01*
X2718420Y4653760D01*
X2720880Y4652060D01*
X2723600Y4650580D01*
X2726290Y4649470D01*
X2729210Y4648550D01*
X2732240Y4647790D01*
X2735910Y4647020D01*
X2738480Y4646510D01*
X2741640Y4645940D01*
X2744810Y4645470D01*
X2747970Y4645150D01*
X2751110Y4645030D01*
X2754220Y4645160D01*
X2757270Y4645590D01*
X2760260Y4646360D01*
X2763440Y4647660D01*
X2765980Y4649140D01*
X2768520Y4651150D01*
X2770630Y4653530D01*
X2772500Y4657370D01*
X2772840Y4659220D01*
X2772750Y4662370D01*
X2771950Y4665520D01*
X2770560Y4668510D01*
X2767970Y4671940D01*
X2766390Y4673360D01*
X2763800Y4675070D01*
X2760970Y4676380D01*
X2757990Y4677380D01*
X2753720Y4678410D01*
X2751850Y4678790D01*
X2748790Y4679330D01*
X2745740Y4679810D01*
X2742710Y4680260D01*
X2739680Y4680690D01*
X2736650Y4681130D01*
X2733620Y4681610D01*
X2730570Y4682160D01*
X2727510Y4682800D01*
X2725550Y4683270D01*
X2721360Y4684450D01*
X2718340Y4685520D01*
X2715430Y4686790D01*
X2712700Y4688290D01*
X2710200Y4690040D01*
X2708060Y4692010D01*
X2706110Y4694420D01*
X2704560Y4697030D01*
X2703310Y4699860D01*
X2702350Y4702870D01*
X2701650Y4706010D01*
X2701200Y4709250D01*
X2700930Y4714020D01*
X2700940Y4715820D01*
X2701120Y4719090D01*
X2701520Y4722290D01*
X2702150Y4725410D01*
X2703020Y4728420D01*
X2704160Y4731290D01*
X2705570Y4733990D01*
X2707410Y4736680D01*
X2709270Y4738790D01*
X2711530Y4740860D01*
X2714020Y4742720D01*
X2716700Y4744380D01*
X2719520Y4745840D01*
X2722450Y4747120D01*
X2726840Y4748650D01*
X2728470Y4749130D01*
X2731500Y4749870D01*
X2734540Y4750450D01*
X2737590Y4750870D01*
X2740670Y4751130D01*
X2743680Y4751240D01*
X2746880Y4751200D01*
X2750000Y4751000D01*
X2753090Y4750600D01*
X2756150Y4750000D01*
X2759130Y4749180D01*
X2761490Y4748330D01*
X2764820Y4746810D01*
X2767550Y4745340D01*
X2770240Y4743800D01*
Y4751360D01*
X2778940D01*
X2786700Y4717830D01*
X2783840Y4714990D01*
X2781470Y4716850D01*
X2779090Y4718690D01*
X2776680Y4720480D01*
X2774220Y4722190D01*
X2771690Y4723790D01*
X2768940Y4725350D01*
X2766390Y4726600D01*
X2763610Y4727770D01*
X2760770Y4728790D01*
X2757870Y4729650D01*
X2754940Y4730360D01*
X2751990Y4730910D01*
X2750160Y4731170D01*
X2746060Y4731540D01*
X2743080Y4731600D01*
X2740070Y4731460D01*
X2737530Y4731170D01*
X2733950Y4730470D01*
X2731040Y4729460D01*
X2728470Y4727900D01*
X2727160Y4726640D01*
X2725060Y4722850D01*
X2724390Y4719690D01*
X2724480Y4716530D01*
X2725220Y4714020D01*
X2727090Y4711350D01*
X2729440Y4709520D01*
X2732240Y4708100D01*
X2735310Y4707010D01*
X2738180Y4706250D01*
X2741540Y4705540D01*
X2744550Y4705020D01*
X2747510Y4704600D01*
X2750420Y4704210D01*
X2753310Y4703810D01*
X2756310Y4703340D01*
X2759090Y4702810D01*
X2761990Y4702170D01*
X2764900Y4701440D01*
X2767820Y4700620D01*
X2770560Y4699780D01*
X2773640Y4698750D01*
X2776510Y4697660D01*
X2779290Y4696420D01*
X2781930Y4695000D01*
X2784410Y4693360D01*
X2786430Y4691680D01*
X2788700Y4689270D01*
X2790470Y4686840D01*
X2792000Y4684210D01*
X2793290Y4681430D01*
X2794340Y4678530D01*
X2795170Y4675500D01*
X2795740Y4672580D01*
X2796090Y4669570D01*
X2796210Y4666560D01*
X2796110Y4663550D01*
X2795780Y4660560D01*
X2795170Y4657370D01*
X2794450Y4654660D01*
X2793450Y4651780D01*
X2792240Y4648990D01*
X2790820Y4646300D01*
X2789190Y4643740D01*
X2787350Y4641330D01*
X2785130Y4638920D01*
X2783070Y4637060D01*
X2780660Y4635230D01*
X2778090Y4633600D01*
X2775380Y4632160D01*
X2772560Y4630930D01*
X2769640Y4629890D01*
X2766660Y4629040D01*
X2763620Y4628390D01*
X2760550Y4627930D01*
X2757480Y4627670D01*
X2754040Y4627600D01*
X2751390Y4627700D01*
X2748400Y4627990D01*
X2745440Y4628430D01*
X2742510Y4629020D01*
X2739610Y4629740D01*
X2736720Y4630570D01*
X2733860Y4631490D01*
X2731010Y4632490D01*
X2728180Y4633560D01*
X2725350Y4634670D01*
X2722530Y4635820D01*
X2719720Y4636980D01*
Y4632510D01*
X2709210D01*
G37*
G36*
G01X2645810Y4462560D02*
Y4455150D01*
X2605220D01*
Y4462560D01*
X2609730D01*
G03X2613620Y4466450I-2J3892D01*
G01Y4556820D01*
G03X2609730Y4560720I-3895J5D01*
G01X2586660D01*
G03X2583910Y4559580I4J-3896D01*
G01X2573550Y4549260D01*
X2577350Y4573500D01*
X2673680D01*
X2677480Y4549260D01*
X2667120Y4559580D01*
G03X2664370Y4560720I-2754J-2756D01*
G01X2641300D01*
G03X2637410Y4556820I5J-3895D01*
G01Y4466450D01*
G03X2641300Y4462560I3893J3D01*
G01X2645810D01*
G37*
G36*
G01X2479610Y4735680D02*
X2510380Y4692150D01*
G02X2510400Y4687610I-3234J-2284D01*
G01X2479870Y4643610D01*
G02X2476610Y4641900I-3260J2252D01*
G01X2468880D01*
Y4631230D01*
X2505110D01*
Y4641900D01*
X2498290D01*
X2521260Y4676770D01*
X2545900Y4641900D01*
X2538620D01*
Y4631230D01*
X2579710D01*
Y4641900D01*
X2578510D01*
G02X2575270Y4643600I12J3961D01*
G01X2544450Y4687720D01*
G02X2544360Y4692120I3245J2267D01*
G01X2572090Y4735530D01*
G02X2575430Y4737360I3339J-2131D01*
G01X2584400D01*
Y4750260D01*
X2541720D01*
Y4740980D01*
Y4737360D01*
X2553180D01*
X2532560Y4706050D01*
X2511930Y4737360D01*
X2524540D01*
Y4750260D01*
X2468620D01*
Y4737360D01*
X2476380D01*
G02X2479610Y4735680I-8J-3960D01*
G37*
G36*
G01X2656340Y4631230D02*
Y4641900D01*
X2659740D01*
G03X2663470Y4647200I-2J3964D01*
G01X2635510Y4725400D01*
X2616610Y4676670D01*
X2652310D01*
X2656390Y4665270D01*
X2612150Y4665160D01*
X2605220Y4647300D01*
G03X2608910Y4641900I3693J-1437D01*
G01X2609600D01*
Y4631230D01*
X2582240D01*
Y4641900D01*
X2582780D01*
G03X2586470Y4644440I-7J3961D01*
G01X2627350Y4750260D01*
X2654190D01*
X2692970Y4644500D01*
G03X2696680Y4641900I3720J1361D01*
G01X2701000D01*
Y4631230D01*
X2656340D01*
G37*
G36*
G01X2693960Y4466310D02*
Y4562640D01*
G03X2690000Y4566600I-3960J0D01*
G01X2682690D01*
Y4573290D01*
X2756470D01*
X2758880Y4572940D01*
X2761280Y4572540D01*
X2762470Y4572310D01*
X2763650Y4572040D01*
X2765130Y4571640D01*
X2765980Y4571380D01*
X2767130Y4570980D01*
X2768270Y4570540D01*
X2769390Y4570050D01*
X2770490Y4569510D01*
X2771560Y4568930D01*
X2772620Y4568300D01*
X2773650Y4567630D01*
X2774650Y4566920D01*
X2775620Y4566170D01*
X2776560Y4565370D01*
X2777470Y4564530D01*
X2777980Y4564030D01*
X2779180Y4562730D01*
X2779970Y4561780D01*
X2780720Y4560790D01*
X2781420Y4559770D01*
X2782080Y4558720D01*
X2782680Y4557640D01*
X2783230Y4556540D01*
X2783710Y4555420D01*
X2784140Y4554280D01*
X2784510Y4553130D01*
X2784850Y4551790D01*
X2785040Y4550780D01*
X2785210Y4549600D01*
X2785330Y4548400D01*
X2785410Y4547200D01*
X2785460Y4545990D01*
X2785550Y4541090D01*
X2785590Y4540000D01*
X2785670Y4538620D01*
X2785830Y4536150D01*
X2785880Y4534920D01*
X2785910Y4533700D01*
X2785890Y4532480D01*
X2785810Y4531280D01*
X2785660Y4530090D01*
X2785540Y4529510D01*
X2785410Y4528920D01*
X2785290Y4528510D01*
X2785060Y4527770D01*
X2784840Y4527210D01*
X2784600Y4526650D01*
X2784340Y4526090D01*
X2784050Y4525550D01*
X2783420Y4524480D01*
X2782710Y4523450D01*
X2781940Y4522460D01*
X2781100Y4521520D01*
X2780230Y4520630D01*
X2779310Y4519800D01*
X2778370Y4519030D01*
X2777680Y4518510D01*
X2776440Y4517680D01*
X2775450Y4517090D01*
X2774460Y4516550D01*
X2773450Y4516040D01*
X2772430Y4515560D01*
X2770340Y4514630D01*
X2769270Y4514160D01*
X2768190Y4513670D01*
X2767100Y4513150D01*
X2765980Y4512590D01*
X2764850Y4511990D01*
X2763700Y4511320D01*
X2762540Y4510590D01*
X2761250Y4509700D01*
X2760760Y4509340D01*
X2760480Y4509110D01*
X2760230Y4508880D01*
X2760000Y4508660D01*
X2759820Y4508430D01*
X2759690Y4508210D01*
X2759610Y4507910D01*
X2759620Y4507770D01*
X2759680Y4507570D01*
X2759810Y4507360D01*
X2759990Y4507160D01*
X2760210Y4506970D01*
X2760470Y4506780D01*
X2761080Y4506410D01*
X2762150Y4505820D01*
X2763050Y4505310D01*
X2763650Y4504940D01*
X2764220Y4504580D01*
X2764760Y4504210D01*
X2765270Y4503840D01*
X2765760Y4503460D01*
X2766680Y4502700D01*
X2767530Y4501930D01*
X2768320Y4501130D01*
X2769080Y4500310D01*
X2769950Y4499320D01*
X2770570Y4498590D01*
X2771310Y4497690D01*
X2772060Y4496770D01*
X2772800Y4495810D01*
X2773530Y4494840D01*
X2774960Y4492830D01*
X2775650Y4491800D01*
X2776320Y4490750D01*
X2776970Y4489700D01*
X2777320Y4489110D01*
X2778780Y4486480D01*
X2779910Y4484310D01*
X2781030Y4482170D01*
X2782190Y4480050D01*
X2782810Y4479020D01*
X2783450Y4478000D01*
X2783860Y4477390D01*
X2784830Y4476030D01*
X2785570Y4475080D01*
X2786340Y4474140D01*
X2787140Y4473230D01*
X2787960Y4472330D01*
X2789660Y4470570D01*
X2791800Y4468490D01*
X2793180Y4467200D01*
X2794980Y4465570D01*
X2797470Y4463350D01*
G03X2800110Y4462350I2631J2961D01*
G01X2805070D01*
Y4454940D01*
X2777570D01*
G02X2774630Y4456250I3J3960D01*
G01X2769130Y4462350D01*
X2768220Y4463360D01*
X2767320Y4464370D01*
X2766420Y4465390D01*
X2765530Y4466410D01*
X2764650Y4467450D01*
X2763790Y4468490D01*
X2762950Y4469560D01*
X2762130Y4470640D01*
X2761430Y4471590D01*
X2760570Y4472850D01*
X2759830Y4473990D01*
X2759130Y4475160D01*
X2758450Y4476340D01*
X2757810Y4477530D01*
X2757210Y4478750D01*
X2756640Y4479990D01*
X2756130Y4481170D01*
X2755600Y4482510D01*
X2755120Y4483780D01*
X2754660Y4485060D01*
X2754190Y4486340D01*
X2753710Y4487610D01*
X2753210Y4488860D01*
X2752670Y4490100D01*
X2752360Y4490750D01*
X2751450Y4492490D01*
X2750770Y4493660D01*
X2750060Y4494810D01*
X2749340Y4495960D01*
X2748600Y4497120D01*
X2748090Y4497930D01*
X2747130Y4499460D01*
X2746380Y4500620D01*
X2745590Y4501740D01*
X2744750Y4502810D01*
X2743840Y4503780D01*
X2743080Y4504450D01*
X2741720Y4505390D01*
X2740530Y4506050D01*
X2739300Y4506640D01*
X2738030Y4507210D01*
X2717620D01*
Y4518360D01*
X2741120D01*
X2742490Y4518470D01*
X2743860Y4518600D01*
X2744880Y4518700D01*
X2746600Y4518930D01*
X2747950Y4519180D01*
X2749290Y4519510D01*
X2750010Y4519730D01*
X2751900Y4520500D01*
X2753160Y4521160D01*
X2754370Y4521920D01*
X2755520Y4522770D01*
X2756600Y4523710D01*
X2757610Y4524730D01*
X2758530Y4525810D01*
X2759350Y4526960D01*
X2760060Y4528160D01*
X2760600Y4529290D01*
X2761120Y4530690D01*
X2761470Y4532010D01*
X2761730Y4533350D01*
X2761900Y4534720D01*
X2761990Y4536110D01*
X2762030Y4537510D01*
X2762020Y4538920D01*
X2761970Y4540560D01*
X2761910Y4541760D01*
X2761820Y4543170D01*
X2761690Y4544570D01*
X2761520Y4545950D01*
X2761290Y4547320D01*
X2760990Y4548670D01*
X2760610Y4549990D01*
X2760150Y4551270D01*
X2759590Y4552530D01*
X2759230Y4553200D01*
X2758130Y4554900D01*
X2757250Y4556000D01*
X2756280Y4557020D01*
X2755220Y4557950D01*
X2754090Y4558780D01*
X2752890Y4559480D01*
X2752070Y4559870D01*
X2750340Y4560480D01*
X2749010Y4560800D01*
X2747650Y4561050D01*
X2746270Y4561230D01*
X2744880Y4561400D01*
X2717200D01*
Y4466310D01*
G03X2721160Y4462350I3960J0D01*
G01X2730190D01*
Y4454940D01*
X2682690D01*
Y4462350D01*
X2690000D01*
G03X2693960Y4466310I1J3959D01*
G37*
G36*
G01X2487160Y4456290D02*
X2477200Y4492970D01*
X2481800Y4494100D01*
X2483730Y4491470D01*
X2485680Y4488870D01*
X2487670Y4486340D01*
X2489710Y4483910D01*
X2491830Y4481610D01*
X2494050Y4479470D01*
X2496380Y4477540D01*
X2498840Y4475840D01*
X2501560Y4474350D01*
X2504240Y4473250D01*
X2507170Y4472330D01*
X2510200Y4471570D01*
X2513870Y4470790D01*
X2516440Y4470280D01*
X2519600Y4469710D01*
X2522770Y4469240D01*
X2525930Y4468920D01*
X2529070Y4468810D01*
X2532170Y4468940D01*
X2535230Y4469360D01*
X2538220Y4470140D01*
X2541390Y4471440D01*
X2543930Y4472920D01*
X2546480Y4474930D01*
X2548590Y4477310D01*
X2550460Y4481150D01*
X2550790Y4483000D01*
X2550700Y4486150D01*
X2549910Y4489290D01*
X2548520Y4492280D01*
X2545930Y4495720D01*
X2544350Y4497130D01*
X2541760Y4498840D01*
X2538930Y4500150D01*
X2535950Y4501150D01*
X2531680Y4502190D01*
X2529800Y4502560D01*
X2526740Y4503110D01*
X2523700Y4503590D01*
X2520670Y4504030D01*
X2517640Y4504460D01*
X2514610Y4504910D01*
X2511570Y4505390D01*
X2508530Y4505940D01*
X2505470Y4506580D01*
X2503500Y4507040D01*
X2499320Y4508230D01*
X2496300Y4509300D01*
X2493390Y4510570D01*
X2490660Y4512070D01*
X2488160Y4513820D01*
X2486020Y4515780D01*
X2484070Y4518200D01*
X2482510Y4520800D01*
X2481270Y4523630D01*
X2480310Y4526640D01*
X2479610Y4529790D01*
X2479150Y4533020D01*
X2478890Y4537790D01*
X2478900Y4539600D01*
X2479080Y4542860D01*
X2479480Y4546070D01*
X2480110Y4549190D01*
X2480980Y4552190D01*
X2482120Y4555060D01*
X2483530Y4557760D01*
X2485370Y4560450D01*
X2487220Y4562560D01*
X2489490Y4564630D01*
X2491980Y4566500D01*
X2494660Y4568160D01*
X2497480Y4569620D01*
X2500410Y4570890D01*
X2504800Y4572430D01*
X2506430Y4572900D01*
X2509460Y4573650D01*
X2512500Y4574230D01*
X2515550Y4574650D01*
X2518620Y4574910D01*
X2521640Y4575020D01*
X2524840Y4574980D01*
X2527960Y4574770D01*
X2531050Y4574380D01*
X2534100Y4573780D01*
X2537090Y4572950D01*
X2539450Y4572110D01*
X2542780Y4570580D01*
X2545500Y4569120D01*
X2548200Y4567570D01*
Y4575140D01*
X2556900D01*
X2564650Y4541600D01*
X2561800Y4538770D01*
X2559430Y4540630D01*
X2557050Y4542470D01*
X2554640Y4544250D01*
X2552170Y4545960D01*
X2549650Y4547570D01*
X2546900Y4549120D01*
X2544350Y4550370D01*
X2541570Y4551550D01*
X2538730Y4552560D01*
X2535830Y4553430D01*
X2532900Y4554130D01*
X2529940Y4554690D01*
X2528120Y4554950D01*
X2524020Y4555320D01*
X2521040Y4555370D01*
X2518030Y4555230D01*
X2515490Y4554950D01*
X2511900Y4554250D01*
X2509000Y4553230D01*
X2506430Y4551680D01*
X2505120Y4550420D01*
X2503020Y4546620D01*
X2502350Y4543470D01*
X2502440Y4540300D01*
X2503180Y4537790D01*
X2505050Y4535120D01*
X2507400Y4533290D01*
X2510200Y4531870D01*
X2513270Y4530790D01*
X2516130Y4530030D01*
X2519500Y4529310D01*
X2522510Y4528800D01*
X2525460Y4528370D01*
X2528380Y4527980D01*
X2531270Y4527580D01*
X2534270Y4527110D01*
X2537050Y4526590D01*
X2539950Y4525940D01*
X2542860Y4525210D01*
X2545780Y4524390D01*
X2548520Y4523550D01*
X2551600Y4522520D01*
X2554470Y4521430D01*
X2557240Y4520200D01*
X2559890Y4518780D01*
X2562370Y4517130D01*
X2564390Y4515460D01*
X2566660Y4513040D01*
X2568430Y4510620D01*
X2569960Y4507990D01*
X2571250Y4505210D01*
X2572300Y4502310D01*
X2573130Y4499280D01*
X2573700Y4496350D01*
X2574050Y4493340D01*
X2574170Y4490330D01*
X2574070Y4487320D01*
X2573740Y4484330D01*
X2573130Y4481150D01*
X2572400Y4478430D01*
X2571410Y4475560D01*
X2570200Y4472760D01*
X2568780Y4470070D01*
X2567140Y4467510D01*
X2565310Y4465100D01*
X2563090Y4462700D01*
X2561030Y4460840D01*
X2558620Y4459010D01*
X2556050Y4457370D01*
X2553340Y4455940D01*
X2550520Y4454700D01*
X2547600Y4453660D01*
X2544620Y4452820D01*
X2541580Y4452170D01*
X2538510Y4451710D01*
X2535440Y4451440D01*
X2532000Y4451370D01*
X2529350Y4451480D01*
X2526360Y4451760D01*
X2523400Y4452210D01*
X2520470Y4452800D01*
X2517560Y4453520D01*
X2514680Y4454340D01*
X2511820Y4455270D01*
X2508970Y4456270D01*
X2506130Y4457340D01*
X2503310Y4458450D01*
X2500490Y4459600D01*
X2497670Y4460760D01*
Y4456290D01*
X2487160D01*
G37*
G36*
G01X2709210Y4632510D02*
X2699240Y4669190D01*
X2703850Y4670320D01*
X2705780Y4667690D01*
X2707720Y4665090D01*
X2709710Y4662560D01*
X2711750Y4660130D01*
X2713870Y4657830D01*
X2716090Y4655700D01*
X2718420Y4653760D01*
X2720880Y4652060D01*
X2723600Y4650580D01*
X2726290Y4649470D01*
X2729210Y4648550D01*
X2732240Y4647790D01*
X2735910Y4647020D01*
X2738480Y4646510D01*
X2741640Y4645940D01*
X2744810Y4645470D01*
X2747970Y4645150D01*
X2751110Y4645030D01*
X2754220Y4645160D01*
X2757270Y4645590D01*
X2760260Y4646360D01*
X2763440Y4647660D01*
X2765980Y4649140D01*
X2768520Y4651150D01*
X2770630Y4653530D01*
X2772500Y4657370D01*
X2772840Y4659220D01*
X2772750Y4662370D01*
X2771950Y4665520D01*
X2770560Y4668510D01*
X2767970Y4671940D01*
X2766390Y4673360D01*
X2763800Y4675070D01*
X2760970Y4676380D01*
X2757990Y4677380D01*
X2753720Y4678410D01*
X2751850Y4678790D01*
X2748790Y4679330D01*
X2745740Y4679810D01*
X2742710Y4680260D01*
X2739680Y4680690D01*
X2736650Y4681130D01*
X2733620Y4681610D01*
X2730570Y4682160D01*
X2727510Y4682800D01*
X2725550Y4683270D01*
X2721360Y4684450D01*
X2718340Y4685520D01*
X2715430Y4686790D01*
X2712700Y4688290D01*
X2710200Y4690040D01*
X2708060Y4692010D01*
X2706110Y4694420D01*
X2704560Y4697030D01*
X2703310Y4699860D01*
X2702350Y4702870D01*
X2701650Y4706010D01*
X2701200Y4709250D01*
X2700930Y4714020D01*
X2700940Y4715820D01*
X2701120Y4719090D01*
X2701520Y4722290D01*
X2702150Y4725410D01*
X2703020Y4728420D01*
X2704160Y4731290D01*
X2705570Y4733990D01*
X2707410Y4736680D01*
X2709270Y4738790D01*
X2711530Y4740860D01*
X2714020Y4742720D01*
X2716700Y4744380D01*
X2719520Y4745840D01*
X2722450Y4747120D01*
X2726840Y4748650D01*
X2728470Y4749130D01*
X2731500Y4749870D01*
X2734540Y4750450D01*
X2737590Y4750870D01*
X2740670Y4751130D01*
X2743680Y4751240D01*
X2746880Y4751200D01*
X2750000Y4751000D01*
X2753090Y4750600D01*
X2756150Y4750000D01*
X2759130Y4749180D01*
X2761490Y4748330D01*
X2764820Y4746810D01*
X2767550Y4745340D01*
X2770240Y4743800D01*
Y4751360D01*
X2778940D01*
X2786700Y4717830D01*
X2783840Y4714990D01*
X2781470Y4716850D01*
X2779090Y4718690D01*
X2776680Y4720480D01*
X2774220Y4722190D01*
X2771690Y4723790D01*
X2768940Y4725350D01*
X2766390Y4726600D01*
X2763610Y4727770D01*
X2760770Y4728790D01*
X2757870Y4729650D01*
X2754940Y4730360D01*
X2751990Y4730910D01*
X2750160Y4731170D01*
X2746060Y4731540D01*
X2743080Y4731600D01*
X2740070Y4731460D01*
X2737530Y4731170D01*
X2733950Y4730470D01*
X2731040Y4729460D01*
X2728470Y4727900D01*
X2727160Y4726640D01*
X2725060Y4722850D01*
X2724390Y4719690D01*
X2724480Y4716530D01*
X2725220Y4714020D01*
X2727090Y4711350D01*
X2729440Y4709520D01*
X2732240Y4708100D01*
X2735310Y4707010D01*
X2738180Y4706250D01*
X2741540Y4705540D01*
X2744550Y4705020D01*
X2747510Y4704600D01*
X2750420Y4704210D01*
X2753310Y4703810D01*
X2756310Y4703340D01*
X2759090Y4702810D01*
X2761990Y4702170D01*
X2764900Y4701440D01*
X2767820Y4700620D01*
X2770560Y4699780D01*
X2773640Y4698750D01*
X2776510Y4697660D01*
X2779290Y4696420D01*
X2781930Y4695000D01*
X2784410Y4693360D01*
X2786430Y4691680D01*
X2788700Y4689270D01*
X2790470Y4686840D01*
X2792000Y4684210D01*
X2793290Y4681430D01*
X2794340Y4678530D01*
X2795170Y4675500D01*
X2795740Y4672580D01*
X2796090Y4669570D01*
X2796210Y4666560D01*
X2796110Y4663550D01*
X2795780Y4660560D01*
X2795170Y4657370D01*
X2794450Y4654660D01*
X2793450Y4651780D01*
X2792240Y4648990D01*
X2790820Y4646300D01*
X2789190Y4643740D01*
X2787350Y4641330D01*
X2785130Y4638920D01*
X2783070Y4637060D01*
X2780660Y4635230D01*
X2778090Y4633600D01*
X2775380Y4632160D01*
X2772560Y4630930D01*
X2769640Y4629890D01*
X2766660Y4629040D01*
X2763620Y4628390D01*
X2760550Y4627930D01*
X2757480Y4627670D01*
X2754040Y4627600D01*
X2751390Y4627700D01*
X2748400Y4627990D01*
X2745440Y4628430D01*
X2742510Y4629020D01*
X2739610Y4629740D01*
X2736720Y4630570D01*
X2733860Y4631490D01*
X2731010Y4632490D01*
X2728180Y4633560D01*
X2725350Y4634670D01*
X2722530Y4635820D01*
X2719720Y4636980D01*
Y4632510D01*
X2709210D01*
G37*
G36*
G01X3370000Y2847890D02*
Y2919430D01*
G03Y2420000I-11915J-249715D01*
G01Y2491540D01*
G02Y2847890I-11900J178175D01*
G37*
G36*
G01D02*
Y2919430D01*
G03Y2420000I-11915J-249715D01*
G01Y2491540D01*
G02Y2847890I-11900J178175D01*
G37*
G36*
G01X2834150Y4455180D02*
X2888470D01*
G03X2908680Y4477180I-2071J22185D01*
G01Y4562640D01*
G02X2912640Y4566600I3960J0D01*
G01X2918510D01*
Y4573870D01*
X2880020D01*
Y4566600D01*
X2888230D01*
G02X2892190Y4562640I-2J-3962D01*
G01Y4483460D01*
G02X2873310Y4468860I-17976J3738D01*
G01X2851610D01*
G02X2834470Y4483460I475J17918D01*
G01Y4562640D01*
G02X2838430Y4566600I3962J-2D01*
G01X2847040D01*
Y4573870D01*
X2794820D01*
Y4566600D01*
X2804990D01*
G02X2808950Y4562640I0J-3960D01*
G01Y4486380D01*
G03X2834150Y4455180I32235J259D01*
G37*
G36*
G01X2924460Y4455000D02*
X2961900D01*
Y4464210D01*
X2953770D01*
G02X2949800Y4468170I-8J3962D01*
G01Y4543780D01*
X2993640Y4455000D01*
X3035650Y4542410D01*
Y4468170D01*
G02X3031690Y4464210I-3962J2D01*
G01X3027120D01*
Y4455150D01*
X3072410D01*
Y4464210D01*
X3070660D01*
G02X3066700Y4468170I0J3960D01*
G01Y4563140D01*
G02X3070660Y4567100I3960J0D01*
G01X3074690D01*
Y4573870D01*
X3035740D01*
G03X3032100Y4571490I-8J-3962D01*
G01X3001630Y4501110D01*
X2969130Y4571570D01*
G03X2965530Y4573870I-3595J-1660D01*
G01X2924460D01*
Y4566600D01*
X2933740D01*
G02X2937700Y4562640I0J-3960D01*
G01Y4468170D01*
G02X2933740Y4464210I-3960J0D01*
G01X2924460D01*
Y4455000D01*
G37*
G36*
G01X3163990Y4530210D02*
X3166860D01*
Y4500600D01*
X3163990D01*
X3160010Y4505690D01*
G03X3156890Y4507210I-3121J-2443D01*
G01X3116420D01*
Y4468890D01*
X3167440D01*
G03X3170300Y4470110I0J3963D01*
G01X3182650Y4483030D01*
X3186070D01*
X3177300Y4457670D01*
G02X3173560Y4455000I-3744J1290D01*
G01X3082890D01*
Y4459250D01*
X3094070Y4465110D01*
G03X3096190Y4468610I-1840J3506D01*
G01Y4557000D01*
G03X3094240Y4560410I-3960J-2D01*
G01X3082890Y4567100D01*
Y4573870D01*
X3168810D01*
G02X3172470Y4571430I2J-3962D01*
G01X3183220Y4545430D01*
X3177330Y4543000D01*
X3166820Y4554460D01*
G03X3163900Y4555750I-2925J-2671D01*
G01X3116420D01*
Y4525260D01*
X3157230D01*
G03X3159970Y4526360I1J3959D01*
G01X3163990Y4530210D01*
G37*
G36*
G01X2834150Y4455180D02*
X2888470D01*
G03X2908680Y4477180I-2071J22185D01*
G01Y4562640D01*
G02X2912640Y4566600I3960J0D01*
G01X2918510D01*
Y4573870D01*
X2880020D01*
Y4566600D01*
X2888230D01*
G02X2892190Y4562640I-2J-3962D01*
G01Y4483460D01*
G02X2873310Y4468860I-17976J3738D01*
G01X2851610D01*
G02X2834470Y4483460I475J17918D01*
G01Y4562640D01*
G02X2838430Y4566600I3962J-2D01*
G01X2847040D01*
Y4573870D01*
X2794820D01*
Y4566600D01*
X2804990D01*
G02X2808950Y4562640I0J-3960D01*
G01Y4486380D01*
G03X2834150Y4455180I32235J259D01*
G37*
G36*
G01X2924460Y4455000D02*
X2961900D01*
Y4464210D01*
X2953770D01*
G02X2949800Y4468170I-8J3962D01*
G01Y4543780D01*
X2993640Y4455000D01*
X3035650Y4542410D01*
Y4468170D01*
G02X3031690Y4464210I-3962J2D01*
G01X3027120D01*
Y4455150D01*
X3072410D01*
Y4464210D01*
X3070660D01*
G02X3066700Y4468170I0J3960D01*
G01Y4563140D01*
G02X3070660Y4567100I3960J0D01*
G01X3074690D01*
Y4573870D01*
X3035740D01*
G03X3032100Y4571490I-8J-3962D01*
G01X3001630Y4501110D01*
X2969130Y4571570D01*
G03X2965530Y4573870I-3595J-1660D01*
G01X2924460D01*
Y4566600D01*
X2933740D01*
G02X2937700Y4562640I0J-3960D01*
G01Y4468170D01*
G02X2933740Y4464210I-3960J0D01*
G01X2924460D01*
Y4455000D01*
G37*
G36*
G01X3163990Y4530210D02*
X3166860D01*
Y4500600D01*
X3163990D01*
X3160010Y4505690D01*
G03X3156890Y4507210I-3121J-2443D01*
G01X3116420D01*
Y4468890D01*
X3167440D01*
G03X3170300Y4470110I0J3963D01*
G01X3182650Y4483030D01*
X3186070D01*
X3177300Y4457670D01*
G02X3173560Y4455000I-3744J1290D01*
G01X3082890D01*
Y4459250D01*
X3094070Y4465110D01*
G03X3096190Y4468610I-1840J3506D01*
G01Y4557000D01*
G03X3094240Y4560410I-3960J-2D01*
G01X3082890Y4567100D01*
Y4573870D01*
X3168810D01*
G02X3172470Y4571430I2J-3962D01*
G01X3183220Y4545430D01*
X3177330Y4543000D01*
X3166820Y4554460D01*
G03X3163900Y4555750I-2925J-2671D01*
G01X3116420D01*
Y4525260D01*
X3157230D01*
G03X3159970Y4526360I1J3959D01*
G01X3163990Y4530210D01*
G37*
G36*
G01X3750950Y2645950D02*
Y2717380D01*
X3614570D01*
G02X3798570Y2847890I172093J-47665D01*
G01Y2919430D01*
G03Y2420000I-11914J-249715D01*
G01Y2491540D01*
G02X3609660Y2646140I-11901J178175D01*
G01X3750950Y2645950D01*
G37*
G36*
G01D02*
Y2717380D01*
X3614570D01*
G02X3798570Y2847890I172093J-47665D01*
G01Y2919430D01*
G03Y2420000I-11914J-249715D01*
G01Y2491540D01*
G02X3609660Y2646140I-11901J178175D01*
G01X3750950Y2645950D01*
G37*
G36*
G01X3384680Y4462560D02*
Y4455150D01*
X3344080D01*
Y4462560D01*
X3348590D01*
G03X3352490Y4466450I6J3894D01*
G01Y4556820D01*
G03X3348590Y4560720I-3897J3D01*
G01X3325530D01*
G03X3322780Y4559580I3J-3894D01*
G01X3312410Y4549260D01*
X3316210Y4573500D01*
X3412550D01*
X3416350Y4549260D01*
X3405980Y4559580D01*
G03X3403230Y4560720I-2753J-2755D01*
G01X3380170D01*
G03X3376270Y4556820I-4J-3896D01*
G01Y4466450D01*
G03X3380170Y4462560I3894J4D01*
G01X3384680D01*
G37*
G36*
G01X3187740Y4464210D02*
X3195250D01*
G03X3199210Y4468170I-2J3962D01*
G01Y4561150D01*
G03X3195250Y4565110I-3960J0D01*
G01X3187180D01*
Y4573890D01*
X3223680D01*
G02X3226680Y4572520I5J-3960D01*
G01X3283430Y4506780D01*
Y4560360D01*
G03X3279470Y4564320I-3958J2D01*
G01X3269800D01*
Y4573890D01*
X3309690D01*
Y4564320D01*
X3301280D01*
G03X3297320Y4560360I0J-3960D01*
G01Y4455150D01*
X3291160D01*
G02X3288160Y4456520I-5J3959D01*
G01X3219530Y4536020D01*
Y4468170D01*
G03X3223490Y4464210I3961J1D01*
G01X3229410D01*
Y4455150D01*
X3187740D01*
Y4464210D01*
G37*
G36*
G01X3431530Y4456960D02*
X3421570Y4493640D01*
X3426170Y4494770D01*
X3428100Y4492140D01*
X3430050Y4489540D01*
X3432030Y4487010D01*
X3434080Y4484580D01*
X3436200Y4482280D01*
X3438410Y4480150D01*
X3440740Y4478210D01*
X3443210Y4476510D01*
X3445930Y4475030D01*
X3448610Y4473920D01*
X3451530Y4473000D01*
X3454560Y4472240D01*
X3458230Y4471470D01*
X3460810Y4470960D01*
X3463970Y4470390D01*
X3467140Y4469920D01*
X3470300Y4469600D01*
X3473440Y4469480D01*
X3476540Y4469610D01*
X3479590Y4470040D01*
X3482590Y4470820D01*
X3485760Y4472110D01*
X3488300Y4473590D01*
X3490850Y4475600D01*
X3492960Y4477990D01*
X3494830Y4481820D01*
X3495160Y4483670D01*
X3495070Y4486820D01*
X3494280Y4489970D01*
X3492890Y4492960D01*
X3490300Y4496390D01*
X3488720Y4497810D01*
X3486120Y4499520D01*
X3483300Y4500830D01*
X3480310Y4501830D01*
X3476050Y4502860D01*
X3474170Y4503240D01*
X3471110Y4503780D01*
X3468070Y4504260D01*
X3465030Y4504710D01*
X3462000Y4505140D01*
X3458980Y4505580D01*
X3455940Y4506060D01*
X3452900Y4506610D01*
X3449840Y4507250D01*
X3447870Y4507720D01*
X3443680Y4508900D01*
X3440660Y4509970D01*
X3437760Y4511240D01*
X3435020Y4512740D01*
X3432520Y4514500D01*
X3430380Y4516460D01*
X3428430Y4518870D01*
X3426880Y4521480D01*
X3425630Y4524310D01*
X3424670Y4527320D01*
X3423970Y4530460D01*
X3423520Y4533700D01*
X3423260Y4538470D01*
X3423270Y4540270D01*
X3423450Y4543540D01*
X3423840Y4546740D01*
X3424470Y4549860D01*
X3425350Y4552870D01*
X3426480Y4555740D01*
X3427890Y4558440D01*
X3429730Y4561130D01*
X3431590Y4563240D01*
X3433850Y4565310D01*
X3436350Y4567170D01*
X3439030Y4568830D01*
X3441850Y4570300D01*
X3444780Y4571570D01*
X3449170Y4573100D01*
X3450790Y4573580D01*
X3453820Y4574320D01*
X3456860Y4574900D01*
X3459920Y4575320D01*
X3462990Y4575580D01*
X3466010Y4575690D01*
X3469200Y4575650D01*
X3472320Y4575450D01*
X3475420Y4575050D01*
X3478470Y4574450D01*
X3481460Y4573630D01*
X3483820Y4572780D01*
X3487140Y4571260D01*
X3489870Y4569790D01*
X3492560Y4568250D01*
Y4575810D01*
X3501260D01*
X3509020Y4542280D01*
X3506160Y4539440D01*
X3503800Y4541300D01*
X3501420Y4543140D01*
X3499000Y4544930D01*
X3496540Y4546640D01*
X3494020Y4548240D01*
X3491270Y4549800D01*
X3488720Y4551050D01*
X3485940Y4552220D01*
X3483090Y4553240D01*
X3480200Y4554100D01*
X3477270Y4554810D01*
X3474310Y4555360D01*
X3472480Y4555620D01*
X3468390Y4555990D01*
X3465410Y4556050D01*
X3462390Y4555910D01*
X3459850Y4555620D01*
X3456270Y4554920D01*
X3453360Y4553910D01*
X3450800Y4552350D01*
X3449490Y4551090D01*
X3447380Y4547300D01*
X3446720Y4544140D01*
X3446810Y4540980D01*
X3447550Y4538470D01*
X3449420Y4535800D01*
X3451770Y4533970D01*
X3454570Y4532550D01*
X3457640Y4531460D01*
X3460500Y4530700D01*
X3463870Y4529990D01*
X3466880Y4529470D01*
X3469830Y4529050D01*
X3472750Y4528660D01*
X3475640Y4528260D01*
X3478640Y4527790D01*
X3481420Y4527260D01*
X3484320Y4526620D01*
X3487230Y4525890D01*
X3490140Y4525070D01*
X3492890Y4524230D01*
X3495970Y4523200D01*
X3498830Y4522110D01*
X3501610Y4520870D01*
X3504260Y4519450D01*
X3506740Y4517810D01*
X3508750Y4516140D01*
X3511020Y4513720D01*
X3512800Y4511290D01*
X3514330Y4508660D01*
X3515620Y4505880D01*
X3516670Y4502990D01*
X3517500Y4499950D01*
X3518060Y4497030D01*
X3518420Y4494020D01*
X3518540Y4491010D01*
X3518430Y4488000D01*
X3518100Y4485010D01*
X3517500Y4481820D01*
X3516770Y4479110D01*
X3515780Y4476230D01*
X3514570Y4473440D01*
X3513140Y4470750D01*
X3511510Y4468190D01*
X3509670Y4465780D01*
X3507460Y4463370D01*
X3505400Y4461510D01*
X3502990Y4459680D01*
X3500410Y4458050D01*
X3497710Y4456610D01*
X3494880Y4455380D01*
X3491970Y4454340D01*
X3488980Y4453490D01*
X3485950Y4452840D01*
X3482880Y4452380D01*
X3479810Y4452120D01*
X3476370Y4452050D01*
X3473720Y4452150D01*
X3470730Y4452440D01*
X3467770Y4452890D01*
X3464840Y4453470D01*
X3461930Y4454190D01*
X3459050Y4455020D01*
X3456180Y4455940D01*
X3453340Y4456940D01*
X3450500Y4458010D01*
X3447680Y4459120D01*
X3444860Y4460270D01*
X3442040Y4461430D01*
Y4456960D01*
X3431530D01*
G37*
G36*
G01X3384680Y4462560D02*
Y4455150D01*
X3344080D01*
Y4462560D01*
X3348590D01*
G03X3352490Y4466450I6J3894D01*
G01Y4556820D01*
G03X3348590Y4560720I-3897J3D01*
G01X3325530D01*
G03X3322780Y4559580I3J-3894D01*
G01X3312410Y4549260D01*
X3316210Y4573500D01*
X3412550D01*
X3416350Y4549260D01*
X3405980Y4559580D01*
G03X3403230Y4560720I-2753J-2755D01*
G01X3380170D01*
G03X3376270Y4556820I-4J-3896D01*
G01Y4466450D01*
G03X3380170Y4462560I3894J4D01*
G01X3384680D01*
G37*
G36*
G01X3187740Y4464210D02*
X3195250D01*
G03X3199210Y4468170I-2J3962D01*
G01Y4561150D01*
G03X3195250Y4565110I-3960J0D01*
G01X3187180D01*
Y4573890D01*
X3223680D01*
G02X3226680Y4572520I5J-3960D01*
G01X3283430Y4506780D01*
Y4560360D01*
G03X3279470Y4564320I-3958J2D01*
G01X3269800D01*
Y4573890D01*
X3309690D01*
Y4564320D01*
X3301280D01*
G03X3297320Y4560360I0J-3960D01*
G01Y4455150D01*
X3291160D01*
G02X3288160Y4456520I-5J3959D01*
G01X3219530Y4536020D01*
Y4468170D01*
G03X3223490Y4464210I3961J1D01*
G01X3229410D01*
Y4455150D01*
X3187740D01*
Y4464210D01*
G37*
G36*
G01X3431530Y4456960D02*
X3421570Y4493640D01*
X3426170Y4494770D01*
X3428100Y4492140D01*
X3430050Y4489540D01*
X3432030Y4487010D01*
X3434080Y4484580D01*
X3436200Y4482280D01*
X3438410Y4480150D01*
X3440740Y4478210D01*
X3443210Y4476510D01*
X3445930Y4475030D01*
X3448610Y4473920D01*
X3451530Y4473000D01*
X3454560Y4472240D01*
X3458230Y4471470D01*
X3460810Y4470960D01*
X3463970Y4470390D01*
X3467140Y4469920D01*
X3470300Y4469600D01*
X3473440Y4469480D01*
X3476540Y4469610D01*
X3479590Y4470040D01*
X3482590Y4470820D01*
X3485760Y4472110D01*
X3488300Y4473590D01*
X3490850Y4475600D01*
X3492960Y4477990D01*
X3494830Y4481820D01*
X3495160Y4483670D01*
X3495070Y4486820D01*
X3494280Y4489970D01*
X3492890Y4492960D01*
X3490300Y4496390D01*
X3488720Y4497810D01*
X3486120Y4499520D01*
X3483300Y4500830D01*
X3480310Y4501830D01*
X3476050Y4502860D01*
X3474170Y4503240D01*
X3471110Y4503780D01*
X3468070Y4504260D01*
X3465030Y4504710D01*
X3462000Y4505140D01*
X3458980Y4505580D01*
X3455940Y4506060D01*
X3452900Y4506610D01*
X3449840Y4507250D01*
X3447870Y4507720D01*
X3443680Y4508900D01*
X3440660Y4509970D01*
X3437760Y4511240D01*
X3435020Y4512740D01*
X3432520Y4514500D01*
X3430380Y4516460D01*
X3428430Y4518870D01*
X3426880Y4521480D01*
X3425630Y4524310D01*
X3424670Y4527320D01*
X3423970Y4530460D01*
X3423520Y4533700D01*
X3423260Y4538470D01*
X3423270Y4540270D01*
X3423450Y4543540D01*
X3423840Y4546740D01*
X3424470Y4549860D01*
X3425350Y4552870D01*
X3426480Y4555740D01*
X3427890Y4558440D01*
X3429730Y4561130D01*
X3431590Y4563240D01*
X3433850Y4565310D01*
X3436350Y4567170D01*
X3439030Y4568830D01*
X3441850Y4570300D01*
X3444780Y4571570D01*
X3449170Y4573100D01*
X3450790Y4573580D01*
X3453820Y4574320D01*
X3456860Y4574900D01*
X3459920Y4575320D01*
X3462990Y4575580D01*
X3466010Y4575690D01*
X3469200Y4575650D01*
X3472320Y4575450D01*
X3475420Y4575050D01*
X3478470Y4574450D01*
X3481460Y4573630D01*
X3483820Y4572780D01*
X3487140Y4571260D01*
X3489870Y4569790D01*
X3492560Y4568250D01*
Y4575810D01*
X3501260D01*
X3509020Y4542280D01*
X3506160Y4539440D01*
X3503800Y4541300D01*
X3501420Y4543140D01*
X3499000Y4544930D01*
X3496540Y4546640D01*
X3494020Y4548240D01*
X3491270Y4549800D01*
X3488720Y4551050D01*
X3485940Y4552220D01*
X3483090Y4553240D01*
X3480200Y4554100D01*
X3477270Y4554810D01*
X3474310Y4555360D01*
X3472480Y4555620D01*
X3468390Y4555990D01*
X3465410Y4556050D01*
X3462390Y4555910D01*
X3459850Y4555620D01*
X3456270Y4554920D01*
X3453360Y4553910D01*
X3450800Y4552350D01*
X3449490Y4551090D01*
X3447380Y4547300D01*
X3446720Y4544140D01*
X3446810Y4540980D01*
X3447550Y4538470D01*
X3449420Y4535800D01*
X3451770Y4533970D01*
X3454570Y4532550D01*
X3457640Y4531460D01*
X3460500Y4530700D01*
X3463870Y4529990D01*
X3466880Y4529470D01*
X3469830Y4529050D01*
X3472750Y4528660D01*
X3475640Y4528260D01*
X3478640Y4527790D01*
X3481420Y4527260D01*
X3484320Y4526620D01*
X3487230Y4525890D01*
X3490140Y4525070D01*
X3492890Y4524230D01*
X3495970Y4523200D01*
X3498830Y4522110D01*
X3501610Y4520870D01*
X3504260Y4519450D01*
X3506740Y4517810D01*
X3508750Y4516140D01*
X3511020Y4513720D01*
X3512800Y4511290D01*
X3514330Y4508660D01*
X3515620Y4505880D01*
X3516670Y4502990D01*
X3517500Y4499950D01*
X3518060Y4497030D01*
X3518420Y4494020D01*
X3518540Y4491010D01*
X3518430Y4488000D01*
X3518100Y4485010D01*
X3517500Y4481820D01*
X3516770Y4479110D01*
X3515780Y4476230D01*
X3514570Y4473440D01*
X3513140Y4470750D01*
X3511510Y4468190D01*
X3509670Y4465780D01*
X3507460Y4463370D01*
X3505400Y4461510D01*
X3502990Y4459680D01*
X3500410Y4458050D01*
X3497710Y4456610D01*
X3494880Y4455380D01*
X3491970Y4454340D01*
X3488980Y4453490D01*
X3485950Y4452840D01*
X3482880Y4452380D01*
X3479810Y4452120D01*
X3476370Y4452050D01*
X3473720Y4452150D01*
X3470730Y4452440D01*
X3467770Y4452890D01*
X3464840Y4453470D01*
X3461930Y4454190D01*
X3459050Y4455020D01*
X3456180Y4455940D01*
X3453340Y4456940D01*
X3450500Y4458010D01*
X3447680Y4459120D01*
X3444860Y4460270D01*
X3442040Y4461430D01*
Y4456960D01*
X3431530D01*
G37*
G54D10*
G01X254000Y3471000D02*
G02X409000Y3316000I4769J-150231D01*
G02X254000Y3471000I-155000J0D01*
G01X165500Y3505000D02*
Y3551000D01*
X184500D01*
G01X177500Y3528770D02*
X165500D01*
G01X204000Y3551000D02*
X216000D01*
G01X210000D02*
Y3505000D01*
G01X204000D02*
X216000D01*
G01X234000D02*
Y3551000D01*
X244000D01*
X248000Y3548700D01*
X251000Y3545630D01*
X253500Y3541030D01*
X255500Y3535670D01*
X256000Y3528000D01*
X255500Y3520330D01*
X253500Y3514970D01*
X251000Y3510370D01*
X248000Y3507300D01*
X244000Y3505000D01*
X234000D01*
G01X269000Y3551000D02*
Y3518030D01*
X271000Y3511130D01*
X275000Y3506530D01*
X280000Y3505000D01*
X285000Y3506530D01*
X289000Y3511130D01*
X291000Y3518030D01*
Y3551000D01*
G01X305500Y3543330D02*
X308500Y3547930D01*
X312000Y3550230D01*
X316000Y3551000D01*
X321000Y3549470D01*
X324500Y3545630D01*
X325500Y3541030D01*
X325000Y3536430D01*
X323000Y3532600D01*
X313000Y3524930D01*
X308500Y3519570D01*
X305500Y3511900D01*
X304500Y3505000D01*
X325500D01*
G01X254830Y3790000D02*
X279000Y3879000D01*
X303170Y3790000D01*
G01X294470Y3821150D02*
X263530D01*
G01X345000Y3790000D02*
Y3879000D01*
X333400Y3861200D01*
G01Y3790000D02*
X356600D01*
G01X390000Y5620000D02*
X3880000D01*
Y4960000D01*
X515000D01*
Y3770000D01*
X390000D01*
Y5620000D01*
X420000D01*
G01X760000Y3880000D02*
X740000D01*
G01X760000Y3780000D02*
X740000D01*
G01X635000Y3775000D02*
Y3795000D01*
G01X535000Y3775000D02*
Y3795000D01*
G01X1160000Y825000D02*
X1114000D01*
Y837500D01*
X1116300Y841500D01*
X1119370Y844000D01*
X1125500Y845000D01*
X1131630Y844000D01*
X1135470Y841000D01*
X1137770Y837500D01*
Y825000D01*
G01Y837500D02*
X1160000Y845000D01*
G01X1150800Y859000D02*
X1156170Y862000D01*
X1159230Y866000D01*
X1160000Y870500D01*
X1159230Y874500D01*
X1155400Y878500D01*
X1150800Y881000D01*
X1146200Y881500D01*
X1140830Y880500D01*
X1137000Y877000D01*
X1135470Y873500D01*
Y869000D01*
G01Y873500D02*
X1133170Y876500D01*
X1129330Y879000D01*
X1124730Y880000D01*
X1120130Y879000D01*
X1116300Y876500D01*
X1114000Y872000D01*
X1114770Y867500D01*
X1117830Y863000D01*
G01X1121670Y895500D02*
X1117070Y898500D01*
X1114770Y902000D01*
X1114000Y906000D01*
X1115530Y911000D01*
X1119370Y914500D01*
X1123970Y915500D01*
X1128570Y915000D01*
X1132400Y913000D01*
X1140070Y903000D01*
X1145430Y898500D01*
X1153100Y895500D01*
X1160000Y894500D01*
Y915500D01*
G01X1121670Y930500D02*
X1117070Y933500D01*
X1114770Y937000D01*
X1114000Y941000D01*
X1115530Y946000D01*
X1119370Y949500D01*
X1123970Y950500D01*
X1128570Y950000D01*
X1132400Y948000D01*
X1140070Y938000D01*
X1145430Y933500D01*
X1153100Y930500D01*
X1160000Y929500D01*
Y950500D01*
G01X1150000Y1040000D02*
Y1060000D01*
G01X972830Y1341000D02*
X970530Y1338000D01*
X969000Y1334500D01*
Y1330500D01*
X971300Y1326000D01*
X975130Y1322500D01*
X979730Y1320000D01*
X987400Y1318000D01*
X994300Y1317500D01*
X1001200Y1318500D01*
X1005800Y1320000D01*
X1010400Y1323000D01*
X1013470Y1326500D01*
X1015000Y1330000D01*
Y1333500D01*
X1013470Y1337000D01*
X1011170Y1340000D01*
X1008100Y1342500D01*
G01X1005800Y1354000D02*
X1011170Y1357000D01*
X1014230Y1361000D01*
X1015000Y1365500D01*
X1014230Y1369500D01*
X1010400Y1373500D01*
X1005800Y1376000D01*
X1001200Y1376500D01*
X995830Y1375500D01*
X992000Y1372000D01*
X990470Y1368500D01*
Y1364000D01*
G01Y1368500D02*
X988170Y1371500D01*
X984330Y1374000D01*
X979730Y1375000D01*
X975130Y1374000D01*
X971300Y1371500D01*
X969000Y1367000D01*
X969770Y1362500D01*
X972830Y1358000D01*
G01X969000Y1400000D02*
X970530Y1396000D01*
X974370Y1393000D01*
X978970Y1391000D01*
X985100Y1389500D01*
X992000Y1389000D01*
X998900Y1389500D01*
X1005030Y1391000D01*
X1009630Y1393000D01*
X1013470Y1396000D01*
X1015000Y1400000D01*
X1013470Y1404000D01*
X1009630Y1407000D01*
X1005030Y1409000D01*
X998900Y1410500D01*
X992000Y1411000D01*
X985100Y1410500D01*
X978970Y1409000D01*
X974370Y1407000D01*
X970530Y1404000D01*
X969000Y1400000D01*
G01X976670Y1425500D02*
X972070Y1428500D01*
X969770Y1432000D01*
X969000Y1436000D01*
X970530Y1441000D01*
X974370Y1444500D01*
X978970Y1445500D01*
X983570Y1445000D01*
X987400Y1443000D01*
X995070Y1433000D01*
X1000430Y1428500D01*
X1008100Y1425500D01*
X1015000Y1424500D01*
Y1445500D01*
G01X945000Y1550000D02*
Y1530000D01*
G01X1045000Y1550000D02*
Y1530000D01*
G01X1077830Y1346000D02*
X1075530Y1343000D01*
X1074000Y1339500D01*
Y1335500D01*
X1076300Y1331000D01*
X1080130Y1327500D01*
X1084730Y1325000D01*
X1092400Y1323000D01*
X1099300Y1322500D01*
X1106200Y1323500D01*
X1110800Y1325000D01*
X1115400Y1328000D01*
X1118470Y1331500D01*
X1120000Y1335000D01*
Y1338500D01*
X1118470Y1342000D01*
X1116170Y1345000D01*
X1113100Y1347500D01*
G01X1110800Y1359000D02*
X1116170Y1362000D01*
X1119230Y1366000D01*
X1120000Y1370500D01*
X1119230Y1374500D01*
X1115400Y1378500D01*
X1110800Y1381000D01*
X1106200Y1381500D01*
X1100830Y1380500D01*
X1097000Y1377000D01*
X1095470Y1373500D01*
Y1369000D01*
G01Y1373500D02*
X1093170Y1376500D01*
X1089330Y1379000D01*
X1084730Y1380000D01*
X1080130Y1379000D01*
X1076300Y1376500D01*
X1074000Y1372000D01*
X1074770Y1367500D01*
X1077830Y1363000D01*
G01X1074000Y1405000D02*
X1075530Y1401000D01*
X1079370Y1398000D01*
X1083970Y1396000D01*
X1090100Y1394500D01*
X1097000Y1394000D01*
X1103900Y1394500D01*
X1110030Y1396000D01*
X1114630Y1398000D01*
X1118470Y1401000D01*
X1120000Y1405000D01*
X1118470Y1409000D01*
X1114630Y1412000D01*
X1110030Y1414000D01*
X1103900Y1415500D01*
X1097000Y1416000D01*
X1090100Y1415500D01*
X1083970Y1414000D01*
X1079370Y1412000D01*
X1075530Y1409000D01*
X1074000Y1405000D01*
G01X1120000Y1440000D02*
X1074000D01*
X1083200Y1434000D01*
G01X1120000D02*
Y1446000D01*
G01X1050000Y1550000D02*
Y1530000D01*
G01X1150000Y1550000D02*
Y1530000D01*
G01X1196000Y1287170D02*
X1193000Y1289470D01*
X1189500Y1291000D01*
X1185500D01*
X1181000Y1288700D01*
X1177500Y1284870D01*
X1175000Y1280270D01*
X1173000Y1272600D01*
X1172500Y1265700D01*
X1173500Y1258800D01*
X1175000Y1254200D01*
X1178000Y1249600D01*
X1181500Y1246530D01*
X1185000Y1245000D01*
X1188500D01*
X1192000Y1246530D01*
X1195000Y1248830D01*
X1197500Y1251900D01*
G01X1209000Y1254200D02*
X1212000Y1248830D01*
X1216000Y1245770D01*
X1220500Y1245000D01*
X1224500Y1245770D01*
X1228500Y1249600D01*
X1231000Y1254200D01*
X1231500Y1258800D01*
X1230500Y1264170D01*
X1227000Y1268000D01*
X1223500Y1269530D01*
X1219000D01*
G01X1223500D02*
X1226500Y1271830D01*
X1229000Y1275670D01*
X1230000Y1280270D01*
X1229000Y1284870D01*
X1226500Y1288700D01*
X1222000Y1291000D01*
X1217500Y1290230D01*
X1213000Y1287170D01*
G01X1255000Y1245000D02*
Y1291000D01*
X1249000Y1281800D01*
G01Y1245000D02*
X1261000D01*
G01X1290000D02*
Y1291000D01*
X1284000Y1281800D01*
G01Y1245000D02*
X1296000D01*
G01X1170000Y1475000D02*
Y1555000D01*
X1175000Y1560000D01*
G01X1206000Y1942170D02*
X1203000Y1944470D01*
X1199500Y1946000D01*
X1195500D01*
X1191000Y1943700D01*
X1187500Y1939870D01*
X1185000Y1935270D01*
X1183000Y1927600D01*
X1182500Y1920700D01*
X1183500Y1913800D01*
X1185000Y1909200D01*
X1188000Y1904600D01*
X1191500Y1901530D01*
X1195000Y1900000D01*
X1198500D01*
X1202000Y1901530D01*
X1205000Y1903830D01*
X1207500Y1906900D01*
G01X1220500Y1938330D02*
X1223500Y1942930D01*
X1227000Y1945230D01*
X1231000Y1946000D01*
X1236000Y1944470D01*
X1239500Y1940630D01*
X1240500Y1936030D01*
X1240000Y1931430D01*
X1238000Y1927600D01*
X1228000Y1919930D01*
X1223500Y1914570D01*
X1220500Y1906900D01*
X1219500Y1900000D01*
X1240500D01*
G01X1265000D02*
X1268500Y1900770D01*
X1272500Y1903070D01*
X1275000Y1906900D01*
X1276000Y1912270D01*
X1275000Y1917630D01*
X1272000Y1922230D01*
X1267500Y1924530D01*
X1262500D01*
X1259500Y1926070D01*
X1257000Y1929900D01*
X1256000Y1935270D01*
X1257500Y1940630D01*
X1261000Y1944470D01*
X1265000Y1946000D01*
X1269000Y1944470D01*
X1272500Y1940630D01*
X1274000Y1935270D01*
X1273000Y1929900D01*
X1270500Y1926070D01*
X1267500Y1924530D01*
X1262500D01*
X1258000Y1922230D01*
X1255000Y1917630D01*
X1254000Y1912270D01*
X1255000Y1906900D01*
X1257500Y1903070D01*
X1261500Y1900770D01*
X1265000Y1900000D01*
G01X1300000D02*
Y1946000D01*
X1294000Y1936800D01*
G01Y1900000D02*
X1306000D01*
G01X996000Y1852170D02*
X993000Y1854470D01*
X989500Y1856000D01*
X985500D01*
X981000Y1853700D01*
X977500Y1849870D01*
X975000Y1845270D01*
X973000Y1837600D01*
X972500Y1830700D01*
X973500Y1823800D01*
X975000Y1819200D01*
X978000Y1814600D01*
X981500Y1811530D01*
X985000Y1810000D01*
X988500D01*
X992000Y1811530D01*
X995000Y1813830D01*
X997500Y1816900D01*
G01X1010500Y1848330D02*
X1013500Y1852930D01*
X1017000Y1855230D01*
X1021000Y1856000D01*
X1026000Y1854470D01*
X1029500Y1850630D01*
X1030500Y1846030D01*
X1030000Y1841430D01*
X1028000Y1837600D01*
X1018000Y1829930D01*
X1013500Y1824570D01*
X1010500Y1816900D01*
X1009500Y1810000D01*
X1030500D01*
G01X1046500Y1815370D02*
X1050000Y1811530D01*
X1054000Y1810000D01*
X1058000Y1811530D01*
X1061500Y1816130D01*
X1064000Y1823030D01*
X1065000Y1829930D01*
Y1838370D01*
X1064000Y1845270D01*
X1061500Y1851400D01*
X1058500Y1854470D01*
X1055000Y1856000D01*
X1051000Y1854470D01*
X1048000Y1851400D01*
X1046000Y1846800D01*
X1045000Y1840670D01*
X1046000Y1835300D01*
X1048500Y1829930D01*
X1051500Y1826870D01*
X1055000Y1826100D01*
X1059000Y1827630D01*
X1062000Y1831470D01*
X1065000Y1838370D01*
G01X1090000Y1810000D02*
Y1856000D01*
X1084000Y1846800D01*
G01Y1810000D02*
X1096000D01*
G01X1205000Y1875000D02*
X1185000D01*
G01X1205000Y1775000D02*
X1185000D01*
G01X840000Y1700000D02*
Y1746000D01*
X852500D01*
X856500Y1743700D01*
X859000Y1740630D01*
X860000Y1734500D01*
X859000Y1728370D01*
X856000Y1724530D01*
X852500Y1722230D01*
X840000D01*
G01X852500D02*
X860000Y1700000D01*
G01X874000Y1709200D02*
X877000Y1703830D01*
X881000Y1700770D01*
X885500Y1700000D01*
X889500Y1700770D01*
X893500Y1704600D01*
X896000Y1709200D01*
X896500Y1713800D01*
X895500Y1719170D01*
X892000Y1723000D01*
X888500Y1724530D01*
X884000D01*
G01X888500D02*
X891500Y1726830D01*
X894000Y1730670D01*
X895000Y1735270D01*
X894000Y1739870D01*
X891500Y1743700D01*
X887000Y1746000D01*
X882500Y1745230D01*
X878000Y1742170D01*
G01X910500Y1738330D02*
X913500Y1742930D01*
X917000Y1745230D01*
X921000Y1746000D01*
X926000Y1744470D01*
X929500Y1740630D01*
X930500Y1736030D01*
X930000Y1731430D01*
X928000Y1727600D01*
X918000Y1719930D01*
X913500Y1714570D01*
X910500Y1706900D01*
X909500Y1700000D01*
X930500D01*
G01X955000D02*
Y1746000D01*
X949000Y1736800D01*
G01Y1700000D02*
X961000D01*
G01X1065000Y1775000D02*
X1045000D01*
G01X1065000Y1675000D02*
X1045000D01*
G01X855000Y2670000D02*
Y2716000D01*
X867000D01*
X871000Y2713700D01*
X874000Y2708330D01*
X875000Y2702200D01*
X874000Y2696070D01*
X871500Y2691470D01*
X867000Y2689170D01*
X855000D01*
G01X889000Y2679200D02*
X892000Y2673830D01*
X896000Y2670770D01*
X900500Y2670000D01*
X904500Y2670770D01*
X908500Y2674600D01*
X911000Y2679200D01*
X911500Y2683800D01*
X910500Y2689170D01*
X907000Y2693000D01*
X903500Y2694530D01*
X899000D01*
G01X903500D02*
X906500Y2696830D01*
X909000Y2700670D01*
X910000Y2705270D01*
X909000Y2709870D01*
X906500Y2713700D01*
X902000Y2716000D01*
X897500Y2715230D01*
X893000Y2712170D01*
G01X1370000Y2760000D02*
X1050000D01*
G01X845000Y3285000D02*
Y2965000D01*
G01X1050000Y3490000D02*
X1370000D01*
G01X865000Y3795000D02*
Y3775000D01*
G01X965000Y3795000D02*
Y3775000D01*
G01X1414500Y720000D02*
X1435500Y766000D01*
G01X1414500D02*
X1435500Y720000D01*
G01X1450500Y758330D02*
X1453500Y762930D01*
X1457000Y765230D01*
X1461000Y766000D01*
X1466000Y764470D01*
X1469500Y760630D01*
X1470500Y756030D01*
X1470000Y751430D01*
X1468000Y747600D01*
X1458000Y739930D01*
X1453500Y734570D01*
X1450500Y726900D01*
X1449500Y720000D01*
X1470500D01*
G01X1511000Y1157170D02*
X1508000Y1159470D01*
X1504500Y1161000D01*
X1500500D01*
X1496000Y1158700D01*
X1492500Y1154870D01*
X1490000Y1150270D01*
X1488000Y1142600D01*
X1487500Y1135700D01*
X1488500Y1128800D01*
X1490000Y1124200D01*
X1493000Y1119600D01*
X1496500Y1116530D01*
X1500000Y1115000D01*
X1503500D01*
X1507000Y1116530D01*
X1510000Y1118830D01*
X1512500Y1121900D01*
G01X1524000Y1124200D02*
X1527000Y1118830D01*
X1531000Y1115770D01*
X1535500Y1115000D01*
X1539500Y1115770D01*
X1543500Y1119600D01*
X1546000Y1124200D01*
X1546500Y1128800D01*
X1545500Y1134170D01*
X1542000Y1138000D01*
X1538500Y1139530D01*
X1534000D01*
G01X1538500D02*
X1541500Y1141830D01*
X1544000Y1145670D01*
X1545000Y1150270D01*
X1544000Y1154870D01*
X1541500Y1158700D01*
X1537000Y1161000D01*
X1532500Y1160230D01*
X1528000Y1157170D01*
G01X1560500Y1153330D02*
X1563500Y1157930D01*
X1567000Y1160230D01*
X1571000Y1161000D01*
X1576000Y1159470D01*
X1579500Y1155630D01*
X1580500Y1151030D01*
X1580000Y1146430D01*
X1578000Y1142600D01*
X1568000Y1134930D01*
X1563500Y1129570D01*
X1560500Y1121900D01*
X1559500Y1115000D01*
X1580500D01*
G01X1605000D02*
Y1161000D01*
X1599000Y1151800D01*
G01Y1115000D02*
X1611000D01*
G01X1395000Y1190000D02*
X1375000D01*
G01X1395000Y1090000D02*
X1375000D01*
G01X1250000Y1040000D02*
Y1060000D01*
G01X1435000Y1050000D02*
X1465000D01*
G01Y820000D02*
X1440000D01*
X1435000Y825000D01*
G01X1395000Y1310000D02*
X1375000D01*
G01X1395000Y1210000D02*
X1375000D01*
G01X1530000Y1250000D02*
Y1270000D01*
G01X1570000Y1430000D02*
X1524000D01*
Y1442500D01*
X1526300Y1446500D01*
X1529370Y1449000D01*
X1535500Y1450000D01*
X1541630Y1449000D01*
X1545470Y1446000D01*
X1547770Y1442500D01*
Y1430000D01*
G01Y1442500D02*
X1570000Y1450000D01*
G01Y1475000D02*
X1524000D01*
X1533200Y1469000D01*
G01X1570000D02*
Y1481000D01*
G01X1531670Y1500500D02*
X1527070Y1503500D01*
X1524770Y1507000D01*
X1524000Y1511000D01*
X1525530Y1516000D01*
X1529370Y1519500D01*
X1533970Y1520500D01*
X1538570Y1520000D01*
X1542400Y1518000D01*
X1550070Y1508000D01*
X1555430Y1503500D01*
X1563100Y1500500D01*
X1570000Y1499500D01*
Y1520500D01*
G01X1580000Y1480000D02*
Y1460000D01*
G01X1365000Y1330000D02*
X1315000D01*
G01X1510000Y1575000D02*
Y1475000D01*
G01X1415000Y1970000D02*
X1395000D01*
G01X1415000Y1870000D02*
X1395000D01*
G01X1365000Y1720000D02*
X1315000D01*
G01X1236000Y2072170D02*
X1233000Y2074470D01*
X1229500Y2076000D01*
X1225500D01*
X1221000Y2073700D01*
X1217500Y2069870D01*
X1215000Y2065270D01*
X1213000Y2057600D01*
X1212500Y2050700D01*
X1213500Y2043800D01*
X1215000Y2039200D01*
X1218000Y2034600D01*
X1221500Y2031530D01*
X1225000Y2030000D01*
X1228500D01*
X1232000Y2031530D01*
X1235000Y2033830D01*
X1237500Y2036900D01*
G01X1250500Y2068330D02*
X1253500Y2072930D01*
X1257000Y2075230D01*
X1261000Y2076000D01*
X1266000Y2074470D01*
X1269500Y2070630D01*
X1270500Y2066030D01*
X1270000Y2061430D01*
X1268000Y2057600D01*
X1258000Y2049930D01*
X1253500Y2044570D01*
X1250500Y2036900D01*
X1249500Y2030000D01*
X1270500D01*
G01X1294000D02*
X1295000Y2039970D01*
X1296500Y2048400D01*
X1298500Y2056070D01*
X1301000Y2064500D01*
X1305000Y2076000D01*
X1285000D01*
G01X1330000Y2030000D02*
Y2076000D01*
X1324000Y2066800D01*
G01Y2030000D02*
X1336000D01*
G01X1445000Y2100000D02*
X1425000D01*
G01X1445000Y2000000D02*
X1425000D01*
G01X1271000Y2347170D02*
X1268000Y2349470D01*
X1264500Y2351000D01*
X1260500D01*
X1256000Y2348700D01*
X1252500Y2344870D01*
X1250000Y2340270D01*
X1248000Y2332600D01*
X1247500Y2325700D01*
X1248500Y2318800D01*
X1250000Y2314200D01*
X1253000Y2309600D01*
X1256500Y2306530D01*
X1260000Y2305000D01*
X1263500D01*
X1267000Y2306530D01*
X1270000Y2308830D01*
X1272500Y2311900D01*
G01X1285500Y2343330D02*
X1288500Y2347930D01*
X1292000Y2350230D01*
X1296000Y2351000D01*
X1301000Y2349470D01*
X1304500Y2345630D01*
X1305500Y2341030D01*
X1305000Y2336430D01*
X1303000Y2332600D01*
X1293000Y2324930D01*
X1288500Y2319570D01*
X1285500Y2311900D01*
X1284500Y2305000D01*
X1305500D01*
G01X1319000Y2311900D02*
X1322000Y2308070D01*
X1325500Y2305770D01*
X1330000Y2305000D01*
X1334500Y2306530D01*
X1338000Y2309600D01*
X1340500Y2314970D01*
X1341000Y2321100D01*
X1340000Y2327230D01*
X1337500Y2331070D01*
X1334000Y2334130D01*
X1330500Y2334900D01*
X1327000Y2334130D01*
X1322500Y2331070D01*
X1324000Y2351000D01*
X1337500D01*
G01X1365000Y2305000D02*
Y2351000D01*
X1359000Y2341800D01*
G01Y2305000D02*
X1371000D01*
G01X1475000Y2360000D02*
X1455000D01*
G01X1475000Y2260000D02*
X1455000D01*
G01X1236000Y2197170D02*
X1233000Y2199470D01*
X1229500Y2201000D01*
X1225500D01*
X1221000Y2198700D01*
X1217500Y2194870D01*
X1215000Y2190270D01*
X1213000Y2182600D01*
X1212500Y2175700D01*
X1213500Y2168800D01*
X1215000Y2164200D01*
X1218000Y2159600D01*
X1221500Y2156530D01*
X1225000Y2155000D01*
X1228500D01*
X1232000Y2156530D01*
X1235000Y2158830D01*
X1237500Y2161900D01*
G01X1250500Y2193330D02*
X1253500Y2197930D01*
X1257000Y2200230D01*
X1261000Y2201000D01*
X1266000Y2199470D01*
X1269500Y2195630D01*
X1270500Y2191030D01*
X1270000Y2186430D01*
X1268000Y2182600D01*
X1258000Y2174930D01*
X1253500Y2169570D01*
X1250500Y2161900D01*
X1249500Y2155000D01*
X1270500D01*
G01X1285500Y2174170D02*
X1289000Y2179530D01*
X1292000Y2182600D01*
X1296000Y2184130D01*
X1299500Y2182600D01*
X1302000Y2179530D01*
X1304000Y2174930D01*
X1304500Y2169570D01*
X1304000Y2164970D01*
X1302000Y2160370D01*
X1299000Y2156530D01*
X1295500Y2155000D01*
X1291500Y2156530D01*
X1288000Y2161130D01*
X1286000Y2168030D01*
X1285500Y2175700D01*
X1286500Y2185670D01*
X1288000Y2191030D01*
X1290500Y2196400D01*
X1294000Y2200230D01*
X1297500Y2201000D01*
X1301000Y2199470D01*
X1303500Y2195630D01*
G01X1330000Y2155000D02*
Y2201000D01*
X1324000Y2191800D01*
G01Y2155000D02*
X1336000D01*
G01X1445000Y2230000D02*
X1425000D01*
G01X1445000Y2130000D02*
X1425000D01*
G01X1487830Y2421000D02*
X1485530Y2418000D01*
X1484000Y2414500D01*
Y2410500D01*
X1486300Y2406000D01*
X1490130Y2402500D01*
X1494730Y2400000D01*
X1502400Y2398000D01*
X1509300Y2397500D01*
X1516200Y2398500D01*
X1520800Y2400000D01*
X1525400Y2403000D01*
X1528470Y2406500D01*
X1530000Y2410000D01*
Y2413500D01*
X1528470Y2417000D01*
X1526170Y2420000D01*
X1523100Y2422500D01*
G01X1491670Y2435500D02*
X1487070Y2438500D01*
X1484770Y2442000D01*
X1484000Y2446000D01*
X1485530Y2451000D01*
X1489370Y2454500D01*
X1493970Y2455500D01*
X1498570Y2455000D01*
X1502400Y2453000D01*
X1510070Y2443000D01*
X1515430Y2438500D01*
X1523100Y2435500D01*
X1530000Y2434500D01*
Y2455500D01*
G01X1520800Y2469000D02*
X1526170Y2472000D01*
X1529230Y2476000D01*
X1530000Y2480500D01*
X1529230Y2484500D01*
X1525400Y2488500D01*
X1520800Y2491000D01*
X1516200Y2491500D01*
X1510830Y2490500D01*
X1507000Y2487000D01*
X1505470Y2483500D01*
Y2479000D01*
G01Y2483500D02*
X1503170Y2486500D01*
X1499330Y2489000D01*
X1494730Y2490000D01*
X1490130Y2489000D01*
X1486300Y2486500D01*
X1484000Y2482000D01*
X1484770Y2477500D01*
X1487830Y2473000D01*
G01X1530000Y2515000D02*
X1484000D01*
X1493200Y2509000D01*
G01X1530000D02*
Y2521000D01*
G01X1555000Y2405000D02*
Y2425000D01*
G01X1575000Y3285000D02*
Y2965000D01*
G01X1662830Y1221000D02*
X1660530Y1218000D01*
X1659000Y1214500D01*
Y1210500D01*
X1661300Y1206000D01*
X1665130Y1202500D01*
X1669730Y1200000D01*
X1677400Y1198000D01*
X1684300Y1197500D01*
X1691200Y1198500D01*
X1695800Y1200000D01*
X1700400Y1203000D01*
X1703470Y1206500D01*
X1705000Y1210000D01*
Y1213500D01*
X1703470Y1217000D01*
X1701170Y1220000D01*
X1698100Y1222500D01*
G01X1695800Y1234000D02*
X1701170Y1237000D01*
X1704230Y1241000D01*
X1705000Y1245500D01*
X1704230Y1249500D01*
X1700400Y1253500D01*
X1695800Y1256000D01*
X1691200Y1256500D01*
X1685830Y1255500D01*
X1682000Y1252000D01*
X1680470Y1248500D01*
Y1244000D01*
G01Y1248500D02*
X1678170Y1251500D01*
X1674330Y1254000D01*
X1669730Y1255000D01*
X1665130Y1254000D01*
X1661300Y1251500D01*
X1659000Y1247000D01*
X1659770Y1242500D01*
X1662830Y1238000D01*
G01X1666670Y1270500D02*
X1662070Y1273500D01*
X1659770Y1277000D01*
X1659000Y1281000D01*
X1660530Y1286000D01*
X1664370Y1289500D01*
X1668970Y1290500D01*
X1673570Y1290000D01*
X1677400Y1288000D01*
X1685070Y1278000D01*
X1690430Y1273500D01*
X1698100Y1270500D01*
X1705000Y1269500D01*
Y1290500D01*
G01X1666670Y1305500D02*
X1662070Y1308500D01*
X1659770Y1312000D01*
X1659000Y1316000D01*
X1660530Y1321000D01*
X1664370Y1324500D01*
X1668970Y1325500D01*
X1673570Y1325000D01*
X1677400Y1323000D01*
X1685070Y1313000D01*
X1690430Y1308500D01*
X1698100Y1305500D01*
X1705000Y1304500D01*
Y1325500D01*
G01X1947830Y1411000D02*
X1945530Y1408000D01*
X1944000Y1404500D01*
Y1400500D01*
X1946300Y1396000D01*
X1950130Y1392500D01*
X1954730Y1390000D01*
X1962400Y1388000D01*
X1969300Y1387500D01*
X1976200Y1388500D01*
X1980800Y1390000D01*
X1985400Y1393000D01*
X1988470Y1396500D01*
X1990000Y1400000D01*
Y1403500D01*
X1988470Y1407000D01*
X1986170Y1410000D01*
X1983100Y1412500D01*
G01Y1424000D02*
X1986930Y1427000D01*
X1989230Y1430500D01*
X1990000Y1435000D01*
X1988470Y1439500D01*
X1985400Y1443000D01*
X1980030Y1445500D01*
X1973900Y1446000D01*
X1967770Y1445000D01*
X1963930Y1442500D01*
X1960870Y1439000D01*
X1960100Y1435500D01*
X1960870Y1432000D01*
X1963930Y1427500D01*
X1944000Y1429000D01*
Y1442500D01*
G01X1990000Y1470000D02*
X1944000D01*
X1953200Y1464000D01*
G01X1990000D02*
Y1476000D01*
G01X1920000Y1585000D02*
Y1565000D01*
G01X1630000Y1250000D02*
Y1270000D01*
G01X1792830Y1546000D02*
X1790530Y1543000D01*
X1789000Y1539500D01*
Y1535500D01*
X1791300Y1531000D01*
X1795130Y1527500D01*
X1799730Y1525000D01*
X1807400Y1523000D01*
X1814300Y1522500D01*
X1821200Y1523500D01*
X1825800Y1525000D01*
X1830400Y1528000D01*
X1833470Y1531500D01*
X1835000Y1535000D01*
Y1538500D01*
X1833470Y1542000D01*
X1831170Y1545000D01*
X1828100Y1547500D01*
G01X1835000Y1570000D02*
X1789000D01*
X1798200Y1564000D01*
G01X1835000D02*
Y1576000D01*
G01Y1605000D02*
X1789000D01*
X1798200Y1599000D01*
G01X1835000D02*
Y1611000D01*
G01X1685000Y1585000D02*
Y1565000D01*
G01X1785000Y1585000D02*
Y1565000D01*
G01X1680000Y1480000D02*
Y1460000D01*
G01X1663000Y1777500D02*
Y1747500D01*
X1683000Y1727500D01*
X1713000D01*
G01Y2262500D02*
X1663000D01*
Y2212500D01*
G01X1792830Y2636000D02*
X1790530Y2633000D01*
X1789000Y2629500D01*
Y2625500D01*
X1791300Y2621000D01*
X1795130Y2617500D01*
X1799730Y2615000D01*
X1807400Y2613000D01*
X1814300Y2612500D01*
X1821200Y2613500D01*
X1825800Y2615000D01*
X1830400Y2618000D01*
X1833470Y2621500D01*
X1835000Y2625000D01*
Y2628500D01*
X1833470Y2632000D01*
X1831170Y2635000D01*
X1828100Y2637500D01*
G01X1796670Y2650500D02*
X1792070Y2653500D01*
X1789770Y2657000D01*
X1789000Y2661000D01*
X1790530Y2666000D01*
X1794370Y2669500D01*
X1798970Y2670500D01*
X1803570Y2670000D01*
X1807400Y2668000D01*
X1815070Y2658000D01*
X1820430Y2653500D01*
X1828100Y2650500D01*
X1835000Y2649500D01*
Y2670500D01*
G01Y2695000D02*
X1789000D01*
X1798200Y2689000D01*
G01X1835000D02*
Y2701000D01*
G01Y2730000D02*
X1789000D01*
X1798200Y2724000D01*
G01X1835000D02*
Y2736000D01*
G01X1865000Y2510000D02*
Y2530000D01*
G01X1765000Y2510000D02*
Y2530000D01*
G01X1892830Y2711000D02*
X1890530Y2708000D01*
X1889000Y2704500D01*
Y2700500D01*
X1891300Y2696000D01*
X1895130Y2692500D01*
X1899730Y2690000D01*
X1907400Y2688000D01*
X1914300Y2687500D01*
X1921200Y2688500D01*
X1925800Y2690000D01*
X1930400Y2693000D01*
X1933470Y2696500D01*
X1935000Y2700000D01*
Y2703500D01*
X1933470Y2707000D01*
X1931170Y2710000D01*
X1928100Y2712500D01*
G01X1896670Y2725500D02*
X1892070Y2728500D01*
X1889770Y2732000D01*
X1889000Y2736000D01*
X1890530Y2741000D01*
X1894370Y2744500D01*
X1898970Y2745500D01*
X1903570Y2745000D01*
X1907400Y2743000D01*
X1915070Y2733000D01*
X1920430Y2728500D01*
X1928100Y2725500D01*
X1935000Y2724500D01*
Y2745500D01*
G01X1889000Y2770000D02*
X1890530Y2766000D01*
X1894370Y2763000D01*
X1898970Y2761000D01*
X1905100Y2759500D01*
X1912000Y2759000D01*
X1918900Y2759500D01*
X1925030Y2761000D01*
X1929630Y2763000D01*
X1933470Y2766000D01*
X1935000Y2770000D01*
X1933470Y2774000D01*
X1929630Y2777000D01*
X1925030Y2779000D01*
X1918900Y2780500D01*
X1912000Y2781000D01*
X1905100Y2780500D01*
X1898970Y2779000D01*
X1894370Y2777000D01*
X1890530Y2774000D01*
X1889000Y2770000D01*
G01X1935000Y2805000D02*
X1889000D01*
X1898200Y2799000D01*
G01X1935000D02*
Y2811000D01*
G01X1965000Y2585000D02*
Y2605000D01*
G01X1865000Y2585000D02*
Y2605000D01*
G01X1655000Y2405000D02*
Y2425000D01*
G01X1692830Y2641000D02*
X1690530Y2638000D01*
X1689000Y2634500D01*
Y2630500D01*
X1691300Y2626000D01*
X1695130Y2622500D01*
X1699730Y2620000D01*
X1707400Y2618000D01*
X1714300Y2617500D01*
X1721200Y2618500D01*
X1725800Y2620000D01*
X1730400Y2623000D01*
X1733470Y2626500D01*
X1735000Y2630000D01*
Y2633500D01*
X1733470Y2637000D01*
X1731170Y2640000D01*
X1728100Y2642500D01*
G01X1696670Y2655500D02*
X1692070Y2658500D01*
X1689770Y2662000D01*
X1689000Y2666000D01*
X1690530Y2671000D01*
X1694370Y2674500D01*
X1698970Y2675500D01*
X1703570Y2675000D01*
X1707400Y2673000D01*
X1715070Y2663000D01*
X1720430Y2658500D01*
X1728100Y2655500D01*
X1735000Y2654500D01*
Y2675500D01*
G01X1696670Y2690500D02*
X1692070Y2693500D01*
X1689770Y2697000D01*
X1689000Y2701000D01*
X1690530Y2706000D01*
X1694370Y2709500D01*
X1698970Y2710500D01*
X1703570Y2710000D01*
X1707400Y2708000D01*
X1715070Y2698000D01*
X1720430Y2693500D01*
X1728100Y2690500D01*
X1735000Y2689500D01*
Y2710500D01*
G01Y2735000D02*
X1689000D01*
X1698200Y2729000D01*
G01X1735000D02*
Y2741000D01*
G01X1765000Y2510000D02*
Y2530000D01*
G01X1665000Y2510000D02*
Y2530000D01*
G01X1955000Y2581000D02*
Y2601000D01*
G01X2411000Y777170D02*
X2408000Y779470D01*
X2404500Y781000D01*
X2400500D01*
X2396000Y778700D01*
X2392500Y774870D01*
X2390000Y770270D01*
X2388000Y762600D01*
X2387500Y755700D01*
X2388500Y748800D01*
X2390000Y744200D01*
X2393000Y739600D01*
X2396500Y736530D01*
X2400000Y735000D01*
X2403500D01*
X2407000Y736530D01*
X2410000Y738830D01*
X2412500Y741900D01*
G01X2435000Y735000D02*
Y781000D01*
X2429000Y771800D01*
G01Y735000D02*
X2441000D01*
G01X2460500Y773330D02*
X2463500Y777930D01*
X2467000Y780230D01*
X2471000Y781000D01*
X2476000Y779470D01*
X2479500Y775630D01*
X2480500Y771030D01*
X2480000Y766430D01*
X2478000Y762600D01*
X2468000Y754930D01*
X2463500Y749570D01*
X2460500Y741900D01*
X2459500Y735000D01*
X2480500D01*
G01X2385000Y890000D02*
Y870000D01*
G01X2277830Y1206000D02*
X2275530Y1203000D01*
X2274000Y1199500D01*
Y1195500D01*
X2276300Y1191000D01*
X2280130Y1187500D01*
X2284730Y1185000D01*
X2292400Y1183000D01*
X2299300Y1182500D01*
X2306200Y1183500D01*
X2310800Y1185000D01*
X2315400Y1188000D01*
X2318470Y1191500D01*
X2320000Y1195000D01*
Y1198500D01*
X2318470Y1202000D01*
X2316170Y1205000D01*
X2313100Y1207500D01*
G01Y1219000D02*
X2316930Y1222000D01*
X2319230Y1225500D01*
X2320000Y1230000D01*
X2318470Y1234500D01*
X2315400Y1238000D01*
X2310030Y1240500D01*
X2303900Y1241000D01*
X2297770Y1240000D01*
X2293930Y1237500D01*
X2290870Y1234000D01*
X2290100Y1230500D01*
X2290870Y1227000D01*
X2293930Y1222500D01*
X2274000Y1224000D01*
Y1237500D01*
G01X2281670Y1255500D02*
X2277070Y1258500D01*
X2274770Y1262000D01*
X2274000Y1266000D01*
X2275530Y1271000D01*
X2279370Y1274500D01*
X2283970Y1275500D01*
X2288570Y1275000D01*
X2292400Y1273000D01*
X2300070Y1263000D01*
X2305430Y1258500D01*
X2313100Y1255500D01*
X2320000Y1254500D01*
Y1275500D01*
G01X2350000Y1165000D02*
Y1135000D01*
G01X2110000Y951000D02*
Y905000D01*
X2130000D01*
G01X2155000D02*
Y951000D01*
X2149000Y941800D01*
G01Y905000D02*
X2161000D01*
G01X2275000Y975000D02*
X2255000D01*
G01X2275000Y875000D02*
X2255000D01*
G01X2020000Y1585000D02*
Y1565000D01*
G01X2126000Y1507170D02*
X2123000Y1509470D01*
X2119500Y1511000D01*
X2115500D01*
X2111000Y1508700D01*
X2107500Y1504870D01*
X2105000Y1500270D01*
X2103000Y1492600D01*
X2102500Y1485700D01*
X2103500Y1478800D01*
X2105000Y1474200D01*
X2108000Y1469600D01*
X2111500Y1466530D01*
X2115000Y1465000D01*
X2118500D01*
X2122000Y1466530D01*
X2125000Y1468830D01*
X2127500Y1471900D01*
G01X2140500Y1484170D02*
X2144000Y1489530D01*
X2147000Y1492600D01*
X2151000Y1494130D01*
X2154500Y1492600D01*
X2157000Y1489530D01*
X2159000Y1484930D01*
X2159500Y1479570D01*
X2159000Y1474970D01*
X2157000Y1470370D01*
X2154000Y1466530D01*
X2150500Y1465000D01*
X2146500Y1466530D01*
X2143000Y1471130D01*
X2141000Y1478030D01*
X2140500Y1485700D01*
X2141500Y1495670D01*
X2143000Y1501030D01*
X2145500Y1506400D01*
X2149000Y1510230D01*
X2152500Y1511000D01*
X2156000Y1509470D01*
X2158500Y1505630D01*
G01X2185000Y1465000D02*
Y1511000D01*
X2179000Y1501800D01*
G01Y1465000D02*
X2191000D01*
G01X2135000Y1530000D02*
X2155000D01*
G01X2135000Y1630000D02*
X2155000D01*
G01X2193000Y1777500D02*
Y1727500D01*
X2143000D01*
G01X2355000Y2175000D02*
X2375000D01*
G01X2355000Y2275000D02*
X2375000D01*
G01X2306000Y2285000D02*
X2326000D01*
G01X2306000Y2385000D02*
X2326000D01*
G01X2143000Y2262500D02*
X2193000D01*
Y2212500D01*
G01X2251000Y2827170D02*
X2248000Y2829470D01*
X2244500Y2831000D01*
X2240500D01*
X2236000Y2828700D01*
X2232500Y2824870D01*
X2230000Y2820270D01*
X2228000Y2812600D01*
X2227500Y2805700D01*
X2228500Y2798800D01*
X2230000Y2794200D01*
X2233000Y2789600D01*
X2236500Y2786530D01*
X2240000Y2785000D01*
X2243500D01*
X2247000Y2786530D01*
X2250000Y2788830D01*
X2252500Y2791900D01*
G01X2275000Y2785000D02*
Y2831000D01*
X2269000Y2821800D01*
G01Y2785000D02*
X2281000D01*
G01X2310000D02*
X2313500Y2785770D01*
X2317500Y2788070D01*
X2320000Y2791900D01*
X2321000Y2797270D01*
X2320000Y2802630D01*
X2317000Y2807230D01*
X2312500Y2809530D01*
X2307500D01*
X2304500Y2811070D01*
X2302000Y2814900D01*
X2301000Y2820270D01*
X2302500Y2825630D01*
X2306000Y2829470D01*
X2310000Y2831000D01*
X2314000Y2829470D01*
X2317500Y2825630D01*
X2319000Y2820270D01*
X2318000Y2814900D01*
X2315500Y2811070D01*
X2312500Y2809530D01*
X2307500D01*
X2303000Y2807230D01*
X2300000Y2802630D01*
X2299000Y2797270D01*
X2300000Y2791900D01*
X2302500Y2788070D01*
X2306500Y2785770D01*
X2310000Y2785000D01*
G01X2345000D02*
Y2831000D01*
X2339000Y2821800D01*
G01Y2785000D02*
X2351000D01*
G01X2345000Y2690000D02*
X2365000D01*
G01X2345000Y2395000D02*
X2365000D01*
G01X2345000Y2495000D02*
X2365000D01*
G01X2171000Y2502170D02*
X2168000Y2504470D01*
X2164500Y2506000D01*
X2160500D01*
X2156000Y2503700D01*
X2152500Y2499870D01*
X2150000Y2495270D01*
X2148000Y2487600D01*
X2147500Y2480700D01*
X2148500Y2473800D01*
X2150000Y2469200D01*
X2153000Y2464600D01*
X2156500Y2461530D01*
X2160000Y2460000D01*
X2163500D01*
X2167000Y2461530D01*
X2170000Y2463830D01*
X2172500Y2466900D01*
G01X2195000Y2460000D02*
Y2506000D01*
X2189000Y2496800D01*
G01Y2460000D02*
X2201000D01*
G01X2221500Y2465370D02*
X2225000Y2461530D01*
X2229000Y2460000D01*
X2233000Y2461530D01*
X2236500Y2466130D01*
X2239000Y2473030D01*
X2240000Y2479930D01*
Y2488370D01*
X2239000Y2495270D01*
X2236500Y2501400D01*
X2233500Y2504470D01*
X2230000Y2506000D01*
X2226000Y2504470D01*
X2223000Y2501400D01*
X2221000Y2496800D01*
X2220000Y2490670D01*
X2221000Y2485300D01*
X2223500Y2479930D01*
X2226500Y2476870D01*
X2230000Y2476100D01*
X2234000Y2477630D01*
X2237000Y2481470D01*
X2240000Y2488370D01*
G01X2265000Y2460000D02*
Y2506000D01*
X2259000Y2496800D01*
G01Y2460000D02*
X2271000D01*
G01X2155000Y2585000D02*
Y2605000D01*
G01X2055000Y2585000D02*
Y2605000D01*
G01Y2581000D02*
Y2601000D01*
G01X2250000Y2580000D02*
Y2600000D01*
G01X2150000Y2580000D02*
Y2600000D01*
G01X2069000Y2495000D02*
X2049000D01*
G01X2069000Y2395000D02*
X2049000D01*
G01X2350000Y2496000D02*
X2430000D01*
X2450000Y2516000D01*
Y2686000D01*
X2350000D01*
Y2496000D01*
G01X2011000Y2800000D02*
Y2720000D01*
X2031000Y2700000D01*
X2201000D01*
Y2800000D01*
X2011000D01*
G01X2386000Y3142170D02*
X2383000Y3144470D01*
X2379500Y3146000D01*
X2375500D01*
X2371000Y3143700D01*
X2367500Y3139870D01*
X2365000Y3135270D01*
X2363000Y3127600D01*
X2362500Y3120700D01*
X2363500Y3113800D01*
X2365000Y3109200D01*
X2368000Y3104600D01*
X2371500Y3101530D01*
X2375000Y3100000D01*
X2378500D01*
X2382000Y3101530D01*
X2385000Y3103830D01*
X2387500Y3106900D01*
G01X2410000Y3100000D02*
Y3146000D01*
X2404000Y3136800D01*
G01Y3100000D02*
X2416000D01*
G01X2444000D02*
X2445000Y3109970D01*
X2446500Y3118400D01*
X2448500Y3126070D01*
X2451000Y3134500D01*
X2455000Y3146000D01*
X2435000D01*
G01X2469000Y3106900D02*
X2472000Y3103070D01*
X2475500Y3100770D01*
X2480000Y3100000D01*
X2484500Y3101530D01*
X2488000Y3104600D01*
X2490500Y3109970D01*
X2491000Y3116100D01*
X2490000Y3122230D01*
X2487500Y3126070D01*
X2484000Y3129130D01*
X2480500Y3129900D01*
X2477000Y3129130D01*
X2472500Y3126070D01*
X2474000Y3146000D01*
X2487500D01*
G01X2265000Y3095000D02*
X2245000D01*
G01X2345000Y2790000D02*
X2365000D01*
G01X2350000Y2877500D02*
Y2897500D01*
G01X2270000Y3085000D02*
X2250000D01*
G01X2270000Y2985000D02*
X2250000D01*
G01X2050000Y2861000D02*
Y2815000D01*
X2070000D01*
G01X2095000D02*
Y2861000D01*
X2089000Y2851800D01*
G01Y2815000D02*
X2101000D01*
G01X2121500Y2820370D02*
X2125000Y2816530D01*
X2129000Y2815000D01*
X2133000Y2816530D01*
X2136500Y2821130D01*
X2139000Y2828030D01*
X2140000Y2834930D01*
Y2843370D01*
X2139000Y2850270D01*
X2136500Y2856400D01*
X2133500Y2859470D01*
X2130000Y2861000D01*
X2126000Y2859470D01*
X2123000Y2856400D01*
X2121000Y2851800D01*
X2120000Y2845670D01*
X2121000Y2840300D01*
X2123500Y2834930D01*
X2126500Y2831870D01*
X2130000Y2831100D01*
X2134000Y2832630D01*
X2137000Y2836470D01*
X2140000Y2843370D01*
G01X2154000Y2824200D02*
X2157000Y2818830D01*
X2161000Y2815770D01*
X2165500Y2815000D01*
X2169500Y2815770D01*
X2173500Y2819600D01*
X2176000Y2824200D01*
X2176500Y2828800D01*
X2175500Y2834170D01*
X2172000Y2838000D01*
X2168500Y2839530D01*
X2164000D01*
G01X2168500D02*
X2171500Y2841830D01*
X2174000Y2845670D01*
X2175000Y2850270D01*
X2174000Y2854870D01*
X2171500Y2858700D01*
X2167000Y2861000D01*
X2162500Y2860230D01*
X2158000Y2857170D01*
G01X2216000Y3257170D02*
X2213000Y3259470D01*
X2209500Y3261000D01*
X2205500D01*
X2201000Y3258700D01*
X2197500Y3254870D01*
X2195000Y3250270D01*
X2193000Y3242600D01*
X2192500Y3235700D01*
X2193500Y3228800D01*
X2195000Y3224200D01*
X2198000Y3219600D01*
X2201500Y3216530D01*
X2205000Y3215000D01*
X2208500D01*
X2212000Y3216530D01*
X2215000Y3218830D01*
X2217500Y3221900D01*
G01X2240000Y3215000D02*
Y3261000D01*
X2234000Y3251800D01*
G01Y3215000D02*
X2246000D01*
G01X2274000D02*
X2275000Y3224970D01*
X2276500Y3233400D01*
X2278500Y3241070D01*
X2281000Y3249500D01*
X2285000Y3261000D01*
X2265000D01*
G01X2309000Y3215000D02*
X2310000Y3224970D01*
X2311500Y3233400D01*
X2313500Y3241070D01*
X2316000Y3249500D01*
X2320000Y3261000D01*
X2300000D01*
G01X2265000Y3195000D02*
X2245000D01*
G01X2511700Y1188800D02*
X2501700D01*
Y1003800D01*
X2511700Y993800D01*
G01X2485000Y890000D02*
Y870000D01*
G01X2460000Y1135000D02*
Y1165000D01*
G01X2526000Y1997170D02*
X2523000Y1999470D01*
X2519500Y2001000D01*
X2515500D01*
X2511000Y1998700D01*
X2507500Y1994870D01*
X2505000Y1990270D01*
X2503000Y1982600D01*
X2502500Y1975700D01*
X2503500Y1968800D01*
X2505000Y1964200D01*
X2508000Y1959600D01*
X2511500Y1956530D01*
X2515000Y1955000D01*
X2518500D01*
X2522000Y1956530D01*
X2525000Y1958830D01*
X2527500Y1961900D01*
G01X2550000Y1955000D02*
Y2001000D01*
X2544000Y1991800D01*
G01Y1955000D02*
X2556000D01*
G01X2574000Y1964200D02*
X2577000Y1958830D01*
X2581000Y1955770D01*
X2585500Y1955000D01*
X2589500Y1955770D01*
X2593500Y1959600D01*
X2596000Y1964200D01*
X2596500Y1968800D01*
X2595500Y1974170D01*
X2592000Y1978000D01*
X2588500Y1979530D01*
X2584000D01*
G01X2588500D02*
X2591500Y1981830D01*
X2594000Y1985670D01*
X2595000Y1990270D01*
X2594000Y1994870D01*
X2591500Y1998700D01*
X2587000Y2001000D01*
X2582500Y2000230D01*
X2578000Y1997170D01*
G01X2620000Y1955000D02*
Y2001000D01*
X2614000Y1991800D01*
G01Y1955000D02*
X2626000D01*
G01X2395000Y1925000D02*
X2415000D01*
G01X2576000Y1862170D02*
X2573000Y1864470D01*
X2569500Y1866000D01*
X2565500D01*
X2561000Y1863700D01*
X2557500Y1859870D01*
X2555000Y1855270D01*
X2553000Y1847600D01*
X2552500Y1840700D01*
X2553500Y1833800D01*
X2555000Y1829200D01*
X2558000Y1824600D01*
X2561500Y1821530D01*
X2565000Y1820000D01*
X2568500D01*
X2572000Y1821530D01*
X2575000Y1823830D01*
X2577500Y1826900D01*
G01X2600000Y1820000D02*
Y1866000D01*
X2594000Y1856800D01*
G01Y1820000D02*
X2606000D01*
G01X2625500Y1858330D02*
X2628500Y1862930D01*
X2632000Y1865230D01*
X2636000Y1866000D01*
X2641000Y1864470D01*
X2644500Y1860630D01*
X2645500Y1856030D01*
X2645000Y1851430D01*
X2643000Y1847600D01*
X2633000Y1839930D01*
X2628500Y1834570D01*
X2625500Y1826900D01*
X2624500Y1820000D01*
X2645500D01*
G01X2670000D02*
Y1866000D01*
X2664000Y1856800D01*
G01Y1820000D02*
X2676000D01*
G01X2455000Y1895000D02*
X2435000D01*
G01X2455000Y1795000D02*
X2435000D01*
G01X2765000Y2380000D02*
X2785000D01*
G01X2395000Y2025000D02*
X2415000D01*
G01X2476000Y2207170D02*
X2473000Y2209470D01*
X2469500Y2211000D01*
X2465500D01*
X2461000Y2208700D01*
X2457500Y2204870D01*
X2455000Y2200270D01*
X2453000Y2192600D01*
X2452500Y2185700D01*
X2453500Y2178800D01*
X2455000Y2174200D01*
X2458000Y2169600D01*
X2461500Y2166530D01*
X2465000Y2165000D01*
X2468500D01*
X2472000Y2166530D01*
X2475000Y2168830D01*
X2477500Y2171900D01*
G01X2500000Y2165000D02*
Y2211000D01*
X2494000Y2201800D01*
G01Y2165000D02*
X2506000D01*
G01X2524000Y2171900D02*
X2527000Y2168070D01*
X2530500Y2165770D01*
X2535000Y2165000D01*
X2539500Y2166530D01*
X2543000Y2169600D01*
X2545500Y2174970D01*
X2546000Y2181100D01*
X2545000Y2187230D01*
X2542500Y2191070D01*
X2539000Y2194130D01*
X2535500Y2194900D01*
X2532000Y2194130D01*
X2527500Y2191070D01*
X2529000Y2211000D01*
X2542500D01*
G01X2570000Y2165000D02*
Y2211000D01*
X2564000Y2201800D01*
G01Y2165000D02*
X2576000D01*
G01X2447830Y2386000D02*
X2445530Y2383000D01*
X2444000Y2379500D01*
Y2375500D01*
X2446300Y2371000D01*
X2450130Y2367500D01*
X2454730Y2365000D01*
X2462400Y2363000D01*
X2469300Y2362500D01*
X2476200Y2363500D01*
X2480800Y2365000D01*
X2485400Y2368000D01*
X2488470Y2371500D01*
X2490000Y2375000D01*
Y2378500D01*
X2488470Y2382000D01*
X2486170Y2385000D01*
X2483100Y2387500D01*
G01X2490000Y2410000D02*
X2444000D01*
X2453200Y2404000D01*
G01X2490000D02*
Y2416000D01*
G01Y2444000D02*
X2480030Y2445000D01*
X2471600Y2446500D01*
X2463930Y2448500D01*
X2455500Y2451000D01*
X2444000Y2455000D01*
Y2435000D01*
G01X2490000Y2486000D02*
X2444000D01*
X2476970Y2467500D01*
Y2492500D01*
G01X2765000Y2285000D02*
X2785000D01*
G01X2765000Y2385000D02*
X2785000D01*
G01X2590000Y2380000D02*
X2570000D01*
G01X2505000Y2070000D02*
Y2116000D01*
X2517500D01*
X2521500Y2113700D01*
X2524000Y2110630D01*
X2525000Y2104500D01*
X2524000Y2098370D01*
X2521000Y2094530D01*
X2517500Y2092230D01*
X2505000D01*
G01X2517500D02*
X2525000Y2070000D01*
G01X2550000D02*
Y2116000D01*
X2544000Y2106800D01*
G01Y2070000D02*
X2556000D01*
G01X2591000D02*
Y2116000D01*
X2572500Y2083030D01*
X2597500D01*
G01X2620000Y2070000D02*
Y2116000D01*
X2614000Y2106800D01*
G01Y2070000D02*
X2626000D01*
G01X2395000Y2045000D02*
X2415000D01*
G01X2395000Y2145000D02*
X2415000D01*
G01X2530000Y2230000D02*
Y2276000D01*
X2542500D01*
X2546500Y2273700D01*
X2549000Y2270630D01*
X2550000Y2264500D01*
X2549000Y2258370D01*
X2546000Y2254530D01*
X2542500Y2252230D01*
X2530000D01*
G01X2542500D02*
X2550000Y2230000D01*
G01X2575000D02*
Y2276000D01*
X2569000Y2266800D01*
G01Y2230000D02*
X2581000D01*
G01X2609000D02*
X2610000Y2239970D01*
X2611500Y2248400D01*
X2613500Y2256070D01*
X2616000Y2264500D01*
X2620000Y2276000D01*
X2600000D01*
G01X2645000Y2230000D02*
Y2276000D01*
X2639000Y2266800D01*
G01Y2230000D02*
X2651000D01*
G01X2570000Y2285000D02*
X2590000D01*
G01X2570000Y2385000D02*
X2590000D01*
G01X2765000Y2480000D02*
X2785000D01*
G01X2577830Y2561000D02*
X2575530Y2558000D01*
X2574000Y2554500D01*
Y2550500D01*
X2576300Y2546000D01*
X2580130Y2542500D01*
X2584730Y2540000D01*
X2592400Y2538000D01*
X2599300Y2537500D01*
X2606200Y2538500D01*
X2610800Y2540000D01*
X2615400Y2543000D01*
X2618470Y2546500D01*
X2620000Y2550000D01*
Y2553500D01*
X2618470Y2557000D01*
X2616170Y2560000D01*
X2613100Y2562500D01*
G01X2620000Y2585000D02*
X2574000D01*
X2583200Y2579000D01*
G01X2620000D02*
Y2591000D01*
G01Y2619000D02*
X2610030Y2620000D01*
X2601600Y2621500D01*
X2593930Y2623500D01*
X2585500Y2626000D01*
X2574000Y2630000D01*
Y2610000D01*
G01X2600830Y2645500D02*
X2595470Y2649000D01*
X2592400Y2652000D01*
X2590870Y2656000D01*
X2592400Y2659500D01*
X2595470Y2662000D01*
X2600070Y2664000D01*
X2605430Y2664500D01*
X2610030Y2664000D01*
X2614630Y2662000D01*
X2618470Y2659000D01*
X2620000Y2655500D01*
X2618470Y2651500D01*
X2613870Y2648000D01*
X2606970Y2646000D01*
X2599300Y2645500D01*
X2589330Y2646500D01*
X2583970Y2648000D01*
X2578600Y2650500D01*
X2574770Y2654000D01*
X2574000Y2657500D01*
X2575530Y2661000D01*
X2579370Y2663500D01*
G01X2560000Y2580000D02*
Y2600000D01*
G01X2460000Y2580000D02*
Y2600000D01*
G01X2576000Y2512170D02*
X2573000Y2514470D01*
X2569500Y2516000D01*
X2565500D01*
X2561000Y2513700D01*
X2557500Y2509870D01*
X2555000Y2505270D01*
X2553000Y2497600D01*
X2552500Y2490700D01*
X2553500Y2483800D01*
X2555000Y2479200D01*
X2558000Y2474600D01*
X2561500Y2471530D01*
X2565000Y2470000D01*
X2568500D01*
X2572000Y2471530D01*
X2575000Y2473830D01*
X2577500Y2476900D01*
G01X2600000Y2470000D02*
Y2516000D01*
X2594000Y2506800D01*
G01Y2470000D02*
X2606000D01*
G01X2634000D02*
X2635000Y2479970D01*
X2636500Y2488400D01*
X2638500Y2496070D01*
X2641000Y2504500D01*
X2645000Y2516000D01*
X2625000D01*
G01X2659000Y2479200D02*
X2662000Y2473830D01*
X2666000Y2470770D01*
X2670500Y2470000D01*
X2674500Y2470770D01*
X2678500Y2474600D01*
X2681000Y2479200D01*
X2681500Y2483800D01*
X2680500Y2489170D01*
X2677000Y2493000D01*
X2673500Y2494530D01*
X2669000D01*
G01X2673500D02*
X2676500Y2496830D01*
X2679000Y2500670D01*
X2680000Y2505270D01*
X2679000Y2509870D01*
X2676500Y2513700D01*
X2672000Y2516000D01*
X2667500Y2515230D01*
X2663000Y2512170D01*
G01X2590000Y2480000D02*
X2570000D01*
G01X2455000Y2746000D02*
Y2700000D01*
X2475000D01*
G01X2500000D02*
Y2746000D01*
X2494000Y2736800D01*
G01Y2700000D02*
X2506000D01*
G01X2534000D02*
X2535000Y2709970D01*
X2536500Y2718400D01*
X2538500Y2726070D01*
X2541000Y2734500D01*
X2545000Y2746000D01*
X2525000D01*
G01X2560500Y2738330D02*
X2563500Y2742930D01*
X2567000Y2745230D01*
X2571000Y2746000D01*
X2576000Y2744470D01*
X2579500Y2740630D01*
X2580500Y2736030D01*
X2580000Y2731430D01*
X2578000Y2727600D01*
X2568000Y2719930D01*
X2563500Y2714570D01*
X2560500Y2706900D01*
X2559500Y2700000D01*
X2580500D01*
G01X2435000Y2985000D02*
X2455000D01*
G01X2435000Y3085000D02*
X2455000D01*
G01X2450000Y2877500D02*
Y2897500D01*
G01X2839000Y1111000D02*
Y1078030D01*
X2841000Y1071130D01*
X2845000Y1066530D01*
X2850000Y1065000D01*
X2855000Y1066530D01*
X2859000Y1071130D01*
X2861000Y1078030D01*
Y1111000D01*
G01X2875500Y1103330D02*
X2878500Y1107930D01*
X2882000Y1110230D01*
X2886000Y1111000D01*
X2891000Y1109470D01*
X2894500Y1105630D01*
X2895500Y1101030D01*
X2895000Y1096430D01*
X2893000Y1092600D01*
X2883000Y1084930D01*
X2878500Y1079570D01*
X2875500Y1071900D01*
X2874500Y1065000D01*
X2895500D01*
G01X2811700Y1188800D02*
X2821700D01*
Y998800D01*
X2811700D01*
G01X2940000Y1180000D02*
X2960000D01*
G01X2941000Y1352170D02*
X2938000Y1354470D01*
X2934500Y1356000D01*
X2930500D01*
X2926000Y1353700D01*
X2922500Y1349870D01*
X2920000Y1345270D01*
X2918000Y1337600D01*
X2917500Y1330700D01*
X2918500Y1323800D01*
X2920000Y1319200D01*
X2923000Y1314600D01*
X2926500Y1311530D01*
X2930000Y1310000D01*
X2933500D01*
X2937000Y1311530D01*
X2940000Y1313830D01*
X2942500Y1316900D01*
G01X2971000Y1310000D02*
Y1356000D01*
X2952500Y1323030D01*
X2977500D01*
G01X3000000Y1310000D02*
Y1356000D01*
X2994000Y1346800D01*
G01Y1310000D02*
X3006000D01*
G01X2940000Y1280000D02*
X2960000D01*
G01X2906000Y2352170D02*
X2903000Y2354470D01*
X2899500Y2356000D01*
X2895500D01*
X2891000Y2353700D01*
X2887500Y2349870D01*
X2885000Y2345270D01*
X2883000Y2337600D01*
X2882500Y2330700D01*
X2883500Y2323800D01*
X2885000Y2319200D01*
X2888000Y2314600D01*
X2891500Y2311530D01*
X2895000Y2310000D01*
X2898500D01*
X2902000Y2311530D01*
X2905000Y2313830D01*
X2907500Y2316900D01*
G01X2930000Y2310000D02*
Y2356000D01*
X2924000Y2346800D01*
G01Y2310000D02*
X2936000D01*
G01X2964000D02*
X2965000Y2319970D01*
X2966500Y2328400D01*
X2968500Y2336070D01*
X2971000Y2344500D01*
X2975000Y2356000D01*
X2955000D01*
G01X2990500Y2348330D02*
X2993500Y2352930D01*
X2997000Y2355230D01*
X3001000Y2356000D01*
X3006000Y2354470D01*
X3009500Y2350630D01*
X3010500Y2346030D01*
X3010000Y2341430D01*
X3008000Y2337600D01*
X2998000Y2329930D01*
X2993500Y2324570D01*
X2990500Y2316900D01*
X2989500Y2310000D01*
X3010500D01*
G01X2906000Y2452170D02*
X2903000Y2454470D01*
X2899500Y2456000D01*
X2895500D01*
X2891000Y2453700D01*
X2887500Y2449870D01*
X2885000Y2445270D01*
X2883000Y2437600D01*
X2882500Y2430700D01*
X2883500Y2423800D01*
X2885000Y2419200D01*
X2888000Y2414600D01*
X2891500Y2411530D01*
X2895000Y2410000D01*
X2898500D01*
X2902000Y2411530D01*
X2905000Y2413830D01*
X2907500Y2416900D01*
G01X2930000Y2410000D02*
Y2456000D01*
X2924000Y2446800D01*
G01Y2410000D02*
X2936000D01*
G01X2964000D02*
X2965000Y2419970D01*
X2966500Y2428400D01*
X2968500Y2436070D01*
X2971000Y2444500D01*
X2975000Y2456000D01*
X2955000D01*
G01X3000000Y2410000D02*
Y2456000D01*
X2994000Y2446800D01*
G01Y2410000D02*
X3006000D01*
G01X3360500Y3255000D02*
Y3301000D01*
X3379500D01*
G01X3372500Y3278770D02*
X3360500D01*
G01X3399000Y3301000D02*
X3411000D01*
G01X3405000D02*
Y3255000D01*
G01X3399000D02*
X3411000D01*
G01X3429000D02*
Y3301000D01*
X3439000D01*
X3443000Y3298700D01*
X3446000Y3295630D01*
X3448500Y3291030D01*
X3450500Y3285670D01*
X3451000Y3278000D01*
X3450500Y3270330D01*
X3448500Y3264970D01*
X3446000Y3260370D01*
X3443000Y3257300D01*
X3439000Y3255000D01*
X3429000D01*
G01X3464000Y3301000D02*
Y3268030D01*
X3466000Y3261130D01*
X3470000Y3256530D01*
X3475000Y3255000D01*
X3480000Y3256530D01*
X3484000Y3261130D01*
X3486000Y3268030D01*
Y3301000D01*
G01X3499000Y3264200D02*
X3502000Y3258830D01*
X3506000Y3255770D01*
X3510500Y3255000D01*
X3514500Y3255770D01*
X3518500Y3259600D01*
X3521000Y3264200D01*
X3521500Y3268800D01*
X3520500Y3274170D01*
X3517000Y3278000D01*
X3513500Y3279530D01*
X3509000D01*
G01X3513500D02*
X3516500Y3281830D01*
X3519000Y3285670D01*
X3520000Y3290270D01*
X3519000Y3294870D01*
X3516500Y3298700D01*
X3512000Y3301000D01*
X3507500Y3300230D01*
X3503000Y3297170D01*
G01X3701500Y3446500D02*
G02X3856500Y3291500I4769J-150231D01*
G02X3701500Y3446500I-155000J0D01*
G01X3670500Y370000D02*
Y416000D01*
X3689500D01*
G01X3682500Y393770D02*
X3670500D01*
G01X3709000Y416000D02*
X3721000D01*
G01X3715000D02*
Y370000D01*
G01X3709000D02*
X3721000D01*
G01X3739000D02*
Y416000D01*
X3749000D01*
X3753000Y413700D01*
X3756000Y410630D01*
X3758500Y406030D01*
X3760500Y400670D01*
X3761000Y393000D01*
X3760500Y385330D01*
X3758500Y379970D01*
X3756000Y375370D01*
X3753000Y372300D01*
X3749000Y370000D01*
X3739000D01*
G01X3774000Y416000D02*
Y383030D01*
X3776000Y376130D01*
X3780000Y371530D01*
X3785000Y370000D01*
X3790000Y371530D01*
X3794000Y376130D01*
X3796000Y383030D01*
Y416000D01*
G01X3820000Y370000D02*
Y416000D01*
X3814000Y406800D01*
G01Y370000D02*
X3826000D01*
G01X3751600Y346800D02*
G02X3906600Y191800I4769J-150231D01*
G02X3751600Y346800I-155000J0D01*
G54D11*
G01X1848330Y4045000D02*
Y4175000D01*
X1881670D01*
X1892330Y4168500D01*
X1899000Y4159830D01*
X1901670Y4142500D01*
X1899000Y4125170D01*
X1891000Y4114330D01*
X1881670Y4107830D01*
X1848330D01*
G01X1881670D02*
X1901670Y4045000D01*
G01X1960000Y4103500D02*
X2002670D01*
X1998670Y4118670D01*
X1992000Y4127330D01*
X1982670Y4131660D01*
X1973330Y4129500D01*
X1965330Y4123000D01*
X1960000Y4107830D01*
X1957330Y4094830D01*
Y4081830D01*
X1960000Y4068830D01*
X1966670Y4055830D01*
X1974670Y4047170D01*
X1984000Y4045000D01*
X1993330Y4049330D01*
X2002670Y4062330D01*
G01X2061000Y4131660D02*
X2085000Y4045000D01*
X2109000Y4131660D01*
G01X2295000Y4045000D02*
Y4175000D01*
X2279000Y4149000D01*
G01Y4045000D02*
X2311000D01*
G01X2400000Y4040670D02*
X2397330Y4042830D01*
Y4047170D01*
X2400000Y4049330D01*
X2402670Y4047170D01*
Y4042830D01*
X2400000Y4040670D01*
G01X2505000Y4045000D02*
Y4175000D01*
X2489000Y4149000D01*
G01Y4045000D02*
X2521000D01*
G01X1894330Y4334170D02*
X1886330Y4340670D01*
X1877000Y4345000D01*
X1866330D01*
X1854330Y4338500D01*
X1845000Y4327670D01*
X1838330Y4314670D01*
X1833000Y4293000D01*
X1831670Y4273500D01*
X1834330Y4254000D01*
X1838330Y4241000D01*
X1846330Y4228000D01*
X1855670Y4219330D01*
X1865000Y4215000D01*
X1874330D01*
X1883670Y4219330D01*
X1891670Y4225830D01*
X1898330Y4234500D01*
G01X1999330Y4334170D02*
X1991330Y4340670D01*
X1982000Y4345000D01*
X1971330D01*
X1959330Y4338500D01*
X1950000Y4327670D01*
X1943330Y4314670D01*
X1938000Y4293000D01*
X1936670Y4273500D01*
X1939330Y4254000D01*
X1943330Y4241000D01*
X1951330Y4228000D01*
X1960670Y4219330D01*
X1970000Y4215000D01*
X1979330D01*
X1988670Y4219330D01*
X1996670Y4225830D01*
X2003330Y4234500D01*
G01X2075000Y4215000D02*
Y4345000D01*
X2059000Y4319000D01*
G01Y4215000D02*
X2091000D01*
G01X2154670Y4323330D02*
X2162670Y4336330D01*
X2172000Y4342830D01*
X2182670Y4345000D01*
X2196000Y4340670D01*
X2205330Y4329830D01*
X2208000Y4316840D01*
X2206670Y4303830D01*
X2201330Y4293000D01*
X2174670Y4271330D01*
X2162670Y4256170D01*
X2154670Y4234500D01*
X2152000Y4215000D01*
X2208000D01*
G01X2285000Y4345000D02*
X2274330Y4340670D01*
X2266330Y4329830D01*
X2261000Y4316840D01*
X2257000Y4299500D01*
X2255670Y4280000D01*
X2257000Y4260500D01*
X2261000Y4243160D01*
X2266330Y4230160D01*
X2274330Y4219330D01*
X2285000Y4215000D01*
X2295670Y4219330D01*
X2303670Y4230160D01*
X2309000Y4243160D01*
X2313000Y4260500D01*
X2314330Y4280000D01*
X2313000Y4299500D01*
X2309000Y4316840D01*
X2303670Y4329830D01*
X2295670Y4340670D01*
X2285000Y4345000D01*
G01X2370000Y4301660D02*
X2410000Y4215000D01*
G01Y4301660D02*
X2370000Y4215000D01*
G01X2521670D02*
X2468330D01*
Y4345000D01*
X2521670D01*
G01X2500330Y4282170D02*
X2468330D01*
G01X2565330Y4215000D02*
Y4345000D01*
X2600000Y4236670D01*
X2634670Y4345000D01*
Y4215000D01*
G01X2826000D02*
Y4345000D01*
X2776670Y4251830D01*
X2843330D01*
G01X2889670Y4323330D02*
X2897670Y4336330D01*
X2907000Y4342830D01*
X2917670Y4345000D01*
X2931000Y4340670D01*
X2940330Y4329830D01*
X2943000Y4316840D01*
X2941670Y4303830D01*
X2936330Y4293000D01*
X2909670Y4271330D01*
X2897670Y4256170D01*
X2889670Y4234500D01*
X2887000Y4215000D01*
X2943000D01*
G01X3020000Y4345000D02*
X3009330Y4340670D01*
X3001330Y4329830D01*
X2996000Y4316840D01*
X2992000Y4299500D01*
X2990670Y4280000D01*
X2992000Y4260500D01*
X2996000Y4243160D01*
X3001330Y4230160D01*
X3009330Y4219330D01*
X3020000Y4215000D01*
X3030670Y4219330D01*
X3038670Y4230160D01*
X3044000Y4243160D01*
X3048000Y4260500D01*
X3049330Y4280000D01*
X3048000Y4299500D01*
X3044000Y4316840D01*
X3038670Y4329830D01*
X3030670Y4340670D01*
X3020000Y4345000D01*
G01X3107670Y4258330D02*
X3142330D01*
G01X3246000Y4215000D02*
Y4345000D01*
X3196670Y4251830D01*
X3263330D01*
G01X3332330Y4215000D02*
X3335000Y4243160D01*
X3339000Y4267000D01*
X3344330Y4288670D01*
X3351000Y4312500D01*
X3361670Y4345000D01*
X3308330D01*
G01X3440000D02*
X3429330Y4340670D01*
X3421330Y4329830D01*
X3416000Y4316840D01*
X3412000Y4299500D01*
X3410670Y4280000D01*
X3412000Y4260500D01*
X3416000Y4243160D01*
X3421330Y4230160D01*
X3429330Y4219330D01*
X3440000Y4215000D01*
X3450670Y4219330D01*
X3458670Y4230160D01*
X3464000Y4243160D01*
X3468000Y4260500D01*
X3469330Y4280000D01*
X3468000Y4299500D01*
X3464000Y4316840D01*
X3458670Y4329830D01*
X3450670Y4340670D01*
X3440000Y4345000D01*
G01X3510330Y4215000D02*
Y4345000D01*
X3545000Y4236670D01*
X3579670Y4345000D01*
Y4215000D01*
G01X3622000D02*
Y4345000D01*
G01X3678000D02*
Y4215000D01*
G01Y4280000D02*
X3622000D01*
G01X3735000Y4301660D02*
X3775000D01*
X3735000Y4215000D01*
X3775000D01*
G54D12*
G01X1870250Y4669330D02*
X1870750Y4672000D01*
G01X1871250D02*
X1870750Y4669330D01*
G01X1870000Y4670330D02*
X1871500D01*
G01Y4671000D02*
X1870000D01*
G01X1872050Y4670000D02*
Y4672000D01*
X1872670D01*
X1872870Y4671900D01*
X1873000Y4671770D01*
X1873050Y4671500D01*
X1873000Y4671230D01*
X1872850Y4671070D01*
X1872670Y4670970D01*
X1872050D01*
G01X1872670D02*
X1873050Y4670000D01*
G01X1874850D02*
X1873850D01*
Y4672000D01*
X1874850D01*
G01X1874450Y4671030D02*
X1873850D01*
G01X1875670Y4670000D02*
Y4672000D01*
X1876630D01*
G01X1876270Y4671030D02*
X1875670D01*
G01X1877400Y4670000D02*
Y4672000D01*
X1877900D01*
X1878100Y4671900D01*
X1878250Y4671770D01*
X1878380Y4671570D01*
X1878480Y4671330D01*
X1878500Y4671000D01*
X1878480Y4670670D01*
X1878380Y4670430D01*
X1878250Y4670230D01*
X1878100Y4670100D01*
X1877900Y4670000D01*
X1877400D01*
G01X1880250D02*
X1879250D01*
Y4672000D01*
X1880250D01*
G01X1879850Y4671030D02*
X1879250D01*
G01X1881020Y4670270D02*
X1881230Y4670100D01*
X1881450Y4670000D01*
X1881650D01*
X1881850Y4670100D01*
X1882000Y4670270D01*
X1882080Y4670500D01*
X1882030Y4670730D01*
X1881900Y4670930D01*
X1881670Y4671070D01*
X1881380Y4671130D01*
X1881200Y4671270D01*
X1881120Y4671500D01*
X1881180Y4671730D01*
X1881300Y4671900D01*
X1881470Y4672000D01*
X1881650D01*
X1881830Y4671930D01*
X1881980Y4671770D01*
G01X3350250Y2429330D02*
X3350750Y2432000D01*
G01X3351250D02*
X3350750Y2429330D01*
G01X3350000Y2430330D02*
X3351500D01*
G01Y2431000D02*
X3350000D01*
G01X3352050Y2430000D02*
Y2432000D01*
X3352670D01*
X3352870Y2431900D01*
X3353000Y2431770D01*
X3353050Y2431500D01*
X3353000Y2431230D01*
X3352850Y2431070D01*
X3352670Y2430970D01*
X3352050D01*
G01X3352670D02*
X3353050Y2430000D01*
G01X3354850D02*
X3353850D01*
Y2432000D01*
X3354850D01*
G01X3354450Y2431030D02*
X3353850D01*
G01X3355670Y2430000D02*
Y2432000D01*
X3356630D01*
G01X3356270Y2431030D02*
X3355670D01*
G01X3357400Y2430000D02*
Y2432000D01*
X3357900D01*
X3358100Y2431900D01*
X3358250Y2431770D01*
X3358380Y2431570D01*
X3358480Y2431330D01*
X3358500Y2431000D01*
X3358480Y2430670D01*
X3358380Y2430430D01*
X3358250Y2430230D01*
X3358100Y2430100D01*
X3357900Y2430000D01*
X3357400D01*
G01X3360250D02*
X3359250D01*
Y2432000D01*
X3360250D01*
G01X3359850Y2431030D02*
X3359250D01*
G01X3361020Y2430270D02*
X3361230Y2430100D01*
X3361450Y2430000D01*
X3361650D01*
X3361850Y2430100D01*
X3362000Y2430270D01*
X3362080Y2430500D01*
X3362030Y2430730D01*
X3361900Y2430930D01*
X3361670Y2431070D01*
X3361380Y2431130D01*
X3361200Y2431270D01*
X3361120Y2431500D01*
X3361180Y2431730D01*
X3361300Y2431900D01*
X3361470Y2432000D01*
X3361650D01*
X3361830Y2431930D01*
X3361980Y2431770D01*
G54D13*
G01X716250Y3900000D02*
X722500Y3920000D01*
X728750Y3900000D01*
G01X726500Y3907000D02*
X718500D01*
G01X734750Y3900000D02*
Y3920000D01*
X746250Y3900000D01*
Y3920000D01*
G01X758500D02*
Y3900000D01*
G01X752750Y3920000D02*
X764250D01*
G01X771750Y3916670D02*
X773250Y3918670D01*
X775000Y3919670D01*
X777000Y3920000D01*
X779500Y3919330D01*
X781250Y3917670D01*
X781750Y3915670D01*
X781500Y3913670D01*
X780500Y3912000D01*
X775500Y3908670D01*
X773250Y3906330D01*
X771750Y3903000D01*
X771250Y3900000D01*
X781750D01*
G01X556250Y3895000D02*
X562500Y3915000D01*
X568750Y3895000D01*
G01X566500Y3902000D02*
X558500D01*
G01X574750Y3895000D02*
Y3915000D01*
X586250Y3895000D01*
Y3915000D01*
G01X598500D02*
Y3895000D01*
G01X592750Y3915000D02*
X604250D01*
G01X611000Y3899000D02*
X612500Y3896670D01*
X614500Y3895330D01*
X616750Y3895000D01*
X618750Y3895330D01*
X620750Y3897000D01*
X622000Y3899000D01*
X622250Y3901000D01*
X621750Y3903330D01*
X620000Y3905000D01*
X618250Y3905670D01*
X616000D01*
G01X618250D02*
X619750Y3906670D01*
X621000Y3908330D01*
X621500Y3910330D01*
X621000Y3912330D01*
X619750Y3914000D01*
X617500Y3915000D01*
X615250Y3914670D01*
X613000Y3913330D01*
G01X886250Y3895000D02*
X892500Y3915000D01*
X898750Y3895000D01*
G01X896500Y3902000D02*
X888500D01*
G01X904750Y3895000D02*
Y3915000D01*
X916250Y3895000D01*
Y3915000D01*
G01X928500D02*
Y3895000D01*
G01X922750Y3915000D02*
X934250D01*
G01X946500Y3895000D02*
Y3915000D01*
X943500Y3911000D01*
G01Y3895000D02*
X949500D01*
G01X1985000Y2677500D02*
X2005000D01*
Y2687500D01*
G01X1988330Y2695750D02*
X1986330Y2697250D01*
X1985330Y2699000D01*
X1985000Y2701000D01*
X1985670Y2703500D01*
X1987330Y2705250D01*
X1989330Y2705750D01*
X1991330Y2705500D01*
X1993000Y2704500D01*
X1996330Y2699500D01*
X1998670Y2697250D01*
X2002000Y2695750D01*
X2005000Y2695250D01*
Y2705750D01*
G01X1985000Y2718500D02*
X1985670Y2716500D01*
X1987330Y2715000D01*
X1989330Y2714000D01*
X1992000Y2713250D01*
X1995000Y2713000D01*
X1998000Y2713250D01*
X2000670Y2714000D01*
X2002670Y2715000D01*
X2004330Y2716500D01*
X2005000Y2718500D01*
X2004330Y2720500D01*
X2002670Y2722000D01*
X2000670Y2723000D01*
X1998000Y2723750D01*
X1995000Y2724000D01*
X1992000Y2723750D01*
X1989330Y2723000D01*
X1987330Y2722000D01*
X1985670Y2720500D01*
X1985000Y2718500D01*
G01X2005000Y2736500D02*
X1985000D01*
X1989000Y2733500D01*
G01X2005000D02*
Y2739500D01*
G01X1972500Y2970000D02*
Y2990000D01*
X1978750D01*
X1980750Y2989000D01*
X1982000Y2987670D01*
X1982500Y2985000D01*
X1982000Y2982330D01*
X1980500Y2980670D01*
X1978750Y2979670D01*
X1972500D01*
G01X1978750D02*
X1982500Y2970000D01*
G01X1995500D02*
Y2990000D01*
X1992500Y2986000D01*
G01Y2970000D02*
X1998500D01*
G01X2013500D02*
X2015250Y2970330D01*
X2017250Y2971330D01*
X2018500Y2973000D01*
X2019000Y2975330D01*
X2018500Y2977670D01*
X2017000Y2979670D01*
X2014750Y2980670D01*
X2012250D01*
X2010750Y2981330D01*
X2009500Y2983000D01*
X2009000Y2985330D01*
X2009750Y2987670D01*
X2011500Y2989330D01*
X2013500Y2990000D01*
X2015500Y2989330D01*
X2017250Y2987670D01*
X2018000Y2985330D01*
X2017500Y2983000D01*
X2016250Y2981330D01*
X2014750Y2980670D01*
X2012250D01*
X2010000Y2979670D01*
X2008500Y2977670D01*
X2008000Y2975330D01*
X2008500Y2973000D01*
X2009750Y2971330D01*
X2011750Y2970330D01*
X2013500Y2970000D01*
G01X2031500D02*
Y2990000D01*
X2028500Y2986000D01*
G01Y2970000D02*
X2034500D01*
G01X2027500Y2380000D02*
Y2360000D01*
X2037500D01*
G01X2050500D02*
Y2380000D01*
X2047500Y2376000D01*
G01Y2360000D02*
X2053500D01*
G01X2064250Y2362330D02*
X2066000Y2360670D01*
X2068000Y2360000D01*
X2070000Y2360670D01*
X2071750Y2362670D01*
X2073000Y2365670D01*
X2073500Y2368670D01*
Y2372330D01*
X2073000Y2375330D01*
X2071750Y2378000D01*
X2070250Y2379330D01*
X2068500Y2380000D01*
X2066500Y2379330D01*
X2065000Y2378000D01*
X2064000Y2376000D01*
X2063500Y2373330D01*
X2064000Y2371000D01*
X2065250Y2368670D01*
X2066750Y2367330D01*
X2068500Y2367000D01*
X2070500Y2367670D01*
X2072000Y2369330D01*
X2073500Y2372330D01*
G01X2086500Y2360000D02*
Y2380000D01*
X2083500Y2376000D01*
G01Y2360000D02*
X2089500D01*
G01X2167500Y2365000D02*
Y2345000D01*
X2177500D01*
G01X2190500D02*
Y2365000D01*
X2187500Y2361000D01*
G01Y2345000D02*
X2193500D01*
G01X2208000D02*
X2208500Y2349330D01*
X2209250Y2353000D01*
X2210250Y2356330D01*
X2211500Y2360000D01*
X2213500Y2365000D01*
X2203500D01*
G01X2226500Y2345000D02*
Y2365000D01*
X2223500Y2361000D01*
G01Y2345000D02*
X2229500D01*
G01X2245000Y2547500D02*
X2265000D01*
Y2557500D01*
G01Y2570500D02*
X2245000D01*
X2249000Y2567500D01*
G01X2265000D02*
Y2573500D01*
G01X2262670Y2584250D02*
X2264330Y2586000D01*
X2265000Y2588000D01*
X2264330Y2590000D01*
X2262330Y2591750D01*
X2259330Y2593000D01*
X2256330Y2593500D01*
X2252670D01*
X2249670Y2593000D01*
X2247000Y2591750D01*
X2245670Y2590250D01*
X2245000Y2588500D01*
X2245670Y2586500D01*
X2247000Y2585000D01*
X2249000Y2584000D01*
X2251670Y2583500D01*
X2254000Y2584000D01*
X2256330Y2585250D01*
X2257670Y2586750D01*
X2258000Y2588500D01*
X2257330Y2590500D01*
X2255670Y2592000D01*
X2252670Y2593500D01*
G01X2248330Y2601750D02*
X2246330Y2603250D01*
X2245330Y2605000D01*
X2245000Y2607000D01*
X2245670Y2609500D01*
X2247330Y2611250D01*
X2249330Y2611750D01*
X2251330Y2611500D01*
X2253000Y2610500D01*
X2256330Y2605500D01*
X2258670Y2603250D01*
X2262000Y2601750D01*
X2265000Y2601250D01*
Y2611750D01*
G01X2227500Y2975000D02*
Y2955000D01*
X2237500D01*
G01X2250500D02*
Y2975000D01*
X2247500Y2971000D01*
G01Y2955000D02*
X2253500D01*
G01X2268000D02*
X2268500Y2959330D01*
X2269250Y2963000D01*
X2270250Y2966330D01*
X2271500Y2970000D01*
X2273500Y2975000D01*
X2263500D01*
G01X2289500Y2955000D02*
Y2975000D01*
X2280250Y2960670D01*
X2292750D01*
G01X2465000Y2857500D02*
X2485000D01*
Y2867500D01*
G01Y2880500D02*
X2465000D01*
X2469000Y2877500D01*
G01X2485000D02*
Y2883500D01*
G01Y2898000D02*
X2480670Y2898500D01*
X2477000Y2899250D01*
X2473670Y2900250D01*
X2470000Y2901500D01*
X2465000Y2903500D01*
Y2893500D01*
G01X2481000Y2911000D02*
X2483330Y2912500D01*
X2484670Y2914500D01*
X2485000Y2916750D01*
X2484670Y2918750D01*
X2483000Y2920750D01*
X2481000Y2922000D01*
X2479000Y2922250D01*
X2476670Y2921750D01*
X2475000Y2920000D01*
X2474330Y2918250D01*
Y2916000D01*
G01Y2918250D02*
X2473330Y2919750D01*
X2471670Y2921000D01*
X2469670Y2921500D01*
X2467670Y2921000D01*
X2466000Y2919750D01*
X2465000Y2917500D01*
X2465330Y2915250D01*
X2466670Y2913000D01*
G54D14*
G01X1310400Y1740000D02*
X1335600Y1796000D01*
G01X1310400D02*
X1335600Y1740000D01*
G01X1364000D02*
Y1796000D01*
X1356800Y1784800D01*
G01Y1740000D02*
X1371200D01*
G01X1574800Y1771000D02*
Y1730870D01*
X1577200Y1722470D01*
X1582000Y1716870D01*
X1588000Y1715000D01*
X1594000Y1716870D01*
X1598800Y1722470D01*
X1601200Y1730870D01*
Y1771000D01*
G01X1615800Y1726200D02*
X1619400Y1719670D01*
X1624200Y1715930D01*
X1629600Y1715000D01*
X1634400Y1715930D01*
X1639200Y1720600D01*
X1642200Y1726200D01*
X1642800Y1731800D01*
X1641600Y1738330D01*
X1637400Y1743000D01*
X1633200Y1744870D01*
X1627800D01*
G01X1633200D02*
X1636800Y1747670D01*
X1639800Y1752330D01*
X1641000Y1757930D01*
X1639800Y1763530D01*
X1636800Y1768200D01*
X1631400Y1771000D01*
X1626000Y1770070D01*
X1620600Y1766330D01*
G01X2866000Y180000D02*
Y236000D01*
X2880400D01*
X2885200Y233200D01*
X2888800Y226670D01*
X2890000Y219200D01*
X2888800Y211730D01*
X2885800Y206130D01*
X2880400Y203330D01*
X2866000D01*
G01X2926200Y180000D02*
Y236000D01*
X2904000Y195870D01*
X2934000D01*
G54D15*
G01X5000Y10000D02*
Y5680000D01*
X3935000D01*
Y10000D01*
X5000D01*
G01X694380Y281750D02*
X707930D01*
Y262700D01*
X703870Y256350D01*
X699130Y252120D01*
X692350Y250000D01*
X685580Y252120D01*
X680840Y256350D01*
X676770Y262700D01*
X674060Y270110D01*
X672710Y278570D01*
Y285980D01*
X674060Y292330D01*
X676770Y299740D01*
X680840Y306090D01*
X684900Y310320D01*
X690320Y313500D01*
X695060D01*
X700480Y311380D01*
X704540Y307150D01*
G01X730620Y250000D02*
Y313500D01*
X761780Y250000D01*
Y313500D01*
G01X787180Y250000D02*
Y313500D01*
X800730D01*
X806140Y310320D01*
X810210Y306090D01*
X813600Y299740D01*
X816300Y292330D01*
X816980Y281750D01*
X816300Y271170D01*
X813600Y263760D01*
X810210Y257410D01*
X806140Y253170D01*
X800730Y250000D01*
X787180D01*
G01X1079380Y386750D02*
X1092930D01*
Y367700D01*
X1088870Y361350D01*
X1084130Y357120D01*
X1077350Y355000D01*
X1070580Y357120D01*
X1065840Y361350D01*
X1061770Y367700D01*
X1059060Y375110D01*
X1057710Y383570D01*
Y390980D01*
X1059060Y397330D01*
X1061770Y404740D01*
X1065840Y411090D01*
X1069900Y415320D01*
X1075320Y418500D01*
X1080060D01*
X1085480Y416380D01*
X1089540Y412150D01*
G01X1117650Y355000D02*
Y418500D01*
X1133910D01*
X1139330Y415320D01*
X1143390Y407920D01*
X1144750Y399450D01*
X1143390Y390980D01*
X1140010Y384630D01*
X1133910Y381460D01*
X1117650D01*
G01X1178950Y418500D02*
X1195210D01*
G01X1187080D02*
Y355000D01*
G01X1178950D02*
X1195210D01*
G01X1242960D02*
X1237540Y356060D01*
X1232800Y360290D01*
X1228740Y366640D01*
X1226030Y374050D01*
X1224670Y382520D01*
Y390980D01*
X1226030Y399450D01*
X1228740Y406860D01*
X1232800Y413210D01*
X1237540Y417440D01*
X1242960Y418500D01*
X1248380Y417440D01*
X1253120Y413210D01*
X1257180Y406860D01*
X1259890Y399450D01*
X1261250Y390980D01*
Y382520D01*
X1259890Y374050D01*
X1257180Y366640D01*
X1253120Y360290D01*
X1248380Y356060D01*
X1242960Y355000D01*
G01X1298840Y418500D02*
X1293420Y416380D01*
X1289360Y411090D01*
X1286650Y404740D01*
X1284620Y396270D01*
X1283940Y386750D01*
X1284620Y377220D01*
X1286650Y368760D01*
X1289360Y362410D01*
X1293420Y357120D01*
X1298840Y355000D01*
X1304260Y357120D01*
X1308320Y362410D01*
X1311030Y368760D01*
X1313060Y377220D01*
X1313740Y386750D01*
X1313060Y396270D01*
X1311030Y404740D01*
X1308320Y411090D01*
X1304260Y416380D01*
X1298840Y418500D01*
G01X1438250Y379380D02*
Y392930D01*
X1457300D01*
X1463650Y388870D01*
X1467880Y384130D01*
X1470000Y377350D01*
X1467880Y370580D01*
X1463650Y365840D01*
X1457300Y361770D01*
X1449890Y359060D01*
X1441430Y357710D01*
X1434020D01*
X1427670Y359060D01*
X1420260Y361770D01*
X1413910Y365840D01*
X1409680Y369900D01*
X1406500Y375320D01*
Y380060D01*
X1408620Y385480D01*
X1412850Y389540D01*
G01X1470000Y417650D02*
X1406500D01*
Y433910D01*
X1409680Y439330D01*
X1417080Y443390D01*
X1425550Y444750D01*
X1434020Y443390D01*
X1440370Y440010D01*
X1443540Y433910D01*
Y417650D01*
G01X1406500Y478950D02*
Y495210D01*
G01Y487080D02*
X1470000D01*
G01Y478950D02*
Y495210D01*
G01Y542960D02*
X1468940Y537540D01*
X1464710Y532800D01*
X1458360Y528740D01*
X1450950Y526030D01*
X1442480Y524670D01*
X1434020D01*
X1425550Y526030D01*
X1418140Y528740D01*
X1411790Y532800D01*
X1407560Y537540D01*
X1406500Y542960D01*
X1407560Y548380D01*
X1411790Y553120D01*
X1418140Y557180D01*
X1425550Y559890D01*
X1434020Y561250D01*
X1442480D01*
X1450950Y559890D01*
X1458360Y557180D01*
X1464710Y553120D01*
X1468940Y548380D01*
X1470000Y542960D01*
G01X1417080Y585970D02*
X1410730Y590030D01*
X1407560Y594780D01*
X1406500Y600190D01*
X1408620Y606970D01*
X1413910Y611710D01*
X1420260Y613060D01*
X1426610Y612390D01*
X1431900Y609680D01*
X1442480Y596130D01*
X1449890Y590030D01*
X1460480Y585970D01*
X1470000Y584620D01*
Y613060D01*
G01X1650220Y418210D02*
X1646160Y421380D01*
X1641420Y423500D01*
X1636000D01*
X1629900Y420320D01*
X1625160Y415030D01*
X1621770Y408680D01*
X1619060Y398100D01*
X1618390Y388570D01*
X1619740Y379050D01*
X1621770Y372700D01*
X1625840Y366350D01*
X1630580Y362120D01*
X1635320Y360000D01*
X1640060D01*
X1644800Y362120D01*
X1648870Y365290D01*
X1652250Y369520D01*
G01X1676980Y368460D02*
X1682390Y363170D01*
X1688490Y360000D01*
X1693910D01*
X1699330Y363170D01*
X1703390Y368460D01*
X1705420Y375880D01*
X1704070Y383280D01*
X1700680Y389630D01*
X1694590Y393870D01*
X1686460Y395980D01*
X1681720Y400220D01*
X1679680Y407620D01*
X1681040Y415030D01*
X1684430Y420320D01*
X1689170Y423500D01*
X1693910D01*
X1698650Y421380D01*
X1702720Y416090D01*
G01X1731500Y360000D02*
Y423500D01*
X1762660Y360000D01*
Y423500D01*
G01X1971540Y356100D02*
X1976830Y361510D01*
X1980000Y367610D01*
Y373030D01*
X1976830Y378450D01*
X1971540Y382510D01*
X1964120Y384540D01*
X1956720Y383190D01*
X1950370Y379800D01*
X1946130Y373710D01*
X1944020Y365580D01*
X1939780Y360840D01*
X1932380Y358800D01*
X1924970Y360160D01*
X1919680Y363550D01*
X1916500Y368290D01*
Y373030D01*
X1918620Y377770D01*
X1923910Y381840D01*
G01X1921790Y441100D02*
X1918620Y437040D01*
X1916500Y432300D01*
Y426880D01*
X1919680Y420780D01*
X1924970Y416040D01*
X1931320Y412650D01*
X1941900Y409940D01*
X1951430Y409270D01*
X1960950Y410620D01*
X1967300Y412650D01*
X1973650Y416720D01*
X1977880Y421460D01*
X1980000Y426200D01*
Y430940D01*
X1977880Y435680D01*
X1974710Y439750D01*
X1970480Y443130D01*
G01X1916500Y468530D02*
X1980000D01*
Y495630D01*
G01Y523060D02*
X1916500D01*
G01Y548800D02*
X1955660Y523060D01*
G01X1980000Y552860D02*
X1937670Y534570D01*
G01X2235000Y357710D02*
X2171500D01*
X2224420Y375320D01*
X2171500Y392930D01*
X2235000D01*
G01Y431200D02*
X2233940Y425780D01*
X2229710Y421040D01*
X2223360Y416980D01*
X2215950Y414270D01*
X2207480Y412910D01*
X2199020D01*
X2190550Y414270D01*
X2183140Y416980D01*
X2176790Y421040D01*
X2172560Y425780D01*
X2171500Y431200D01*
X2172560Y436620D01*
X2176790Y441360D01*
X2183140Y445420D01*
X2190550Y448130D01*
X2199020Y449490D01*
X2207480D01*
X2215950Y448130D01*
X2223360Y445420D01*
X2229710Y441360D01*
X2233940Y436620D01*
X2235000Y431200D01*
G01X2226540Y472860D02*
X2231830Y478270D01*
X2235000Y484370D01*
Y489790D01*
X2231830Y495210D01*
X2226540Y499270D01*
X2219120Y501300D01*
X2211720Y499950D01*
X2205370Y496560D01*
X2201130Y490470D01*
X2199020Y482340D01*
X2194780Y477600D01*
X2187380Y475560D01*
X2179970Y476920D01*
X2174680Y480310D01*
X2171500Y485050D01*
Y489790D01*
X2173620Y494530D01*
X2178910Y498600D01*
G01X2171500Y534830D02*
Y551090D01*
G01Y542960D02*
X2235000D01*
G01Y534830D02*
Y551090D01*
G01X2643390Y423500D02*
X2660320Y360000D01*
X2677250Y423500D01*
G01X2701300Y360000D02*
Y423500D01*
X2714850D01*
X2720260Y420320D01*
X2724330Y416090D01*
X2727720Y409740D01*
X2730420Y402330D01*
X2731100Y391750D01*
X2730420Y381170D01*
X2727720Y373760D01*
X2724330Y367410D01*
X2720260Y363170D01*
X2714850Y360000D01*
X2701300D01*
G01X2757180D02*
Y423500D01*
X2770730D01*
X2776140Y420320D01*
X2780210Y416090D01*
X2783600Y409740D01*
X2786300Y402330D01*
X2786980Y391750D01*
X2786300Y381170D01*
X2783600Y373760D01*
X2780210Y367410D01*
X2776140Y363170D01*
X2770730Y360000D01*
X2757180D01*
G01X2490000Y357710D02*
X2426500D01*
X2479420Y375320D01*
X2426500Y392930D01*
X2490000D01*
G01X2426500Y423070D02*
Y439330D01*
G01Y431200D02*
X2490000D01*
G01Y423070D02*
Y439330D01*
G01X2481540Y472860D02*
X2486830Y478270D01*
X2490000Y484370D01*
Y489790D01*
X2486830Y495210D01*
X2481540Y499270D01*
X2474120Y501300D01*
X2466720Y499950D01*
X2460370Y496560D01*
X2456130Y490470D01*
X2454020Y482340D01*
X2449780Y477600D01*
X2442380Y475560D01*
X2434970Y476920D01*
X2429680Y480310D01*
X2426500Y485050D01*
Y489790D01*
X2428620Y494530D01*
X2433910Y498600D01*
G01X2426500Y542960D02*
X2428620Y537540D01*
X2433910Y533480D01*
X2440260Y530770D01*
X2448730Y528740D01*
X2458250Y528060D01*
X2467780Y528740D01*
X2476240Y530770D01*
X2482590Y533480D01*
X2487880Y537540D01*
X2490000Y542960D01*
X2487880Y548380D01*
X2482590Y552440D01*
X2476240Y555150D01*
X2467780Y557180D01*
X2458250Y557860D01*
X2448730Y557180D01*
X2440260Y555150D01*
X2433910Y552440D01*
X2428620Y548380D01*
X2426500Y542960D01*
M02*
