G04 ================== begin FILE IDENTIFICATION RECORD ==================*
G04 Layout Name:  CC120xEM_420_470.brd*
G04 Film Name:    soldmask_bottom*
G04 File Format:  Gerber RS274X*
G04 File Origin:  Cadence Allegro 16.5-S017*
G04 Origin Date:  Fri Jan 25 12:45:29 2013*
G04 *
G04 Layer:  VIA CLASS/SOLDERMASK_BOTTOM*
G04 Layer:  PIN/SOLDERMASK_BOTTOM*
G04 Layer:  BOARD GEOMETRY/OUTLINE*
G04 *
G04 Offset:    (0.0000 0.0000)*
G04 Mirror:    No*
G04 Mode:      Positive*
G04 Rotation:  0*
G04 FullContactRelief:  No*
G04 UndefLineWidth:     0.0100*
G04 ================== end FILE IDENTIFICATION RECORD ====================*
%FSLAX25Y25*MOMM*%
%IR0*IPPOS*OFA0.00000B0.00000*MIA0B0*SFA1.00000B1.00000*%
%ADD13C,.65*%
%ADD15C,.85*%
%ADD11O,2.1999X.8001*%
%ADD14C,2.05*%
%ADD12C,1.4201*%
%ADD10C,1.7*%
%ADD16C,.01*%
G75*
%LPD*%
G75*
G54D10*
X447670Y236250D03*
Y1696750D03*
X3495670Y236250D03*
Y1696750D03*
G54D11*
X317500Y395000D03*
Y522000D03*
Y649000D03*
Y776000D03*
Y903000D03*
Y1030000D03*
Y1157000D03*
Y1284000D03*
Y1411000D03*
Y1538000D03*
X577850Y395000D03*
Y522000D03*
Y649000D03*
Y776000D03*
Y903000D03*
Y1030000D03*
Y1157000D03*
Y1284000D03*
Y1411000D03*
Y1538000D03*
X3625850Y395000D03*
X3365500D03*
X3625850Y522000D03*
Y649000D03*
Y776000D03*
X3365500Y522000D03*
Y649000D03*
Y776000D03*
X3625850Y903000D03*
Y1030000D03*
Y1157000D03*
X3365500Y903000D03*
Y1030000D03*
Y1157000D03*
X3625850Y1284000D03*
Y1411000D03*
Y1538000D03*
X3365500Y1284000D03*
Y1411000D03*
Y1538000D03*
G54D12*
X254000Y3316000D03*
X3751600Y191800D03*
X3702500Y3291000D03*
G54D13*
X455000Y5560000D03*
X735000Y5030000D03*
Y5560000D03*
X1015000Y5030000D03*
Y5560000D03*
X1295000Y5030000D03*
X1575000D03*
X1295000Y5560000D03*
X1575000D03*
X1855000Y5030000D03*
Y5560000D03*
X2135000Y5030000D03*
X2415000D03*
X2135000Y5560000D03*
X2415000D03*
X2695000Y5030000D03*
Y5560000D03*
X2975000Y5030000D03*
Y5560000D03*
X3255000Y5030000D03*
X3535000D03*
X3255000Y5560000D03*
X3535000D03*
X3815000Y5030000D03*
Y5560000D03*
G54D14*
X1184000Y220000D03*
X930000D03*
X1692000D03*
X1438000D03*
X1946000D03*
X2454000D03*
X2200000D03*
X2708000D03*
G54D15*
X2027500Y1895900D03*
X1927500D03*
X1827500D03*
X2027500Y1995900D03*
X1927500D03*
X1827500D03*
X2027500Y2095900D03*
X1927500D03*
X1827500D03*
G54D16*
G01X5000Y10000D02*
Y5680000D01*
X3935000D01*
Y10000D01*
X5000D01*
M02*
