G04 ================== begin FILE IDENTIFICATION RECORD ==================*
G04 Layout Name:  CC120xEM_420_470.brd*
G04 Film Name:    soldmask_top*
G04 File Format:  Gerber RS274X*
G04 File Origin:  Cadence Allegro 16.5-S017*
G04 Origin Date:  Fri Jan 25 12:45:29 2013*
G04 *
G04 Layer:  PIN/SOLDERMASK_TOP*
G04 Layer:  BOARD GEOMETRY/OUTLINE*
G04 *
G04 Offset:    (0.0000 0.0000)*
G04 Mirror:    No*
G04 Mode:      Positive*
G04 Rotation:  0*
G04 FullContactRelief:  No*
G04 UndefLineWidth:     0.0100*
G04 ================== end FILE IDENTIFICATION RECORD ====================*
%FSLAX25Y25*MOMM*%
%IR0*IPPOS*OFA0.00000B0.00000*MIA0B0*SFA1.00000B1.00000*%
%AMMACRO18*
4,1,41,0.0,-1.0749,
.5375,-1.0749,
.630819,-1.066736,
.721302,-1.042491,
.8062,-1.002902,
.882934,-.949172,
.949172,-.882934,
1.002902,-.8062,
1.042491,-.721302,
1.066736,-.630819,
1.0749,-.5375,
1.0749,.5375,
1.066736,.630819,
1.042491,.721302,
1.002902,.8062,
.949172,.882934,
.882934,.949172,
.8062,1.002902,
.721302,1.042491,
.630819,1.066736,
.5375,1.0749,
-.5375,1.0749,
-.630819,1.066736,
-.721302,1.042491,
-.8062,1.002902,
-.882934,.949172,
-.949172,.882934,
-1.002902,.8062,
-1.042491,.721302,
-1.066736,.630819,
-1.0749,.5375,
-1.0749,-.5375,
-1.066736,-.630819,
-1.042491,-.721302,
-1.002902,-.8062,
-.949172,-.882934,
-.882934,-.949172,
-.8062,-1.002902,
-.721302,-1.042491,
-.630819,-1.066736,
-.5375,-1.0749,
0.0,-1.0749,
0.0*
%
%ADD18MACRO18*%
%AMMACRO17*
4,1,40,-.3625,-.725,
.3625,-.725,
.425447,-.719493,
.486482,-.703139,
.54375,-.676434,
.595511,-.640191,
.640191,-.595511,
.676434,-.54375,
.703139,-.486482,
.719493,-.425447,
.725,-.3625,
.725,.3625,
.719493,.425447,
.703139,.486482,
.676434,.54375,
.640191,.595511,
.595511,.640191,
.54375,.676434,
.486482,.703139,
.425447,.719493,
.3625,.725,
-.3625,.725,
-.425447,.719493,
-.486482,.703139,
-.54375,.676434,
-.595511,.640191,
-.640191,.595511,
-.676434,.54375,
-.703139,.486482,
-.719493,.425447,
-.725,.3625,
-.725,-.3625,
-.719493,-.425447,
-.703139,-.486482,
-.676434,-.54375,
-.640191,-.595511,
-.595511,-.640191,
-.54375,-.676434,
-.486482,-.703139,
-.425447,-.719493,
-.3625,-.725,
0.0*
%
%ADD17MACRO17*%
%AMMACRO23*
4,1,41,0.0,-.475,
.1,-.475,
.117365,-.473481,
.134202,-.468969,
.15,-.461603,
.164279,-.451604,
.176604,-.439279,
.186603,-.425,
.193969,-.409202,
.198481,-.392365,
.2,-.375,
.2,.375,
.198481,.392365,
.193969,.409202,
.186603,.425,
.176604,.439279,
.164279,.451604,
.15,.461603,
.134202,.468969,
.117365,.473481,
.1,.475,
-.1,.475,
-.117365,.473481,
-.134202,.468969,
-.15,.461603,
-.164279,.451604,
-.176604,.439279,
-.186603,.425,
-.193969,.409202,
-.198481,.392365,
-.2,.375,
-.2,-.375,
-.198481,-.392365,
-.193969,-.409202,
-.186603,-.425,
-.176604,-.439279,
-.164279,-.451604,
-.15,-.461603,
-.134202,-.468969,
-.117365,-.473481,
-.1,-.475,
0.0,-.475,
0.0*
%
%ADD23MACRO23*%
%ADD28O,.7X1.1501*%
%AMMACRO26*
4,1,45,.4,0.0,
.4,.2062,
.397434,.235497,
.389819,.263904,
.377388,.290556,
.360517,.314645,
.33972,.335439,
.315627,.352305,
.288972,.364731,
.260564,.37234,
.231267,.3749,
.2311,.3749,
-.2311,.3749,
-.2604,.372369,
-.288816,.364788,
-.315483,.352388,
-.339592,.335546,
-.36041,.314773,
-.377305,.2907,
-.389762,.26406,
-.397405,.235661,
-.4,.206367,
-.4,.2062,
-.4,-.2062,
-.397434,-.235497,
-.389819,-.263904,
-.377388,-.290556,
-.360517,-.314645,
-.33972,-.335439,
-.315627,-.352305,
-.288972,-.364731,
-.260564,-.37234,
-.231267,-.3749,
-.2311,-.3749,
.2311,-.3749,
.2604,-.372369,
.288816,-.364788,
.315483,-.352388,
.339592,-.335546,
.36041,-.314773,
.377305,-.2907,
.389762,-.26406,
.397405,-.235661,
.4,-.206367,
.4,-.2062,
.4,0.0,
0.0*
%
%ADD26MACRO26*%
%AMMACRO27*
4,1,45,0.0,-.4,
.2062,-.4,
.235497,-.397434,
.263904,-.389819,
.290556,-.377388,
.314645,-.360517,
.335439,-.33972,
.352305,-.315627,
.364731,-.288972,
.37234,-.260564,
.3749,-.231267,
.3749,-.2311,
.3749,.2311,
.372369,.2604,
.364788,.288816,
.352388,.315483,
.335546,.339592,
.314773,.36041,
.2907,.377305,
.26406,.389762,
.235661,.397405,
.206367,.4,
.2062,.4,
-.2062,.4,
-.235497,.397434,
-.263904,.389819,
-.290556,.377388,
-.314645,.360517,
-.335439,.33972,
-.352305,.315627,
-.364731,.288972,
-.37234,.260564,
-.3749,.231267,
-.3749,.2311,
-.3749,-.2311,
-.372369,-.2604,
-.364788,-.288816,
-.352388,-.315483,
-.335546,-.339592,
-.314773,-.36041,
-.2907,-.377305,
-.26406,-.389762,
-.235661,-.397405,
-.206367,-.4,
-.2062,-.4,
0.0,-.4,
0.0*
%
%ADD27MACRO27*%
%AMMACRO25*
4,1,44,.3749,.1849,
.3749,-.1849,
.372124,-.217028,
.363812,-.248186,
.350215,-.277427,
.331747,-.303862,
.308969,-.32669,
.282573,-.345215,
.253362,-.358875,
.222222,-.367255,
.1901,-.3701,
.19,-.3701,
-.19,-.3701,
-.222123,-.367272,
-.253268,-.358909,
-.282487,-.345265,
-.308892,-.326754,
-.331683,-.303939,
-.350165,-.277513,
-.363777,-.24828,
-.372107,-.217127,
-.3749,-.185,
-.3749,-.1849,
-.3749,.1849,
-.372124,.217028,
-.363812,.248186,
-.350215,.277427,
-.331747,.303862,
-.308969,.32669,
-.282573,.345215,
-.253362,.358875,
-.222222,.367255,
-.1901,.3701,
-.19,.3701,
.19,.3701,
.222123,.367272,
.253268,.358909,
.282487,.345265,
.308892,.326754,
.331683,.303939,
.350165,.277513,
.363777,.24828,
.372107,.217127,
.3749,.185,
.3749,.1849,
0.0*
%
%ADD25MACRO25*%
%AMMACRO16*
4,1,44,.1849,-.3749,
-.1849,-.3749,
-.217028,-.372124,
-.248186,-.363812,
-.277427,-.350215,
-.303862,-.331747,
-.32669,-.308969,
-.345215,-.282573,
-.358875,-.253362,
-.367255,-.222222,
-.3701,-.1901,
-.3701,-.19,
-.3701,.19,
-.367272,.222123,
-.358909,.253268,
-.345265,.282487,
-.326754,.308892,
-.303939,.331683,
-.277513,.350165,
-.24828,.363777,
-.217127,.372107,
-.185,.3749,
-.1849,.3749,
.1849,.3749,
.217028,.372124,
.248186,.363812,
.277427,.350215,
.303862,.331747,
.32669,.308969,
.345215,.282573,
.358875,.253362,
.367255,.222222,
.3701,.1901,
.3701,.19,
.3701,-.19,
.367272,-.222123,
.358909,-.253268,
.345265,-.282487,
.326754,-.308892,
.303939,-.331683,
.277513,-.350165,
.24828,-.363777,
.217127,-.372107,
.185,-.3749,
.1849,-.3749,
0.0*
%
%ADD16MACRO16*%
%ADD12R,.85X.85*%
%AMMACRO24*
4,1,40,-.5751,-.2751,
-.5751,.2751,
-.570887,.32285,
-.558447,.369143,
-.538157,.412573,
-.510634,.45182,
-.476713,.485691,
-.437427,.513157,
-.393968,.533384,
-.347656,.545757,
-.3,.5499,
.3,.5499,
.347755,.54574,
.394062,.53335,
.437513,.513107,
.47679,.485627,
.510698,.451743,
.538207,.412487,
.558481,.36905,
.570905,.322752,
.5751,.2751,
.5751,-.2751,
.570887,-.32285,
.558447,-.369143,
.538157,-.412573,
.510634,-.45182,
.476713,-.485691,
.437427,-.513157,
.393968,-.533384,
.347656,-.545757,
.3,-.5499,
-.3,-.5499,
-.347755,-.54574,
-.394062,-.53335,
-.437513,-.513107,
-.47679,-.485627,
-.510698,-.451743,
-.538207,-.412487,
-.558481,-.36905,
-.570905,-.322752,
-.5751,-.2751,
0.0*
%
%ADD24MACRO24*%
%AMMACRO22*
4,1,41,-.475,0.0,
-.475,-.1,
-.473481,-.117365,
-.468969,-.134202,
-.461603,-.15,
-.451604,-.164279,
-.439279,-.176604,
-.425,-.186603,
-.409202,-.193969,
-.392365,-.198481,
-.375,-.2,
.375,-.2,
.392365,-.198481,
.409202,-.193969,
.425,-.186603,
.439279,-.176604,
.451604,-.164279,
.461603,-.15,
.468969,-.134202,
.473481,-.117365,
.475,-.1,
.475,.1,
.473481,.117365,
.468969,.134202,
.461603,.15,
.451604,.164279,
.439279,.176604,
.425,.186603,
.409202,.193969,
.392365,.198481,
.375,.2,
-.375,.2,
-.392365,.198481,
-.409202,.193969,
-.425,.186603,
-.439279,.176604,
-.451604,.164279,
-.461603,.15,
-.468969,.134202,
-.473481,.117365,
-.475,.1,
-.475,0.0,
0.0*
%
%ADD22MACRO22*%
%AMMACRO20*
4,1,40,-.2388,-.574,
.2388,-.574,
.279969,-.570229,
.319857,-.559367,
.357254,-.541743,
.391021,-.517893,
.420135,-.488541,
.443709,-.454581,
.461028,-.417042,
.471565,-.377066,
.475,-.3378,
.475,.3378,
.471229,.378969,
.460367,.418857,
.442743,.456254,
.418893,.490021,
.389541,.519135,
.355581,.542709,
.318042,.560028,
.278066,.570565,
.2388,.574,
-.2388,.574,
-.279969,.570229,
-.319857,.559367,
-.357254,.541743,
-.391021,.517893,
-.420135,.488541,
-.443709,.454581,
-.461028,.417042,
-.471565,.377066,
-.475,.3378,
-.475,-.3378,
-.471229,-.378969,
-.460367,-.418857,
-.442743,-.456254,
-.418893,-.490021,
-.389541,-.519135,
-.355581,-.542709,
-.318042,-.560028,
-.278066,-.570565,
-.2388,-.574,
0.0*
%
%ADD20MACRO20*%
%AMMACRO14*
4,1,44,-.1849,.3749,
.1849,.3749,
.217028,.372124,
.248186,.363812,
.277427,.350215,
.303862,.331747,
.32669,.308969,
.345215,.282573,
.358875,.253362,
.367255,.222222,
.3701,.1901,
.3701,.19,
.3701,-.19,
.367272,-.222123,
.358909,-.253268,
.345265,-.282487,
.326754,-.308892,
.303939,-.331683,
.277513,-.350165,
.24828,-.363777,
.217127,-.372107,
.185,-.3749,
.1849,-.3749,
-.1849,-.3749,
-.217028,-.372124,
-.248186,-.363812,
-.277427,-.350215,
-.303862,-.331747,
-.32669,-.308969,
-.345215,-.282573,
-.358875,-.253362,
-.367255,-.222222,
-.3701,-.1901,
-.3701,-.19,
-.3701,.19,
-.367272,.222123,
-.358909,.253268,
-.345265,.282487,
-.326754,.308892,
-.303939,.331683,
-.277513,.350165,
-.24828,.363777,
-.217127,.372107,
-.185,.3749,
-.1849,.3749,
0.0*
%
%ADD14MACRO14*%
%AMMACRO13*
4,1,44,-.3749,-.1849,
-.3749,.1849,
-.372124,.217028,
-.363812,.248186,
-.350215,.277427,
-.331747,.303862,
-.308969,.32669,
-.282573,.345215,
-.253362,.358875,
-.222222,.367255,
-.1901,.3701,
-.19,.3701,
.19,.3701,
.222123,.367272,
.253268,.358909,
.282487,.345265,
.308892,.326754,
.331683,.303939,
.350165,.277513,
.363777,.24828,
.372107,.217127,
.3749,.185,
.3749,.1849,
.3749,-.1849,
.372124,-.217028,
.363812,-.248186,
.350215,-.277427,
.331747,-.303862,
.308969,-.32669,
.282573,-.345215,
.253362,-.358875,
.222222,-.367255,
.1901,-.3701,
.19,-.3701,
-.19,-.3701,
-.222123,-.367272,
-.253268,-.358909,
-.282487,-.345265,
-.308892,-.326754,
-.331683,-.303939,
-.350165,-.277513,
-.363777,-.24828,
-.372107,-.217127,
-.3749,-.185,
-.3749,-.1849,
0.0*
%
%ADD13MACRO13*%
%ADD15C,2.05*%
%ADD11C,1.4201*%
%ADD10C,1.7*%
%ADD21R,3.3X3.3*%
%ADD19C,1.95*%
%ADD29C,.01*%
G75*
%LPD*%
G75*
G54D10*
X447670Y236250D03*
Y1696750D03*
X3495670Y236250D03*
Y1696750D03*
G54D11*
X254000Y3316000D03*
X3751600Y191800D03*
X3701500Y3291500D03*
G54D20*
X1555000Y865000D03*
X1345000D03*
X1555000Y1005000D03*
X1345000D03*
G54D21*
X1928000Y1995000D03*
G54D12*
X455000Y3830000D03*
G54D13*
X705000D03*
X795000D03*
X1150000Y1825000D03*
X1240000D03*
X1010000Y1725000D03*
X1100000D03*
X1340000Y1140000D03*
X1430000D03*
X1340000Y1260000D03*
X1430000D03*
X1360000Y1920000D03*
X1450000D03*
X1390000Y2050000D03*
X1480000D03*
X1420000Y2310000D03*
X1510000D03*
X1390000Y2180000D03*
X1480000D03*
X2014000Y2445000D03*
X1960000Y3035000D03*
X2220000Y925000D03*
X2310000D03*
X2400000Y1845000D03*
X2104000Y2445000D03*
X2210000Y3145000D03*
X2300000D03*
X2215000Y3035000D03*
X2305000D03*
X2050000D03*
X2490000Y1845000D03*
X2535000Y2430000D03*
X2625000D03*
G54D22*
X1680500Y1820000D03*
Y1870000D03*
Y1920000D03*
Y1970000D03*
Y2020000D03*
Y2070000D03*
Y2120000D03*
Y2170000D03*
X2175500Y1970000D03*
Y1920000D03*
Y1870000D03*
Y1820000D03*
Y2170000D03*
Y2120000D03*
Y2070000D03*
Y2020000D03*
G54D14*
X585000Y3830000D03*
Y3740000D03*
X1200000Y1095000D03*
Y1005000D03*
X1580000Y1215000D03*
Y1305000D03*
X1605000Y2370000D03*
Y2460000D03*
X1815000Y2565000D03*
Y2475000D03*
X1915000Y2640000D03*
Y2550000D03*
X1715000Y2565000D03*
Y2475000D03*
X2005000Y2636000D03*
Y2546000D03*
X2105000Y2640000D03*
Y2550000D03*
X2200000Y2635000D03*
Y2545000D03*
X2400000Y2932500D03*
Y2842500D03*
X2050000Y3125000D03*
X2510000Y2635000D03*
Y2545000D03*
G54D23*
X2003000Y1747500D03*
X1953000D03*
X1903000D03*
X1853000D03*
X1803000D03*
X1753000D03*
Y2242500D03*
X1803000D03*
X1853000D03*
X1903000D03*
X1953000D03*
X2003000D03*
X2103000Y1747500D03*
X2053000D03*
Y2242500D03*
X2103000D03*
G54D15*
X1184000Y220000D03*
X930000D03*
X1692000D03*
X1438000D03*
X1946000D03*
X2454000D03*
X2200000D03*
X2708000D03*
G54D24*
X2405000Y1070000D03*
Y1230000D03*
G54D16*
X995000Y1495000D03*
Y1585000D03*
X1100000Y1495000D03*
Y1585000D03*
X915000Y3740000D03*
Y3830000D03*
X1630000Y1425000D03*
Y1515000D03*
X1970000Y1530000D03*
Y1620000D03*
X1735000Y1530000D03*
Y1620000D03*
X2435000Y835000D03*
Y925000D03*
G54D25*
X2190000Y1580000D03*
X2100000D03*
X2360000Y1975000D03*
X2410000Y2225000D03*
X2320000D03*
X2361000Y2335000D03*
X2271000D03*
X2360000Y2095000D03*
X2400000Y2740000D03*
X2310000D03*
X2400000Y2445000D03*
X2310000D03*
X2400000Y3035000D03*
X2450000Y1975000D03*
X2730000Y2335000D03*
X2450000Y2095000D03*
X2625000Y2335000D03*
X2535000D03*
X2730000Y2430000D03*
X2490000Y3035000D03*
X2995000Y1230000D03*
X2905000D03*
X2820000Y2335000D03*
Y2430000D03*
G54D26*
X2400000Y2639000D03*
Y2541000D03*
G54D17*
X1250000Y1410000D03*
Y1640000D03*
X1430000Y1410000D03*
Y1640000D03*
G54D27*
X2154000Y2750000D03*
X2056000D03*
G54D18*
X930000Y2845000D03*
Y3405000D03*
X1490000Y2845000D03*
Y3405000D03*
G54D19*
X1210000Y3125000D03*
G54D28*
X2566700Y1228800D03*
X2756700D03*
Y958800D03*
X2661700D03*
X2566700D03*
G54D29*
G01X5000Y10000D02*
Y5680000D01*
X3935000D01*
Y10000D01*
X5000D01*
M02*
